<svg width="603" height="649" viewBox="0 0 603 649" fill="none" xmlns="http://www.w3.org/2000/svg">
<path d="M515.492 548.842L510.561 550.862C510.561 550.862 510.761 537.392 510.102 528.799C508.818 512.046 506.754 502.677 502.173 486.511C498.077 472.056 495.213 464.017 488.717 450.47C478.012 428.14 469.682 416.412 453.157 397.97C438.157 381.229 428.447 372.66 409.788 360.126C387.522 345.171 373.37 338.51 347.676 330.813C330.779 325.751 320.907 323.808 303.345 322.163C283.864 320.338 272.646 320.436 253.248 323.004C235.841 325.308 226.143 327.805 209.518 333.456C189.488 340.264 178.385 345.219 160.502 356.522C149.477 363.491 143.632 367.997 133.712 376.465C124.425 384.393 119.408 389.129 111.246 398.21C98.6422 412.233 92.248 420.937 83.0132 437.375C73.3812 454.52 63.6709 483.868 63.6709 483.868C63.6709 483.868 70.2526 452.738 78.2071 434.131C85.4905 417.094 90.8179 407.934 101.514 392.804C109.344 381.728 114.088 375.664 123.619 366.013C133.563 355.943 139.929 351.036 151.371 342.706C169.009 329.866 179.621 323.16 199.786 314.834C218.157 307.25 229.177 304.277 248.802 301.139C257.972 299.672 265.531 298.846 272.848 298.496C272.733 297.783 271.987 292.842 272.929 289.814C273.66 287.467 274.568 286.317 276.008 284.325C278.186 281.314 279.649 279.61 282.836 277.699C286.232 275.661 288.608 275.221 292.541 274.753C296.704 274.259 299.237 274.281 303.251 275.49C306.924 276.596 308.97 277.682 311.885 280.175C314.17 282.128 315.393 283.43 316.839 286.065C318.766 289.578 319.053 292.037 319.248 296.039C319.331 297.737 319.114 300.389 319.114 300.389L318.161 300.352C329.813 301.451 339.147 303.017 352.601 306.785C380.565 314.616 395.671 322.719 419.398 339.463C441.332 354.941 452.762 365.642 469.135 386.917C485.196 407.787 492.51 421.268 501.812 445.904C507.373 460.634 509.864 469.231 512.745 484.709C515.949 501.927 516.642 511.887 516.469 529.4C516.394 537.002 515.492 548.842 515.492 548.842Z" fill="#F5DEB3" stroke="#F5DEB3"/>
<path d="M91.2226 562.013L75.0634 556.218C75.0634 556.218 72.9218 536.174 73.6145 523.341C74.4818 507.271 76.1087 498.15 80.8585 482.774C84.8814 469.752 87.8596 462.543 94.5665 450.678C103.718 434.487 110.6 426.14 123.988 413.232C133.535 404.027 150.624 392.168 150.624 392.168C150.624 392.168 172.53 379.095 187.847 373.779C205.435 367.677 216.066 365.767 234.655 364.752C245.436 364.164 251.576 364.112 262.294 365.421C280.067 367.591 306.315 378.237 306.315 378.237C306.315 378.237 279.239 371.288 261.514 370.882C251.14 370.644 245.26 370.969 234.989 372.442C217.526 374.947 207.766 377.999 191.636 385.147C179.269 390.628 172.586 394.492 161.546 402.31C151.317 409.553 145.812 414.102 137.139 423.15C126.707 434.034 119.486 442.096 113.958 454.021L99.8044 484.557C94.2771 496.483 92.6183 508.444 91.0002 524.232C89.4958 538.91 91.2226 562.013 91.2226 562.013Z" fill="#F5DEB3" stroke="#F5DEB3"/>
<path d="M563.781 552.985C563.302 551.967 561.835 550.862 561.835 550.862C561.835 550.862 567.124 551.605 570.443 552.41C578.804 554.438 583.386 556.453 590.82 560.784C593.946 562.605 596.102 563.231 598.543 565.902C600.154 567.665 601.327 568.698 601.892 571.019C602.499 573.511 601.957 575.132 601.055 577.532C599.492 581.694 596.587 582.906 593.146 585.72C586.05 591.525 580.506 592.526 571.932 595.769C561.889 599.569 555.89 600.679 545.413 603.027C533.796 605.63 527.126 606.329 515.36 608.145C498.589 610.733 489.143 611.927 472.279 613.82C451.869 616.112 440.39 617.158 419.894 618.473C397.614 619.902 385.085 620.118 362.764 620.613C308.121 621.823 277.38 621.765 222.823 618.473C188.495 616.401 169.098 615.907 135.107 610.683C113.322 607.335 100.896 605.947 79.7196 599.832C67.2173 596.221 59.1718 595.983 48.2261 588.945C42.9292 585.539 35.749 578.73 35.749 578.73C35.749 578.73 43.8611 582.872 49.2594 585.069C61.1547 589.908 68.4098 591.075 80.9439 593.87C102.152 598.6 114.488 598.943 136.098 601.204C170.23 604.776 189.511 605.566 223.817 606.485C277.737 607.929 308.05 606.179 361.893 602.94C383.243 601.656 395.243 601.148 416.515 598.906C437.805 596.662 449.737 595.142 470.827 591.457C486.971 588.637 496.079 587.171 511.949 583.078C522.718 580.3 529.035 579.383 539.26 575.009C545.967 572.139 549.795 570.477 555.822 566.366C557.835 564.993 559.158 564.421 560.833 562.652C562.103 561.311 562.99 560.562 563.604 558.82C563.938 557.871 564.01 557.29 564.075 556.286C564.159 554.994 564.331 554.156 563.781 552.985Z" fill="#F5DEB3" stroke="#F5DEB3"/>
<path d="M526.649 622.851C535.231 621.323 548.612 618.879 548.612 618.879C548.612 618.879 535.898 623.661 527.481 625.792C518.732 628.007 513.613 628.254 504.733 629.862C493.534 631.89 487.302 633.291 476.072 635.132C464.979 636.95 458.55 637.988 447.582 639.244C436.615 640.501 412.881 643.186 412.881 643.186L379.807 645.414L340.778 646.827C340.778 646.827 305.843 647.401 283.456 647.684C271.728 647.832 265.15 648.325 253.425 648.027C238.433 647.645 215.467 645.285 215.124 645.242C214.782 645.199 175.796 641.644 175.796 641.644C175.796 641.644 150.097 639.856 133.811 637.317C123.226 635.666 106.864 632.176 106.864 632.176C106.864 632.176 95.6286 629.465 88.4421 627.677C76.5419 624.717 69.6936 623.65 58.0246 619.88C47.5317 616.49 41.6851 614.356 31.6771 609.727C26.2648 607.223 23.0355 606.107 18.0535 602.829C12.6397 599.268 9.01255 597.466 5.41529 592.076C3.27466 588.868 2.00324 586.879 1.34522 583.079C0.802428 579.945 0.897798 578.031 1.64489 574.939C3.13493 568.773 6.81965 566.335 11.4127 561.958C17.4826 556.175 29.7917 550.862 29.7917 550.862C29.7917 550.862 20.0238 556.429 15.397 561.744C12.3015 565.3 9.46099 567.187 8.79946 571.855C8.30036 575.377 9.1316 577.513 10.4704 580.809C12.6527 586.18 15.8524 588.198 20.2381 591.99C25.9723 596.949 30.173 598.482 36.9889 601.801C46.4104 606.388 52.2235 607.791 62.2226 610.926C72.2676 614.075 78.0229 615.455 88.2701 617.866C95.6965 619.614 99.8924 620.459 107.377 621.936C118.69 624.169 125.072 625.227 136.467 626.992C150.974 629.239 159.152 630.219 173.738 631.876C189.852 633.705 198.916 634.475 215.081 635.774C229.907 636.966 238.232 637.486 253.081 638.345C264.37 638.997 270.698 639.419 281.999 639.801C304.122 640.55 316.547 640.194 338.681 639.891C354.284 639.677 363.038 639.627 378.626 638.913C391.144 638.339 398.151 637.781 410.652 636.893C425.091 635.868 433.194 635.353 447.599 633.927C458.212 632.877 464.152 632.189 474.734 630.867L474.934 630.842C486.134 629.443 492.479 628.65 503.685 626.873C512.677 625.447 517.686 624.447 526.649 622.851Z" fill="#F5DEB3" stroke="#F5DEB3"/>
<path d="M252.619 251.755C256.033 257.362 263.735 264.364 263.735 264.364C263.735 264.364 255.164 258.829 250.794 254.077C247.592 250.596 245.87 248.471 243.66 244.288C239.13 235.716 238.22 229.562 239.014 219.899C239.896 209.179 242.703 202.843 249.301 194.348C253.437 189.023 256.195 186.032 262.076 182.734C267.798 179.526 271.66 178.732 278.17 177.923C286.564 176.879 291.859 176.837 299.739 179.914C304.449 181.752 310.855 186.55 310.855 186.55C310.855 186.55 303.782 184.123 299.075 183.398C291.71 182.262 287.236 181.967 279.995 183.73C274.216 185.136 271.077 186.678 266.058 189.868C260.713 193.266 257.796 195.624 253.946 200.653C248.703 207.504 246.581 212.503 245.485 221.06C244.482 228.889 245.383 233.625 247.808 241.136C249.206 245.468 250.251 247.866 252.619 251.755Z" fill="#F5DEB3" stroke="#F5DEB3"/>
<path d="M323.025 289.785C323.542 296.202 323.232 301.117 323.232 301.117L318.937 300.962C318.937 300.962 318.985 294.56 318.937 290.458C318.922 289.145 319.114 288.388 318.885 287.095C318.368 284.167 316.839 282.874 314.953 280.575C313.502 278.807 312.557 277.902 310.761 276.487C308.717 274.876 307.479 274.005 305.069 273.02C302.354 271.911 300.642 271.735 297.722 271.468C294.175 271.144 288.32 271.675 288.32 271.675C288.32 271.675 294.27 270.343 297.981 270.33C300.956 270.319 302.697 270.42 305.536 271.313C308.053 272.105 309.37 272.887 311.589 274.314C313.801 275.735 315.025 276.632 316.816 278.557C318.808 280.699 319.679 282.159 321.007 284.766C321.965 286.649 322.471 287.747 323.025 289.785Z" fill="#F5DEB3" stroke="#F5DEB3"/>
<path d="M263.082 291.337C262.571 293.869 262.538 297.997 262.538 297.997L262.587 299.61H261.456C261.456 299.61 261.023 294.281 261.456 290.913C262.062 286.201 262.95 283.537 265.133 279.317C267.404 274.927 269.238 272.662 272.84 269.277C275.165 267.09 276.567 265.899 279.345 264.327C282.697 262.43 284.838 261.732 288.607 260.934C294.795 259.622 298.707 259.654 304.799 261.358C307.342 262.069 308.759 262.595 311.091 263.832C313.819 265.28 315.271 266.408 317.628 268.403C320.012 270.421 321.295 271.595 323.182 274.085C326.637 278.641 328.839 287.59 328.839 287.59C328.839 287.59 324.643 279.373 320.707 275.075C318.94 273.144 317.956 272.274 315.813 270.771C313.426 269.098 311.779 268.4 309.112 267.226C306.957 266.279 305.789 265.611 303.526 264.964C297.95 263.369 294.298 263.321 288.678 264.752C285.547 265.548 283.775 266.193 280.899 267.665C278.074 269.109 276.562 270.159 274.112 272.176C270.767 274.931 269.217 276.982 267.042 280.731C264.823 284.555 263.957 287.003 263.082 291.337Z" fill="#F5DEB3" stroke="#F5DEB3"/>
<path d="M269.457 11.9099C264.266 6.86491 255.253 0 255.253 0C255.253 0 266.592 4.50508 273.162 8.64569C284.666 15.8957 291.73 20.7882 298.393 32.6419C301.855 38.8003 303.402 42.6445 304.745 49.5804C306.081 56.4827 306.109 60.608 305.186 67.5776C303.989 76.6184 301.232 81.3068 297.511 89.6329C290.832 104.578 284.411 111.618 274.75 124.833C264.669 138.621 257.351 145.046 246.872 158.534C238.878 168.824 233.222 173.892 227.022 185.353C224.859 189.352 223.698 191.637 221.993 195.851C220.882 198.599 220.276 200.155 219.435 202.997L219.393 203.14C218.506 206.137 217.989 207.884 217.582 211.026C217.078 214.921 216.984 217.188 217.494 221.083C217.727 222.858 217.955 223.842 218.376 225.582C219.294 229.373 220.002 231.482 221.641 235.022C222.78 237.485 223.483 238.854 224.993 241.109C226.466 243.309 227.534 244.368 229.228 246.402C232.334 250.134 234.16 252.161 237.52 255.666C240.656 258.937 245.813 263.782 245.813 263.782C245.813 263.782 239.64 260.586 235.932 258.136C231.488 255.199 229.041 253.414 225.169 249.755C223.064 247.764 221.965 246.53 220.066 244.399L219.964 244.285C217.62 241.653 216.202 240.237 214.23 237.315C211.738 233.625 210.38 231.412 209.025 227.17C208.231 224.685 207.971 223.225 207.613 220.642C207.042 216.512 207.238 214.131 207.437 209.967L207.455 209.585C207.607 206.394 207.699 204.473 208.319 201.233C209.063 197.347 209.91 195.258 211.231 191.529C212.536 187.844 213.415 185.828 215.024 182.265C220.897 169.266 223.587 164.924 232.035 153.429C251.085 127.508 267.949 114.496 284.101 86.9863C288.394 79.6758 291.523 75.6071 293.276 67.3129C294.687 60.6366 294.904 56.5648 293.717 49.8451C292.643 43.7612 290.993 40.5133 288.208 35.0312L288.16 34.9357C282.913 24.6072 277.765 19.9837 269.457 11.9099Z" fill="#F5DEB3"/>
<path d="M227.291 69.9635C223.747 65.5703 216.879 59.9395 216.879 59.9395C216.879 59.9395 225.303 65.101 229.528 69.6885C233.927 74.4641 235.744 77.8128 238.464 83.7083C240.887 88.9605 241.801 92.1485 243.009 97.8051C244.843 106.389 244.624 111.522 244.255 120.202L244.242 120.53C243.748 132.146 241.373 138.45 239.234 149.879C236.896 162.376 234.536 169.191 232.687 181.77C231.209 191.821 230.001 197.494 230.068 207.653C230.135 217.888 229.794 223.993 233.072 233.69C234.839 238.916 236.305 241.708 239.08 246.477C242.319 252.042 248.786 259.803 248.786 259.803C248.786 259.803 241.427 252.677 237.848 247.247C234.664 242.417 233.161 239.448 231.223 233.998C227.771 224.287 228.13 218.112 227.988 207.807C227.845 197.442 229.11 191.653 230.53 181.385C232.263 168.848 234.502 162.032 236.589 149.549C238.494 138.161 240.421 131.833 240.869 120.296C241.206 111.627 241.638 106.61 239.955 98.0999C238.891 92.7195 238.043 89.7035 235.908 84.6519C233.318 78.5263 231.466 75.14 227.291 69.9635Z" fill="#F5DEB3"/>
</svg>
