<svg width="603" height="473" viewBox="0 0 603 473" fill="none" xmlns="http://www.w3.org/2000/svg">
<path d="M515.29 372.371L510.359 374.392C510.359 374.392 510.559 360.922 509.9 352.329C508.616 335.576 506.553 326.206 501.971 310.041C497.875 295.586 495.011 287.547 488.516 273.999C477.81 251.67 469.481 239.942 452.955 221.499C437.955 204.758 428.246 196.189 409.586 183.656C387.321 168.701 373.168 162.039 347.475 154.342C330.578 149.28 320.706 147.338 303.144 145.692C283.662 143.867 272.444 143.966 253.046 146.533C235.64 148.838 225.941 151.335 209.317 156.985C189.287 163.794 178.183 168.748 160.3 180.052C149.275 187.021 143.43 191.526 133.51 199.995C124.224 207.922 119.206 212.658 111.044 221.739C98.4405 235.762 92.0463 244.466 82.8115 260.904C73.1796 278.049 63.4692 307.398 63.4692 307.398C63.4692 307.398 70.0509 276.268 78.0054 257.661C85.2889 240.623 90.6163 231.463 101.312 216.333C109.142 205.257 113.887 199.194 123.417 189.543C133.362 179.472 139.727 174.566 151.169 166.236C168.807 153.396 179.419 146.69 199.585 138.364C217.956 130.779 228.975 127.807 248.601 124.668C257.771 123.202 265.329 122.375 272.646 122.025C272.531 121.313 271.785 116.372 272.728 113.343C273.458 110.997 274.367 109.846 275.807 107.855C277.984 104.844 279.448 103.139 282.634 101.228C286.031 99.1907 288.406 98.7501 292.34 98.283C296.503 97.7887 299.035 97.8103 303.049 99.0193C306.723 100.126 308.768 101.212 311.684 103.705C313.968 105.658 315.192 106.96 316.637 109.595C318.564 113.108 318.851 115.566 319.047 119.568C319.129 121.266 318.913 123.919 318.913 123.919L317.959 123.882C329.612 124.981 338.945 126.547 352.4 130.315C380.364 138.146 395.469 146.249 419.196 162.992C441.131 178.471 452.56 189.171 468.933 210.447C484.994 231.316 492.308 244.797 501.611 269.434C507.172 284.163 509.663 292.76 512.543 308.239C515.747 325.456 516.44 335.417 516.267 352.93C516.192 360.531 515.29 372.371 515.29 372.371Z" fill="black" stroke="black"/>
<path d="M91.021 385.542L74.8618 379.747C74.8618 379.747 72.7202 359.703 73.4128 346.87C74.2802 330.801 75.907 321.68 80.6569 306.304C84.6797 293.281 87.6579 286.073 94.3648 274.207C103.516 258.017 110.398 249.669 123.787 236.761C133.334 227.557 150.422 215.698 150.422 215.698C150.422 215.698 172.328 202.624 187.646 197.309C205.233 191.206 215.865 189.296 234.453 188.282C245.234 187.693 251.375 187.642 262.092 188.95C279.865 191.12 306.113 201.767 306.113 201.767C306.113 201.767 279.038 194.817 261.312 194.411C250.938 194.174 245.059 194.498 234.788 195.972C217.324 198.476 207.564 201.528 191.435 208.676C179.067 214.158 172.385 218.021 161.344 225.839C151.116 233.082 145.61 237.632 136.937 246.68C126.505 257.564 119.284 265.625 113.757 277.551L99.6028 308.087C94.0754 320.012 92.4167 331.974 90.7985 347.762C89.2942 362.439 91.021 385.542 91.021 385.542Z" fill="black" stroke="black"/>
<path d="M563.579 376.514C563.101 375.497 561.634 374.392 561.634 374.392C561.634 374.392 566.922 375.134 570.241 375.94C578.602 377.968 583.184 379.983 590.618 384.314C593.744 386.135 595.9 386.761 598.341 389.431C599.952 391.194 601.125 392.228 601.691 394.549C602.298 397.04 601.755 398.661 600.853 401.062C599.29 405.224 596.385 406.435 592.944 409.25C585.849 415.055 580.304 416.055 571.73 419.299C561.688 423.098 555.689 424.209 545.212 426.557C533.594 429.16 526.924 429.858 515.158 431.674C498.387 434.263 488.941 435.457 472.078 437.35C451.668 439.641 440.189 440.687 419.693 442.002C397.412 443.432 384.883 443.648 362.562 444.142C307.919 445.353 277.179 445.295 222.621 442.002C188.294 439.931 168.896 439.437 134.905 434.213C113.12 430.864 100.694 429.476 79.5179 423.361C67.0157 419.751 58.9702 419.512 48.0244 412.475C42.7276 409.069 35.5474 402.26 35.5474 402.26C35.5474 402.26 43.6594 406.402 49.0577 408.598C60.9531 413.438 68.2081 414.604 80.7423 417.4C101.95 422.129 114.286 422.473 135.897 424.734C170.029 428.306 189.309 429.096 223.615 430.015C277.536 431.459 307.849 429.709 361.691 426.47C383.042 425.186 395.042 424.677 416.313 422.435C437.604 420.192 449.536 418.671 470.625 414.987C486.77 412.166 495.877 410.7 511.747 406.607C522.516 403.83 528.833 402.913 539.058 398.538C545.766 395.668 549.594 394.007 555.621 389.895C557.633 388.523 558.957 387.95 560.632 386.182C561.901 384.841 562.788 384.092 563.402 382.35C563.737 381.4 563.809 380.82 563.874 379.815C563.957 378.524 564.129 377.686 563.579 376.514Z" fill="black" stroke="black"/>
<path d="M526.448 446.38C535.029 444.852 548.411 442.408 548.411 442.408C548.411 442.408 535.697 447.191 527.28 449.322C518.531 451.537 513.412 451.783 504.531 453.392C493.333 455.42 487.101 456.82 475.87 458.661C464.777 460.48 458.348 461.517 447.38 462.774C436.413 464.031 412.679 466.715 412.679 466.715L379.605 468.943L340.577 470.357C340.577 470.357 305.641 470.931 283.255 471.214C271.527 471.362 264.948 471.855 253.223 471.556C238.231 471.175 215.265 468.815 214.923 468.772C214.58 468.729 175.594 465.173 175.594 465.173C175.594 465.173 149.896 463.386 133.61 460.846C123.024 459.195 106.662 455.705 106.662 455.705C106.662 455.705 95.4269 452.994 88.2404 451.207C76.3402 448.247 69.4919 447.18 57.823 443.41C47.33 440.02 41.4834 437.886 31.4755 433.256C26.0632 430.752 22.8338 429.636 17.8519 426.359C12.4381 422.797 8.81089 420.996 5.21363 415.606C3.073 412.398 1.80157 410.409 1.14356 406.609C0.600768 403.475 0.696138 401.561 1.44323 398.469C2.93327 392.302 6.61799 389.864 11.2111 385.488C17.281 379.704 29.5901 374.392 29.5901 374.392C29.5901 374.392 19.8222 379.958 15.1953 385.274C12.0998 388.83 9.25933 390.716 8.5978 395.384C8.0987 398.906 8.92994 401.043 10.2687 404.338C12.451 409.71 15.6507 411.727 20.0364 415.52C25.7707 420.479 29.9713 422.012 36.7873 425.331C46.2087 429.918 52.0219 431.321 62.021 434.456C72.066 437.605 77.8212 438.985 88.0684 441.396C95.4948 443.144 99.6907 443.989 107.176 445.466C118.488 447.698 124.87 448.756 136.265 450.521C150.772 452.769 158.951 453.749 173.537 455.405C189.65 457.235 198.714 458.004 214.879 459.304C229.705 460.496 238.03 461.016 252.88 461.874C264.168 462.527 270.497 462.948 281.798 463.331C303.921 464.08 316.346 463.724 338.479 463.42C354.082 463.206 362.836 463.157 378.424 462.442C390.943 461.868 397.95 461.311 410.45 460.423C424.889 459.397 432.993 458.883 447.398 457.457C458.01 456.407 463.951 455.718 474.533 454.396L474.733 454.371C485.933 452.972 492.278 452.18 503.483 450.402C512.476 448.976 517.484 447.976 526.448 446.38Z" fill="black" stroke="black"/>
<path d="M252.417 75.2842C255.831 80.8913 263.534 87.8938 263.534 87.8938C263.534 87.8938 254.963 82.3589 250.592 77.6071C247.39 74.1253 245.668 72.0005 243.458 67.8181C238.928 59.2454 238.018 53.092 238.812 43.4287C239.694 32.7083 242.501 26.3732 249.099 17.8778C253.235 12.5527 255.993 9.56151 261.875 6.26383C267.596 3.05551 271.459 2.26178 277.968 1.45231C286.363 0.408482 291.657 0.367074 299.537 3.44328C304.247 5.28194 310.653 10.0799 310.653 10.0799C310.653 10.0799 303.58 7.653 298.874 6.92748C291.508 5.79212 287.034 5.49678 279.793 7.25931C274.015 8.66588 270.876 10.2076 265.857 13.3981C260.512 16.7957 257.594 19.1534 253.745 24.1826C248.501 31.0336 246.379 36.0324 245.283 44.5901C244.281 52.4185 245.181 57.1551 247.606 64.6657C249.005 68.9982 250.05 71.3957 252.417 75.2842Z" fill="black" stroke="black"/>
<path d="M322.823 113.315C323.34 119.731 323.03 124.647 323.03 124.647L318.735 124.492C318.735 124.492 318.783 118.09 318.735 113.988C318.72 112.674 318.912 111.918 318.683 110.624C318.166 107.696 316.636 106.403 314.75 104.105C313.3 102.337 312.355 101.432 310.559 100.017C308.515 98.406 307.277 97.5342 304.867 96.5499C302.152 95.4407 300.44 95.2646 297.52 94.9976C293.973 94.6733 288.118 95.2046 288.118 95.2046C288.118 95.2046 294.068 93.8723 297.779 93.8592C300.754 93.8487 302.495 93.9494 305.333 94.8423C307.85 95.6343 309.167 96.4167 311.387 97.8435C313.599 99.265 314.823 100.162 316.613 102.087C318.606 104.229 319.477 105.689 320.805 108.296C321.763 110.179 322.269 111.276 322.823 113.315Z" fill="black" stroke="black"/>
</svg>
