<svg width="17" height="16" viewBox="0 0 17 16" fill="none" xmlns="http://www.w3.org/2000/svg">
<circle cx="8.65918" cy="8" r="8" fill="black"/>
<path d="M7.07471 6.30713C7.06787 6.33903 7.05306 6.3641 7.03027 6.38232C7.00749 6.40055 6.98242 6.40967 6.95508 6.40967C6.91406 6.40967 6.88102 6.39714 6.85596 6.37207C6.83089 6.34473 6.81836 6.31396 6.81836 6.27979C6.81836 6.24561 6.82178 6.21257 6.82861 6.18066C6.83545 6.14648 6.83887 6.11344 6.83887 6.08154C6.83887 5.9152 6.7876 5.76595 6.68506 5.63379C6.58252 5.50163 6.43669 5.39111 6.24756 5.30225C6.06071 5.2111 5.83285 5.1416 5.56396 5.09375C5.29508 5.0459 4.99544 5.02197 4.66504 5.02197C4.41211 5.02197 4.1569 5.03906 3.89941 5.07324C3.64421 5.10514 3.39811 5.15299 3.16113 5.2168C2.92643 5.27832 2.70654 5.35693 2.50146 5.45264C2.29639 5.54606 2.11751 5.65544 1.96484 5.78076C1.81445 5.90381 1.69596 6.04167 1.60938 6.19434C1.52279 6.34473 1.47949 6.50993 1.47949 6.68994C1.47949 6.82894 1.50911 6.95199 1.56836 7.05908C1.62988 7.1639 1.71305 7.25618 1.81787 7.33594C1.92269 7.41341 2.04574 7.48063 2.18701 7.5376C2.33057 7.59229 2.48551 7.639 2.65186 7.67773C2.8182 7.71419 2.99137 7.74495 3.17139 7.77002C3.3514 7.79281 3.53255 7.81217 3.71484 7.82812L4.24121 7.87256C4.50326 7.89535 4.73796 7.91927 4.94531 7.94434C5.15267 7.9694 5.33496 8.0013 5.49219 8.04004C5.75423 8.10612 5.94792 8.20068 6.07324 8.32373C6.19857 8.44678 6.26123 8.61084 6.26123 8.81592C6.26123 9.01416 6.20654 9.18848 6.09717 9.33887C5.98779 9.48926 5.83854 9.61572 5.64941 9.71826C5.46029 9.8208 5.23926 9.89827 4.98633 9.95068C4.7334 10.0031 4.46224 10.0293 4.17285 10.0293C3.8584 10.0293 3.58154 10.0076 3.34229 9.96436C3.10531 9.92334 2.90592 9.87777 2.74414 9.82764C2.58464 9.77523 2.46273 9.72738 2.37842 9.68408C2.29411 9.64079 2.24854 9.61686 2.2417 9.6123C2.20068 9.58952 2.18018 9.55306 2.18018 9.50293C2.18018 9.46419 2.19385 9.43343 2.22119 9.41064C2.24854 9.38558 2.27816 9.37305 2.31006 9.37305C2.33512 9.37305 2.35791 9.37988 2.37842 9.39355C2.3807 9.39355 2.41943 9.41406 2.49463 9.45508C2.5721 9.49382 2.68604 9.53711 2.83643 9.58496C2.9891 9.63281 3.17708 9.67611 3.40039 9.71484C3.6237 9.75358 3.88346 9.77295 4.17969 9.77295C4.47363 9.77295 4.7334 9.74902 4.95898 9.70117C5.18457 9.65332 5.3737 9.58724 5.52637 9.50293C5.68132 9.41634 5.79753 9.31608 5.875 9.20215C5.95475 9.08594 5.99463 8.96061 5.99463 8.82617C5.99463 8.74642 5.97982 8.67806 5.9502 8.62109C5.92285 8.56185 5.88411 8.51172 5.83398 8.4707C5.78385 8.42741 5.72347 8.39095 5.65283 8.36133C5.58447 8.33171 5.50928 8.30664 5.42725 8.28613C5.34066 8.26335 5.24723 8.24398 5.14697 8.22803C5.04899 8.21208 4.94759 8.1984 4.84277 8.18701C4.73796 8.17562 4.632 8.16536 4.5249 8.15625C4.42008 8.14714 4.31641 8.13802 4.21387 8.12891L3.6875 8.08447C3.27279 8.05029 2.91048 7.99788 2.60059 7.92725C2.29297 7.85433 2.03662 7.76204 1.83154 7.65039C1.62646 7.53646 1.47266 7.40088 1.37012 7.24365C1.26758 7.08643 1.21631 6.90299 1.21631 6.69336C1.21631 6.47917 1.26416 6.2832 1.35986 6.10547C1.45785 5.92546 1.59001 5.76367 1.75635 5.62012C1.92497 5.47656 2.12093 5.35238 2.34424 5.24756C2.56982 5.14046 2.81022 5.0516 3.06543 4.98096C3.32064 4.91032 3.58496 4.85791 3.8584 4.82373C4.13184 4.78727 4.40072 4.76904 4.66504 4.76904C4.99544 4.76904 5.28255 4.78955 5.52637 4.83057C5.77246 4.8693 5.9821 4.92057 6.15527 4.98438C6.33073 5.0459 6.47428 5.11654 6.58594 5.19629C6.69759 5.27604 6.7876 5.35465 6.85596 5.43213C7.01774 5.62126 7.09863 5.83659 7.09863 6.07812C7.09863 6.15788 7.09066 6.23421 7.07471 6.30713ZM6.86377 8.48682C6.86377 8.479 6.86377 8.47314 6.86377 8.46924C6.86572 8.46533 6.86572 8.4585 6.86377 8.44873C6.86768 8.44092 6.87158 8.43213 6.87549 8.42236C6.88135 8.4126 6.88232 8.40283 6.87842 8.39307C6.88623 8.37939 6.89111 8.37061 6.89307 8.3667C6.89697 8.36279 6.90088 8.35889 6.90479 8.35498C6.90869 8.33936 6.91162 8.32959 6.91357 8.32568C6.91553 8.32178 6.91748 8.31787 6.91943 8.31396C6.9292 8.28857 6.93604 8.27295 6.93994 8.26709C6.94385 8.25928 6.9458 8.25146 6.9458 8.24365L6.96338 8.21436C6.97705 8.19482 6.98584 8.18408 6.98975 8.18213C6.99365 8.17822 6.99561 8.17236 6.99561 8.16455C7.00146 8.15869 7.00732 8.15186 7.01318 8.14404C7.021 8.13623 7.02393 8.12744 7.02197 8.11768C7.0415 8.10205 7.05322 8.09131 7.05713 8.08545C7.06299 8.07764 7.06885 8.07275 7.07471 8.0708C7.08252 8.06104 7.0874 8.05518 7.08936 8.05322C7.09326 8.04932 7.09717 8.04541 7.10107 8.0415C7.10498 8.02393 7.11768 8.01025 7.13916 8.00049C7.14502 7.99268 7.15186 7.98584 7.15967 7.97998C7.16748 7.97412 7.17334 7.96631 7.17725 7.95654C7.19873 7.94482 7.21143 7.93701 7.21533 7.93311C7.22314 7.92334 7.23193 7.9165 7.2417 7.9126C7.25146 7.90674 7.26025 7.89893 7.26807 7.88916C7.27393 7.88721 7.27979 7.88525 7.28564 7.8833C7.2915 7.88135 7.29639 7.87646 7.30029 7.86865C7.31592 7.86475 7.32666 7.85986 7.33252 7.854C7.33838 7.84814 7.34521 7.84326 7.35303 7.83936C7.38037 7.82178 7.40088 7.81201 7.41455 7.81006C7.42822 7.80615 7.44092 7.79932 7.45264 7.78955C7.46826 7.78564 7.47803 7.78369 7.48193 7.78369C7.48779 7.78369 7.49268 7.78174 7.49658 7.77783C7.51416 7.77197 7.5249 7.76709 7.52881 7.76318C7.54248 7.76123 7.55127 7.75928 7.55518 7.75732C7.55908 7.75342 7.56396 7.75049 7.56982 7.74854C7.57568 7.74463 7.58154 7.74365 7.5874 7.74561C7.59521 7.74561 7.60205 7.74463 7.60791 7.74268C7.63721 7.73291 7.65967 7.72705 7.67529 7.7251C7.69287 7.72119 7.71143 7.71924 7.73096 7.71924C7.74658 7.71924 7.76318 7.72119 7.78076 7.7251C7.79834 7.72705 7.81494 7.72607 7.83057 7.72217C7.85596 7.72803 7.87061 7.73389 7.87451 7.73975C7.88037 7.74561 7.88916 7.74756 7.90088 7.74561C7.90674 7.75146 7.9126 7.75537 7.91846 7.75732C7.92627 7.75928 7.93506 7.76221 7.94482 7.76611C7.9585 7.77588 7.96729 7.78271 7.97119 7.78662C7.9751 7.79053 7.979 7.79346 7.98291 7.79541C7.99854 7.81104 8.01221 7.81885 8.02393 7.81885C8.03564 7.81885 8.04443 7.82275 8.05029 7.83057C8.04834 7.8501 8.05029 7.86475 8.05615 7.87451C8.04053 7.88037 8.02783 7.89111 8.01807 7.90674C7.99854 7.9126 7.98584 7.91846 7.97998 7.92432C7.97607 7.93018 7.97217 7.93701 7.96826 7.94482C7.94678 7.95068 7.93408 7.95557 7.93018 7.95947C7.92627 7.96143 7.92139 7.96436 7.91553 7.96826C7.90771 7.97607 7.90186 7.98096 7.89795 7.98291C7.89404 7.98291 7.89014 7.98486 7.88623 7.98877C7.86865 7.99854 7.85498 8.00146 7.84521 7.99756C7.8374 7.99561 7.83154 7.9917 7.82764 7.98584C7.82568 7.97998 7.81885 7.979 7.80713 7.98291C7.80518 7.97119 7.80225 7.96338 7.79834 7.95947C7.79443 7.95361 7.79053 7.94873 7.78662 7.94482C7.76709 7.9292 7.75537 7.92236 7.75146 7.92432C7.74951 7.92432 7.74658 7.92334 7.74268 7.92139C7.71924 7.91162 7.70264 7.90674 7.69287 7.90674C7.68115 7.89697 7.67041 7.89307 7.66064 7.89502C7.65088 7.89502 7.64111 7.89404 7.63135 7.89209C7.604 7.88818 7.58545 7.88818 7.57568 7.89209C7.56592 7.89404 7.55713 7.89404 7.54932 7.89209C7.52197 7.8999 7.50244 7.90381 7.49072 7.90381C7.479 7.90186 7.47119 7.90381 7.46729 7.90967C7.45947 7.90967 7.45166 7.90967 7.44385 7.90967C7.43799 7.90967 7.43018 7.91064 7.42041 7.9126C7.40674 7.92236 7.39697 7.92725 7.39111 7.92725C7.38525 7.92725 7.37939 7.92822 7.37354 7.93018C7.35205 7.93994 7.34131 7.9458 7.34131 7.94775C7.34131 7.94775 7.33936 7.94873 7.33545 7.95068C7.30029 7.96631 7.28271 7.98193 7.28271 7.99756C7.26904 8.00342 7.26025 8.01123 7.25635 8.021C7.24658 8.02295 7.23975 8.02686 7.23584 8.03271C7.23193 8.03857 7.2251 8.04346 7.21533 8.04736C7.20361 8.06689 7.19678 8.07959 7.19482 8.08545C7.19287 8.08936 7.18799 8.09229 7.18018 8.09424C7.1665 8.11377 7.15674 8.1333 7.15088 8.15283C7.14502 8.17041 7.13818 8.18213 7.13037 8.18799C7.12256 8.19385 7.11963 8.20166 7.12158 8.21143C7.11377 8.2251 7.10889 8.23486 7.10693 8.24072C7.10498 8.24463 7.10205 8.24854 7.09814 8.25244C7.09229 8.27783 7.08643 8.29443 7.08057 8.30225C7.07666 8.30811 7.07666 8.31396 7.08057 8.31982C7.07275 8.32959 7.06885 8.34326 7.06885 8.36084C7.05908 8.37842 7.05225 8.38916 7.04834 8.39307C7.04443 8.39697 7.04346 8.40381 7.04541 8.41357C7.04346 8.44678 7.04053 8.47119 7.03662 8.48682C7.03271 8.50244 7.03076 8.51904 7.03076 8.53662C7.01709 8.55615 7.01123 8.56787 7.01318 8.57178C7.01514 8.57373 7.01611 8.57666 7.01611 8.58057C7.01025 8.6001 7.00732 8.61084 7.00732 8.61279C7.00928 8.61475 7.0083 8.61768 7.00439 8.62158L6.98389 8.70654C6.97998 8.73975 6.9751 8.76416 6.96924 8.77979C6.96533 8.79346 6.96436 8.80713 6.96631 8.8208C6.9585 8.84033 6.95459 8.854 6.95459 8.86182C6.95654 8.86963 6.95459 8.87646 6.94873 8.88232C6.94678 8.91748 6.94775 8.95068 6.95166 8.98193C6.94385 9.021 6.94385 9.04736 6.95166 9.06104C6.94189 9.0708 6.93896 9.08252 6.94287 9.09619C6.94873 9.10986 6.94873 9.12061 6.94287 9.12842C6.94678 9.13623 6.94873 9.146 6.94873 9.15771C6.94873 9.16943 6.94873 9.18115 6.94873 9.19287C6.94482 9.2085 6.94287 9.21826 6.94287 9.22217C6.94287 9.22412 6.94385 9.22705 6.9458 9.23096C6.95166 9.25049 6.95361 9.26514 6.95166 9.2749C6.94971 9.28271 6.94873 9.2915 6.94873 9.30127C6.95068 9.32471 6.95264 9.33936 6.95459 9.34521C6.9585 9.34912 6.95947 9.354 6.95752 9.35986C6.94971 9.37549 6.94775 9.38428 6.95166 9.38623C6.95557 9.38818 6.9585 9.39111 6.96045 9.39502C6.96045 9.4126 6.95557 9.42334 6.9458 9.42725C6.94971 9.46436 6.95361 9.48975 6.95752 9.50342C6.96143 9.51709 6.96143 9.52881 6.95752 9.53857C6.96533 9.56006 6.96924 9.57568 6.96924 9.58545C6.97119 9.59521 6.97412 9.60303 6.97803 9.60889C6.97217 9.62646 6.97021 9.63818 6.97217 9.64404C6.97412 9.6499 6.97314 9.65479 6.96924 9.65869C6.98291 9.67822 6.98877 9.69092 6.98682 9.69678C6.98682 9.70264 6.98779 9.70947 6.98975 9.71729C6.99756 9.73096 7.00049 9.73975 6.99854 9.74365C6.99854 9.74756 7.00049 9.74854 7.00439 9.74658C7.01025 9.73291 7.01611 9.72021 7.02197 9.7085C7.02979 9.69482 7.03564 9.68018 7.03955 9.66455C7.04736 9.65283 7.05322 9.646 7.05713 9.64404C7.06299 9.64209 7.06787 9.63916 7.07178 9.63525C7.0835 9.61572 7.09131 9.59814 7.09521 9.58252C7.09912 9.56689 7.10693 9.55518 7.11865 9.54736C7.12842 9.52783 7.13428 9.51514 7.13623 9.50928C7.14014 9.50146 7.14697 9.49561 7.15674 9.4917C7.16455 9.47998 7.16943 9.47021 7.17139 9.4624C7.17334 9.45459 7.1792 9.44873 7.18896 9.44482C7.19092 9.43506 7.19482 9.42627 7.20068 9.41846C7.2085 9.40869 7.21729 9.3999 7.22705 9.39209C7.23877 9.37646 7.25049 9.36768 7.26221 9.36572C7.27393 9.35791 7.27979 9.35205 7.27979 9.34814C7.28174 9.34229 7.28467 9.33643 7.28857 9.33057C7.29639 9.33447 7.30225 9.3335 7.30615 9.32764C7.31006 9.32178 7.31494 9.31689 7.3208 9.31299C7.33057 9.30713 7.33936 9.30127 7.34717 9.29541C7.35693 9.28955 7.36377 9.28271 7.36768 9.2749C7.38721 9.26904 7.39893 9.26416 7.40283 9.26025C7.40674 9.25635 7.41162 9.25244 7.41748 9.24854C7.4292 9.24268 7.43994 9.23877 7.44971 9.23682C7.46143 9.23291 7.47021 9.22803 7.47607 9.22217C7.48584 9.22607 7.49561 9.2251 7.50537 9.21924C7.51514 9.21338 7.5249 9.20752 7.53467 9.20166C7.54443 9.19775 7.56201 9.1958 7.5874 9.1958C7.61279 9.1958 7.63428 9.19678 7.65186 9.19873C7.66553 9.21045 7.67334 9.21729 7.67529 9.21924C7.6792 9.22119 7.68408 9.22412 7.68994 9.22803C7.70752 9.24561 7.71729 9.25635 7.71924 9.26025C7.72314 9.26221 7.72705 9.26514 7.73096 9.26904C7.73486 9.28271 7.73877 9.29346 7.74268 9.30127C7.74658 9.30713 7.75342 9.31201 7.76318 9.31592C7.76514 9.32178 7.76709 9.32861 7.76904 9.33643C7.771 9.34229 7.7749 9.34717 7.78076 9.35107C7.78076 9.36279 7.78271 9.37158 7.78662 9.37744C7.79248 9.3833 7.79541 9.39209 7.79541 9.40381C7.79932 9.43115 7.80322 9.45361 7.80713 9.47119C7.81104 9.48682 7.81104 9.50244 7.80713 9.51807C7.80518 9.5415 7.80322 9.55518 7.80127 9.55908C7.79932 9.56104 7.79834 9.56396 7.79834 9.56787C7.80029 9.58545 7.80029 9.59521 7.79834 9.59717C7.79639 9.59912 7.79541 9.60205 7.79541 9.60596C7.79346 9.60986 7.79346 9.61475 7.79541 9.62061C7.79736 9.62646 7.79834 9.63232 7.79834 9.63818C7.78857 9.66357 7.78369 9.68115 7.78369 9.69092C7.78564 9.69873 7.78564 9.70752 7.78369 9.71729C7.77393 9.73877 7.76709 9.75244 7.76318 9.7583C7.75928 9.76416 7.7583 9.77197 7.76025 9.78174C7.75635 9.7915 7.75146 9.79932 7.74561 9.80518C7.73975 9.81104 7.73779 9.82178 7.73975 9.8374C7.72998 9.84717 7.72217 9.86084 7.71631 9.87842C7.7124 9.896 7.70459 9.90967 7.69287 9.91943C7.68311 9.94678 7.67725 9.96143 7.67529 9.96338C7.67334 9.96533 7.67041 9.96826 7.6665 9.97217C7.6626 9.97607 7.65771 9.98096 7.65186 9.98682C7.646 9.99268 7.64014 9.99951 7.63428 10.0073C7.62256 10.0269 7.61377 10.0366 7.60791 10.0366C7.59619 10.0581 7.58838 10.0718 7.58447 10.0776C7.58252 10.0835 7.57764 10.0884 7.56982 10.0923C7.56787 10.1001 7.56299 10.106 7.55518 10.1099C7.54932 10.1138 7.54541 10.1206 7.54346 10.1304C7.53564 10.1343 7.52881 10.1392 7.52295 10.145C7.51904 10.1528 7.51416 10.1597 7.5083 10.1655C7.48877 10.1792 7.47705 10.187 7.47314 10.189C7.46924 10.1929 7.46533 10.1968 7.46143 10.2007C7.44971 10.2163 7.44287 10.2251 7.44092 10.2271C7.42725 10.2329 7.4165 10.2388 7.40869 10.2446C7.40283 10.2524 7.39697 10.2603 7.39111 10.2681C7.35791 10.2739 7.33545 10.2886 7.32373 10.312C7.31201 10.314 7.3042 10.3218 7.30029 10.3354C7.28857 10.3394 7.27881 10.3442 7.271 10.3501C7.26318 10.356 7.25439 10.3608 7.24463 10.3647C7.22314 10.3804 7.2085 10.3862 7.20068 10.3823C7.19482 10.3804 7.18799 10.3823 7.18018 10.3882C7.15674 10.4097 7.14502 10.4243 7.14502 10.4321C7.13525 10.4341 7.12842 10.437 7.12451 10.4409C7.12061 10.4468 7.1167 10.4536 7.11279 10.4614C7.09521 10.4614 7.0835 10.4634 7.07764 10.4673C7.07373 10.4712 7.0708 10.4761 7.06885 10.4819C7.05322 10.4819 7.04053 10.4839 7.03076 10.4878C7.02295 10.4917 7.01318 10.4956 7.00146 10.4995C6.98975 10.5093 6.98096 10.5151 6.9751 10.5171C6.96924 10.519 6.9624 10.52 6.95459 10.52C6.93701 10.52 6.92529 10.521 6.91943 10.5229C6.91357 10.5269 6.90771 10.5288 6.90186 10.5288C6.89014 10.5093 6.88135 10.4995 6.87549 10.4995C6.86963 10.4995 6.86768 10.4946 6.86963 10.4849C6.87158 10.4536 6.87939 10.438 6.89307 10.438C6.89697 10.4302 6.90088 10.4233 6.90479 10.4175C6.90869 10.4136 6.9126 10.4067 6.9165 10.397C6.9126 10.3872 6.91064 10.3765 6.91064 10.3647C6.91064 10.355 6.90869 10.3452 6.90479 10.3354C6.90283 10.3257 6.8999 10.3169 6.896 10.3091C6.89209 10.3013 6.89209 10.2925 6.896 10.2827C6.89014 10.2378 6.88232 10.2065 6.87256 10.189C6.86475 10.1714 6.86084 10.1509 6.86084 10.1274C6.85693 10.1099 6.85303 10.0981 6.84912 10.0923C6.84717 10.0884 6.84717 10.0845 6.84912 10.0806C6.84521 10.061 6.84033 10.0483 6.83447 10.0425C6.83057 10.0327 6.82861 10.0229 6.82861 10.0132C6.83057 10.0054 6.82861 9.99756 6.82275 9.98975C6.82666 9.97803 6.82568 9.96631 6.81982 9.95459C6.81592 9.94287 6.81201 9.93213 6.80811 9.92236L6.79932 9.88721C6.79736 9.86377 6.79541 9.8501 6.79346 9.84619C6.79346 9.84229 6.79541 9.83936 6.79932 9.8374C6.7915 9.81982 6.79053 9.80518 6.79639 9.79346C6.78857 9.76221 6.78271 9.7417 6.77881 9.73193C6.77686 9.72217 6.77393 9.71143 6.77002 9.69971C6.77002 9.68213 6.77002 9.6665 6.77002 9.65283C6.77002 9.63721 6.76709 9.62451 6.76123 9.61475C6.76123 9.58936 6.76123 9.5708 6.76123 9.55908C6.76318 9.54736 6.76221 9.53662 6.7583 9.52686C6.7583 9.49951 6.75635 9.4751 6.75244 9.45361C6.74854 9.42432 6.74658 9.40674 6.74658 9.40088C6.74854 9.39307 6.74951 9.38428 6.74951 9.37451C6.74951 9.36865 6.74951 9.36279 6.74951 9.35693C6.75146 9.34912 6.75049 9.34033 6.74658 9.33057C6.74268 9.30322 6.74268 9.27783 6.74658 9.25439C6.75049 9.23096 6.74951 9.2124 6.74365 9.19873C6.74756 9.19287 6.74951 9.18604 6.74951 9.17822C6.74951 9.16846 6.74951 9.15967 6.74951 9.15186C6.75146 9.13037 6.75146 9.11768 6.74951 9.11377C6.74951 9.10791 6.74951 9.10303 6.74951 9.09912C6.74951 9.08936 6.75049 9.08154 6.75244 9.07568C6.75635 9.06787 6.7583 9.06006 6.7583 9.05225C6.7583 9.03271 6.75928 9.02002 6.76123 9.01416C6.76318 9.00635 6.76514 8.99854 6.76709 8.99072C6.76709 8.96143 6.76807 8.94092 6.77002 8.9292C6.77393 8.91553 6.77686 8.90283 6.77881 8.89111L6.7876 8.83545C6.78955 8.82373 6.78955 8.81494 6.7876 8.80908C6.7876 8.80127 6.79053 8.79443 6.79639 8.78857C6.79248 8.78271 6.7915 8.77783 6.79346 8.77393C6.79736 8.77002 6.80029 8.76416 6.80225 8.75635C6.80615 8.74854 6.80811 8.74072 6.80811 8.73291C6.80811 8.72314 6.81201 8.71436 6.81982 8.70654C6.81592 8.69678 6.81592 8.68994 6.81982 8.68604C6.82373 8.68018 6.82666 8.67334 6.82861 8.66553C6.83252 8.65381 6.8335 8.64307 6.83154 8.6333C6.83154 8.62158 6.83447 8.61182 6.84033 8.604C6.84033 8.58252 6.84131 8.57178 6.84326 8.57178C6.84521 8.57178 6.84717 8.56982 6.84912 8.56592L6.86377 8.48682ZM7.4585 10.0571C7.47021 10.0435 7.47705 10.0347 7.479 10.0308C7.48096 10.0288 7.48291 10.0259 7.48486 10.022C7.48877 10.0161 7.4917 10.0093 7.49365 10.0015C7.49561 9.99365 7.49756 9.98779 7.49951 9.98389C7.52295 9.94873 7.53564 9.91553 7.5376 9.88428C7.54541 9.88428 7.55029 9.88037 7.55225 9.87256C7.5542 9.86279 7.55322 9.85596 7.54932 9.85205C7.55908 9.82861 7.56689 9.81104 7.57275 9.79932C7.57471 9.78174 7.57666 9.77295 7.57861 9.77295C7.58057 9.77295 7.58154 9.771 7.58154 9.76709C7.57959 9.74561 7.57861 9.73486 7.57861 9.73486C7.58057 9.73486 7.58154 9.73389 7.58154 9.73193C7.58545 9.71826 7.58643 9.71045 7.58447 9.7085C7.58447 9.70459 7.58447 9.70166 7.58447 9.69971C7.58838 9.69189 7.59033 9.68506 7.59033 9.6792C7.59229 9.67139 7.59131 9.6626 7.5874 9.65283C7.59521 9.64307 7.59912 9.62842 7.59912 9.60889C7.59521 9.59326 7.59229 9.58057 7.59033 9.5708C7.58838 9.56104 7.58936 9.55029 7.59326 9.53857C7.5874 9.53076 7.5835 9.521 7.58154 9.50928C7.57959 9.49756 7.57764 9.48584 7.57568 9.47412C7.56201 9.4585 7.55518 9.44971 7.55518 9.44775C7.54736 9.43604 7.54248 9.42529 7.54053 9.41553C7.53271 9.41357 7.52686 9.41162 7.52295 9.40967C7.521 9.40576 7.51709 9.40283 7.51123 9.40088C7.49561 9.38525 7.48486 9.37549 7.479 9.37158C7.4751 9.36768 7.47119 9.36475 7.46729 9.36279C7.45752 9.36084 7.44775 9.36084 7.43799 9.36279C7.42822 9.36475 7.41748 9.36377 7.40576 9.35986C7.39014 9.37158 7.38135 9.37646 7.37939 9.37451C7.37939 9.37256 7.37744 9.37158 7.37354 9.37158C7.36963 9.37744 7.36572 9.38428 7.36182 9.39209C7.35986 9.39795 7.35498 9.40186 7.34717 9.40381C7.33545 9.42139 7.32471 9.43311 7.31494 9.43896C7.29932 9.4624 7.2876 9.48096 7.27979 9.49463C7.27197 9.50635 7.26807 9.52002 7.26807 9.53564C7.25439 9.55713 7.24561 9.56885 7.2417 9.5708C7.23975 9.57275 7.23682 9.57568 7.23291 9.57959C7.23486 9.59717 7.23193 9.60889 7.22412 9.61475C7.21631 9.61865 7.21045 9.62549 7.20654 9.63525C7.20459 9.65283 7.20264 9.66357 7.20068 9.66748C7.19873 9.67139 7.19971 9.67725 7.20361 9.68506C7.19385 9.69873 7.18896 9.70752 7.18896 9.71143C7.19092 9.71338 7.19189 9.71631 7.19189 9.72021C7.17822 9.7417 7.17041 9.7583 7.16846 9.77002C7.16846 9.78174 7.16553 9.7915 7.15967 9.79932C7.15967 9.81299 7.15869 9.82178 7.15674 9.82568C7.15479 9.82764 7.15381 9.83154 7.15381 9.8374C7.15186 9.85107 7.1499 9.85986 7.14795 9.86377C7.14795 9.86768 7.146 9.87061 7.14209 9.87256C7.13232 9.90771 7.12451 9.94189 7.11865 9.9751C7.12061 9.98877 7.11963 9.99756 7.11572 10.0015C7.11377 10.0054 7.11279 10.0103 7.11279 10.0161C7.11475 10.0337 7.11572 10.0464 7.11572 10.0542C7.11377 10.0659 7.11279 10.0796 7.11279 10.0952C7.11279 10.1128 7.11279 10.1265 7.11279 10.1362C7.11279 10.1577 7.11279 10.1694 7.11279 10.1714C7.11475 10.1733 7.11572 10.1763 7.11572 10.1802C7.11768 10.2017 7.11963 10.2153 7.12158 10.2212C7.12354 10.229 7.12451 10.2349 7.12451 10.2388L7.13037 10.2915C7.13623 10.2993 7.14209 10.3062 7.14795 10.312C7.15381 10.3198 7.15576 10.3315 7.15381 10.3472C7.16357 10.3472 7.17041 10.3442 7.17432 10.3384C7.17822 10.3345 7.18311 10.3296 7.18896 10.3237C7.19873 10.3198 7.20752 10.314 7.21533 10.3062C7.22314 10.2983 7.23193 10.2905 7.2417 10.2827C7.25537 10.2808 7.26514 10.2759 7.271 10.2681C7.27686 10.2603 7.28662 10.2554 7.30029 10.2534C7.31201 10.2358 7.3208 10.2241 7.32666 10.2183C7.33252 10.2124 7.33838 10.2065 7.34424 10.2007L7.36768 10.1714C7.37354 10.1675 7.37842 10.1626 7.38232 10.1567C7.38623 10.1528 7.39014 10.1489 7.39404 10.145C7.39795 10.1392 7.40186 10.1343 7.40576 10.1304C7.40967 10.1265 7.41357 10.1216 7.41748 10.1157C7.43115 10.104 7.43896 10.0972 7.44092 10.0952C7.44287 10.0933 7.4458 10.0933 7.44971 10.0952C7.45166 10.0874 7.45459 10.0815 7.4585 10.0776C7.4624 10.0737 7.4624 10.0669 7.4585 10.0571ZM8.85303 10.7925C8.84717 10.7944 8.84033 10.7964 8.83252 10.7983C8.82666 10.8022 8.8208 10.8062 8.81494 10.8101C8.79932 10.8218 8.78955 10.8276 8.78564 10.8276C8.77197 10.8413 8.76416 10.8491 8.76221 10.8511C8.75439 10.8608 8.74756 10.8657 8.7417 10.8657C8.73584 10.8677 8.73096 10.8716 8.72705 10.8774C8.70947 10.8872 8.69189 10.895 8.67432 10.9009C8.65869 10.9067 8.64502 10.9146 8.6333 10.9243C8.61963 10.9263 8.61182 10.9282 8.60986 10.9302C8.60986 10.9341 8.60791 10.938 8.604 10.9419C8.59424 10.9438 8.58447 10.9468 8.57471 10.9507C8.56689 10.9565 8.55811 10.9624 8.54834 10.9683C8.53271 10.978 8.52197 10.9819 8.51611 10.98C8.51221 10.98 8.50732 10.981 8.50146 10.9829C8.49756 10.9868 8.49268 10.9897 8.48682 10.9917C8.48291 10.9956 8.479 11.0005 8.4751 11.0063C8.44971 11.0083 8.43213 11.0112 8.42236 11.0151C8.4126 11.019 8.40479 11.0229 8.39893 11.0269C8.38916 11.0229 8.38135 11.022 8.37549 11.0239C8.36963 11.0278 8.36279 11.0308 8.35498 11.0327C8.34131 11.0308 8.33154 11.0298 8.32568 11.0298C8.32178 11.0317 8.31689 11.0327 8.31104 11.0327C8.30127 11.0269 8.29346 11.0249 8.2876 11.0269C8.28369 11.0288 8.28076 11.0278 8.27881 11.0239C8.24561 11.0259 8.22803 11.0288 8.22607 11.0327C8.20654 11.0229 8.18213 11.021 8.15283 11.0269C8.13721 11.0171 8.12061 11.0112 8.10303 11.0093C8.08545 11.0093 8.06982 11.0024 8.05615 10.9888C8.04639 10.9888 8.04053 10.9878 8.03857 10.9858C8.03662 10.9858 8.03174 10.9868 8.02393 10.9888C8.02002 10.9849 8.01416 10.9819 8.00635 10.98C7.99854 10.978 7.99268 10.9731 7.98877 10.9653C7.97314 10.9458 7.96436 10.937 7.9624 10.939C7.96045 10.9429 7.95752 10.9438 7.95361 10.9419C7.93604 10.9243 7.92432 10.9136 7.91846 10.9097C7.91064 10.9058 7.90576 10.8999 7.90381 10.8921C7.89404 10.8921 7.88721 10.8892 7.8833 10.8833C7.87939 10.8794 7.87451 10.8765 7.86865 10.8745C7.8667 10.8628 7.86182 10.855 7.854 10.8511C7.84619 10.8491 7.84033 10.8462 7.83643 10.8423C7.83447 10.8325 7.8335 10.8228 7.8335 10.813C7.83154 10.8032 7.82764 10.7954 7.82178 10.7896C7.82373 10.7798 7.82178 10.77 7.81592 10.7603C7.81006 10.7505 7.80615 10.7407 7.8042 10.731C7.80811 10.7271 7.81006 10.7192 7.81006 10.7075C7.81006 10.6978 7.81201 10.6909 7.81592 10.687C7.81592 10.6812 7.81494 10.6733 7.81299 10.6636C7.81104 10.6558 7.81299 10.6509 7.81885 10.6489C7.81885 10.6313 7.81982 10.6177 7.82178 10.6079C7.82178 10.6001 7.82373 10.5962 7.82764 10.5962C7.82959 10.5864 7.83154 10.5786 7.8335 10.5728C7.83545 10.5669 7.83838 10.561 7.84229 10.5552C7.83447 10.5396 7.8335 10.5298 7.83936 10.5259C7.84521 10.522 7.85205 10.5151 7.85986 10.5054C7.87158 10.4897 7.87939 10.481 7.8833 10.479C7.88525 10.479 7.88818 10.479 7.89209 10.479C7.89404 10.4575 7.8999 10.4468 7.90967 10.4468C7.90771 10.4351 7.91064 10.4263 7.91846 10.4204C7.92432 10.4146 7.9292 10.4067 7.93311 10.397C7.94092 10.3833 7.94873 10.3745 7.95654 10.3706C7.96436 10.3667 7.97021 10.3599 7.97412 10.3501C7.98193 10.3481 7.98584 10.3433 7.98584 10.3354C7.98779 10.3296 7.99365 10.3257 8.00342 10.3237C8.01514 10.3062 8.02002 10.2964 8.01807 10.2944C8.01807 10.2944 8.01904 10.2925 8.021 10.2886C8.04248 10.2827 8.05713 10.2778 8.06494 10.2739C8.07471 10.27 8.08447 10.2681 8.09424 10.2681C8.09229 10.2896 8.09326 10.3003 8.09717 10.3003C8.10303 10.3003 8.10596 10.3022 8.10596 10.3062C8.1001 10.3276 8.09619 10.3403 8.09424 10.3442C8.09229 10.3501 8.09033 10.356 8.08838 10.3618C8.07666 10.3618 8.06885 10.3638 8.06494 10.3677C8.06299 10.3716 8.05811 10.3735 8.05029 10.3735C8.0542 10.3853 8.05322 10.3921 8.04736 10.394C8.0415 10.3979 8.0415 10.4048 8.04736 10.4146C8.03564 10.4321 8.02881 10.4419 8.02686 10.4438C8.02686 10.4478 8.02686 10.4507 8.02686 10.4526C8.01514 10.4683 8.0083 10.4771 8.00635 10.479C8.00439 10.4829 8.00146 10.4858 7.99756 10.4878C8.00342 10.5054 8.00439 10.5142 8.00049 10.5142C7.99854 10.5161 7.99756 10.519 7.99756 10.5229C7.99756 10.5386 7.99658 10.5474 7.99463 10.5493C7.99463 10.5532 7.99365 10.5591 7.9917 10.5669C7.98779 10.5825 7.98584 10.5933 7.98584 10.5991C7.98779 10.605 7.98877 10.6108 7.98877 10.6167C7.99268 10.6421 7.99463 10.6567 7.99463 10.6606C7.99658 10.6646 7.99854 10.6704 8.00049 10.6782C8.01221 10.6978 8.021 10.7114 8.02686 10.7192C8.03271 10.7271 8.03564 10.7378 8.03564 10.7515C8.05518 10.7671 8.06592 10.7759 8.06787 10.7778C8.07178 10.7817 8.07568 10.7856 8.07959 10.7896C8.08936 10.7896 8.09521 10.7925 8.09717 10.7983C8.10107 10.8042 8.10791 10.8062 8.11768 10.8042C8.1333 10.8218 8.14307 10.8306 8.14697 10.8306C8.15283 10.8306 8.15771 10.8345 8.16162 10.8423C8.17139 10.8384 8.1792 10.8384 8.18506 10.8423C8.19287 10.8462 8.19971 10.8501 8.20557 10.854C8.2251 10.8599 8.23779 10.8638 8.24365 10.8657C8.24951 10.8677 8.25342 10.8687 8.25537 10.8687C8.28271 10.8726 8.3042 10.8755 8.31982 10.8774C8.33545 10.8794 8.35107 10.8813 8.3667 10.8833C8.396 10.8872 8.4165 10.8882 8.42822 10.8862C8.43994 10.8862 8.45166 10.8862 8.46338 10.8862C8.46924 10.8862 8.4751 10.8872 8.48096 10.8892C8.48682 10.8911 8.4917 10.8901 8.49561 10.8862C8.49951 10.8823 8.50635 10.8804 8.51611 10.8804C8.52588 10.8823 8.53271 10.8804 8.53662 10.8745C8.54834 10.8784 8.55811 10.8774 8.56592 10.8716C8.57373 10.8657 8.58252 10.8618 8.59229 10.8599L8.61865 10.8394C8.63428 10.8237 8.65088 10.811 8.66846 10.8013C8.68799 10.7935 8.70166 10.7788 8.70947 10.7573C8.72314 10.7495 8.73193 10.7437 8.73584 10.7397C8.73975 10.7378 8.73975 10.7329 8.73584 10.7251C8.74561 10.7231 8.75049 10.7173 8.75049 10.7075C8.75244 10.6997 8.7583 10.6948 8.76807 10.6929C8.77979 10.6772 8.78662 10.6626 8.78857 10.6489C8.79248 10.6353 8.80029 10.6255 8.81201 10.6196C8.81201 10.6099 8.81396 10.6021 8.81787 10.5962C8.82373 10.5903 8.82861 10.5845 8.83252 10.5786C8.82861 10.563 8.82959 10.5483 8.83545 10.5347C8.84131 10.5229 8.84131 10.5093 8.83545 10.4937C8.84521 10.4917 8.8501 10.4868 8.8501 10.479C8.85205 10.4712 8.85596 10.4653 8.86182 10.4614C8.85986 10.4458 8.86084 10.4331 8.86475 10.4233C8.86865 10.4136 8.86963 10.4009 8.86768 10.3853C8.87354 10.3794 8.87646 10.3716 8.87646 10.3618C8.87646 10.354 8.87744 10.3423 8.87939 10.3267C8.8833 10.3052 8.88428 10.2935 8.88232 10.2915C8.88232 10.2915 8.88232 10.2876 8.88232 10.2798C8.88428 10.272 8.88623 10.2651 8.88818 10.2593C8.89209 10.2534 8.89209 10.2466 8.88818 10.2388C8.896 10.2173 8.89893 10.2056 8.89697 10.2036C8.89697 10.2036 8.89697 10.2017 8.89697 10.1978C8.89697 10.188 8.896 10.1792 8.89404 10.1714C8.89404 10.1655 8.896 10.1597 8.8999 10.1538C8.89795 10.1382 8.896 10.1274 8.89404 10.1216C8.89404 10.1157 8.89404 10.1108 8.89404 10.1069C8.8999 10.103 8.90186 10.0952 8.8999 10.0835C8.8999 10.0718 8.90186 10.064 8.90576 10.0601C8.8999 10.0425 8.89795 10.0288 8.8999 10.019C8.90186 10.0112 8.90088 10.0034 8.89697 9.99561C8.90283 9.9917 8.90381 9.98486 8.8999 9.9751C8.89795 9.96729 8.8999 9.95947 8.90576 9.95166C8.8999 9.93018 8.89795 9.91748 8.8999 9.91357C8.90186 9.90967 8.90186 9.90283 8.8999 9.89307C8.896 9.83252 8.89893 9.78369 8.90869 9.74658C8.90674 9.71924 8.90381 9.70459 8.8999 9.70264C8.89795 9.70068 8.89697 9.69775 8.89697 9.69385C8.89697 9.68604 8.89795 9.68018 8.8999 9.67627C8.90186 9.67041 8.90186 9.66455 8.8999 9.65869C8.8999 9.64893 8.89795 9.64014 8.89404 9.63232C8.89209 9.62451 8.89307 9.61572 8.89697 9.60596C8.89111 9.59424 8.88818 9.58643 8.88818 9.58252C8.89014 9.57666 8.89111 9.57178 8.89111 9.56787C8.89111 9.55811 8.89111 9.54736 8.89111 9.53564C8.89111 9.52393 8.89307 9.51514 8.89697 9.50928C8.89697 9.48975 8.89404 9.4751 8.88818 9.46533C8.88428 9.45361 8.88623 9.44287 8.89404 9.43311C8.89014 9.396 8.88721 9.36572 8.88525 9.34229C8.88525 9.31885 8.88721 9.29639 8.89111 9.2749C8.88525 9.25928 8.8833 9.25049 8.88525 9.24854C8.88721 9.24463 8.88818 9.24072 8.88818 9.23682C8.88232 9.21729 8.87939 9.20459 8.87939 9.19873C8.88135 9.19092 8.88037 9.18408 8.87646 9.17822C8.86865 9.17627 8.86279 9.17822 8.85889 9.18408C8.85693 9.18994 8.854 9.1958 8.8501 9.20166C8.84229 9.21533 8.83643 9.22412 8.83252 9.22803C8.82861 9.23193 8.82471 9.23584 8.8208 9.23975C8.81689 9.24365 8.81299 9.24854 8.80908 9.25439C8.80518 9.2583 8.79932 9.26123 8.7915 9.26318C8.78174 9.27686 8.77588 9.28467 8.77393 9.28662C8.77393 9.28857 8.77393 9.29053 8.77393 9.29248C8.76416 9.30615 8.7583 9.31494 8.75635 9.31885C8.75635 9.32275 8.75439 9.32666 8.75049 9.33057L8.72705 9.38037C8.71533 9.39209 8.70752 9.39893 8.70361 9.40088C8.70166 9.40283 8.70166 9.40674 8.70361 9.4126C8.68604 9.43213 8.67627 9.4458 8.67432 9.45361C8.67236 9.46143 8.66748 9.46729 8.65967 9.47119C8.64209 9.48877 8.6333 9.50146 8.6333 9.50928C8.62549 9.51123 8.61963 9.51416 8.61572 9.51807C8.61182 9.52197 8.60596 9.52588 8.59814 9.52979C8.58252 9.54346 8.57373 9.55127 8.57178 9.55322C8.56982 9.55518 8.56689 9.55615 8.56299 9.55615C8.5415 9.56982 8.52979 9.57764 8.52783 9.57959C8.52588 9.57959 8.52295 9.58154 8.51904 9.58545C8.50537 9.59717 8.49756 9.60303 8.49561 9.60303C8.49561 9.60107 8.49365 9.60107 8.48975 9.60303C8.48584 9.60693 8.48096 9.61084 8.4751 9.61475C8.47119 9.61865 8.46729 9.62256 8.46338 9.62646C8.44775 9.63232 8.43799 9.63721 8.43408 9.64111C8.43213 9.64307 8.4292 9.646 8.42529 9.6499C8.40576 9.65967 8.39307 9.66748 8.38721 9.67334C8.38135 9.6792 8.37158 9.68213 8.35791 9.68213C8.34814 9.68604 8.34033 9.69092 8.33447 9.69678C8.32861 9.70068 8.31982 9.70264 8.30811 9.70264C8.28662 9.70654 8.27197 9.7085 8.26416 9.7085C8.25635 9.7085 8.25049 9.70459 8.24658 9.69678C8.22119 9.68896 8.20459 9.68311 8.19678 9.6792C8.17725 9.65771 8.1665 9.64307 8.16455 9.63525C8.1626 9.62744 8.16162 9.61865 8.16162 9.60889C8.15967 9.60107 8.15967 9.59326 8.16162 9.58545C8.16357 9.57764 8.1626 9.5708 8.15869 9.56494C8.15479 9.56104 8.15381 9.55615 8.15576 9.55029C8.15967 9.54443 8.15967 9.53857 8.15576 9.53271C8.15576 9.521 8.15479 9.51318 8.15283 9.50928C8.15088 9.50342 8.1499 9.49756 8.1499 9.4917C8.14795 9.48193 8.14697 9.47314 8.14697 9.46533C8.14893 9.45557 8.14893 9.44287 8.14697 9.42725C8.14697 9.41748 8.14697 9.40967 8.14697 9.40381C8.14697 9.39795 8.14502 9.39307 8.14111 9.38916C8.14307 9.37158 8.14404 9.36182 8.14404 9.35986C8.146 9.35791 8.146 9.35693 8.14404 9.35693C8.14209 9.34131 8.14111 9.32959 8.14111 9.32178C8.14111 9.30615 8.14209 9.29443 8.14404 9.28662C8.146 9.27686 8.14307 9.27002 8.13525 9.26611C8.14111 9.25049 8.14209 9.23877 8.13818 9.23096C8.13623 9.22119 8.13525 9.21045 8.13525 9.19873C8.13721 9.18896 8.13721 9.1792 8.13525 9.16943C8.1333 9.15771 8.13232 9.14697 8.13232 9.13721C8.12842 9.11377 8.12256 9.09814 8.11475 9.09033C8.10889 9.08057 8.10791 9.07178 8.11182 9.06396C8.1001 9.04834 8.09033 9.03076 8.08252 9.01123C8.07471 8.9917 8.05713 8.97998 8.02979 8.97607C8.01221 8.9585 7.99463 8.94971 7.97705 8.94971H7.92725C7.91748 8.94971 7.91162 8.95068 7.90967 8.95264C7.90576 8.95264 7.8999 8.95166 7.89209 8.94971C7.87256 8.94385 7.86377 8.93896 7.86572 8.93506C7.86572 8.9292 7.86377 8.92627 7.85986 8.92627C7.87549 8.91064 7.88428 8.90088 7.88623 8.89697C7.88623 8.89307 7.88916 8.89209 7.89502 8.89404C7.92236 8.87451 7.94092 8.86279 7.95068 8.85889C7.96045 8.85303 7.97314 8.8501 7.98877 8.8501C7.99658 8.84229 8.00244 8.8374 8.00635 8.83545C8.01221 8.83154 8.01904 8.82959 8.02686 8.82959C8.03662 8.82373 8.04932 8.8208 8.06494 8.8208C8.08057 8.81885 8.09326 8.81299 8.10303 8.80322C8.10889 8.80713 8.11572 8.81006 8.12354 8.81201C8.13135 8.81396 8.13721 8.81689 8.14111 8.8208C8.1626 8.82275 8.17432 8.82568 8.17627 8.82959C8.17822 8.8335 8.18115 8.83545 8.18506 8.83545C8.20068 8.83936 8.21045 8.84424 8.21436 8.8501C8.23389 8.85596 8.24561 8.86084 8.24951 8.86475C8.25537 8.8667 8.26025 8.86963 8.26416 8.87354C8.28174 8.89307 8.29053 8.90479 8.29053 8.90869C8.29053 8.9126 8.29346 8.91553 8.29932 8.91748C8.29541 8.92334 8.29639 8.93018 8.30225 8.93799C8.30811 8.94385 8.31299 8.95166 8.31689 8.96143C8.31885 8.97314 8.31982 8.98486 8.31982 8.99658C8.31982 9.00635 8.32666 9.01221 8.34033 9.01416C8.34033 9.02979 8.34033 9.04639 8.34033 9.06396C8.34814 9.07178 8.34912 9.08252 8.34326 9.09619C8.3374 9.10791 8.33936 9.11768 8.34912 9.12549C8.34717 9.14893 8.34717 9.17139 8.34912 9.19287C8.35107 9.21826 8.3501 9.23389 8.34619 9.23975C8.34424 9.24561 8.34521 9.25244 8.34912 9.26025V9.29541C8.34912 9.30713 8.3501 9.31982 8.35205 9.3335C8.354 9.34521 8.35205 9.354 8.34619 9.35986C8.3501 9.37549 8.35205 9.39111 8.35205 9.40674C8.35205 9.42041 8.35303 9.4292 8.35498 9.43311C8.35889 9.43701 8.35889 9.44092 8.35498 9.44482C8.36084 9.47021 8.36475 9.48975 8.3667 9.50342C8.36865 9.51514 8.37451 9.52295 8.38428 9.52686C8.43115 9.54443 8.45947 9.53662 8.46924 9.50342L8.49561 9.47119C8.49951 9.45752 8.50537 9.44678 8.51318 9.43896C8.521 9.43115 8.52588 9.41943 8.52783 9.40381C8.54541 9.39014 8.5542 9.38135 8.5542 9.37744C8.56787 9.36377 8.57764 9.35596 8.5835 9.354C8.59717 9.33643 8.604 9.32471 8.604 9.31885C8.60596 9.31104 8.61084 9.30615 8.61865 9.3042C8.62451 9.28467 8.62939 9.2749 8.6333 9.2749C8.63916 9.27295 8.64209 9.26807 8.64209 9.26025C8.65381 9.24854 8.66553 9.23682 8.67725 9.2251C8.68115 9.21533 8.68506 9.2085 8.68896 9.20459C8.69287 9.20068 8.69385 9.1958 8.69189 9.18994C8.70361 9.17041 8.71045 9.15967 8.7124 9.15771C8.71631 9.15576 8.72021 9.15283 8.72412 9.14893C8.72607 9.13916 8.729 9.13135 8.73291 9.12549C8.73877 9.11963 8.74463 9.11377 8.75049 9.10791C8.74854 9.09424 8.75146 9.08447 8.75928 9.07861C8.76709 9.0708 8.76904 9.06201 8.76514 9.05225C8.77686 9.04248 8.78564 9.03369 8.7915 9.02588C8.79736 9.01807 8.79932 9.01025 8.79736 9.00244C8.81104 8.99658 8.81885 8.98486 8.8208 8.96729C8.83057 8.95752 8.8374 8.94678 8.84131 8.93506C8.84717 8.92139 8.854 8.90967 8.86182 8.8999C8.86768 8.87646 8.86963 8.86377 8.86768 8.86182C8.86572 8.85986 8.86475 8.85693 8.86475 8.85303C8.87451 8.82959 8.88135 8.81689 8.88525 8.81494C8.89111 8.81104 8.89502 8.80518 8.89697 8.79736C8.92041 8.78564 8.93408 8.77783 8.93799 8.77393C8.94385 8.77002 8.94873 8.76611 8.95264 8.76221C8.96631 8.76221 8.97607 8.76025 8.98193 8.75635C8.98975 8.75244 8.99561 8.74854 8.99951 8.74463C9.02295 8.74463 9.03564 8.73877 9.0376 8.72705C9.06104 8.72314 9.07568 8.72314 9.08154 8.72705C9.0874 8.73096 9.09521 8.73389 9.10498 8.73584C9.10498 8.76709 9.104 8.79346 9.10205 8.81494C9.1001 8.83643 9.09912 8.85986 9.09912 8.88525C9.09521 8.90088 9.09229 8.91064 9.09033 8.91455C9.09033 8.91846 9.09326 8.92236 9.09912 8.92627C9.09521 8.94971 9.09229 8.97021 9.09033 8.98779C9.09814 8.99756 9.1001 9.0083 9.09619 9.02002C9.09229 9.03174 9.09131 9.04541 9.09326 9.06104C9.0874 9.07666 9.08545 9.08545 9.0874 9.0874C9.08936 9.08936 9.09229 9.09229 9.09619 9.09619C9.09814 9.10986 9.09814 9.11768 9.09619 9.11963C9.09619 9.12158 9.09619 9.12451 9.09619 9.12842C9.09814 9.13818 9.09912 9.14893 9.09912 9.16064C9.09912 9.17236 9.09717 9.18213 9.09326 9.18994C9.09912 9.20361 9.10107 9.21729 9.09912 9.23096C9.09912 9.24463 9.1001 9.2583 9.10205 9.27197C9.10596 9.29346 9.10693 9.30908 9.10498 9.31885C9.10498 9.32861 9.10498 9.33936 9.10498 9.35107C9.10889 9.36865 9.10986 9.37939 9.10791 9.3833C9.10596 9.38525 9.10498 9.38818 9.10498 9.39209C9.10693 9.40967 9.10791 9.42432 9.10791 9.43604C9.10791 9.44775 9.10986 9.45752 9.11377 9.46533C9.10791 9.479 9.10596 9.48779 9.10791 9.4917C9.10986 9.49561 9.11084 9.49854 9.11084 9.50049C9.11084 9.5083 9.10986 9.51904 9.10791 9.53271C9.10596 9.54639 9.10498 9.55713 9.10498 9.56494C9.10693 9.57275 9.10791 9.58154 9.10791 9.59131C9.10986 9.60107 9.11279 9.60889 9.1167 9.61475C9.11084 9.63818 9.10889 9.65381 9.11084 9.66162C9.11475 9.66748 9.1167 9.67432 9.1167 9.68213C9.1167 9.70361 9.11572 9.71729 9.11377 9.72314C9.11377 9.729 9.1167 9.73389 9.12256 9.73779C9.12061 9.75732 9.11768 9.771 9.11377 9.77881C9.10986 9.78467 9.10986 9.79053 9.11377 9.79639C9.10596 9.81592 9.10303 9.82568 9.10498 9.82568C9.10889 9.82568 9.11084 9.82666 9.11084 9.82861C9.11279 9.84814 9.11279 9.85986 9.11084 9.86377C9.11084 9.86572 9.11182 9.86963 9.11377 9.87549C9.10986 9.90869 9.11182 9.93018 9.11963 9.93994C9.11572 9.95947 9.11475 9.97021 9.1167 9.97217C9.11865 9.97607 9.11963 9.97998 9.11963 9.98389L9.11377 10.019C9.11182 10.0347 9.11084 10.0425 9.11084 10.0425C9.11279 10.0444 9.11377 10.0474 9.11377 10.0513C9.11377 10.0669 9.11279 10.0776 9.11084 10.0835C9.11084 10.0913 9.10889 10.0972 9.10498 10.1011L9.10205 10.1333V10.1831C9.104 10.1948 9.104 10.2036 9.10205 10.2095C9.10205 10.2153 9.1001 10.2202 9.09619 10.2241C9.09424 10.228 9.09229 10.2319 9.09033 10.2358C9.09033 10.2417 9.09229 10.2505 9.09619 10.2622C9.09033 10.2681 9.0874 10.2788 9.0874 10.2944C9.0874 10.3101 9.08643 10.3208 9.08447 10.3267L9.07861 10.3647C9.07666 10.3804 9.07471 10.3901 9.07275 10.394C9.0708 10.3999 9.06885 10.4058 9.06689 10.4116C9.06494 10.4331 9.06201 10.4478 9.05811 10.4556C9.0542 10.4653 9.05322 10.4771 9.05518 10.4907C9.04346 10.5044 9.03662 10.5122 9.03467 10.5142C9.03467 10.5181 9.03271 10.521 9.02881 10.5229C9.021 10.5464 9.01514 10.5649 9.01123 10.5786C9.00146 10.5923 8.99658 10.6001 8.99658 10.6021C8.99658 10.604 8.99463 10.605 8.99072 10.605C8.98877 10.6206 8.98584 10.6294 8.98193 10.6313C8.97998 10.6353 8.97705 10.6372 8.97314 10.6372C8.97314 10.647 8.97119 10.6538 8.96729 10.6577C8.96338 10.6636 8.96143 10.6714 8.96143 10.6812C8.95361 10.6812 8.94775 10.6841 8.94385 10.6899C8.94189 10.6978 8.93896 10.7046 8.93506 10.7104C8.91943 10.7241 8.91162 10.7319 8.91162 10.7339C8.91162 10.7358 8.91064 10.7378 8.90869 10.7397C8.88916 10.7573 8.87744 10.7661 8.87354 10.7661C8.86963 10.7681 8.86768 10.771 8.86768 10.7749L8.85303 10.7925ZM12.4858 4.86816C12.7661 4.86816 13.0521 4.89437 13.3438 4.94678C13.6354 4.99691 13.9191 5.07438 14.1948 5.1792C14.4705 5.28402 14.7303 5.41618 14.9741 5.57568C15.2179 5.73291 15.431 5.91748 15.6133 6.12939C15.7956 6.34131 15.9391 6.58057 16.0439 6.84717C16.151 7.11377 16.2046 7.40885 16.2046 7.73242C16.2046 8.05599 16.1476 8.35563 16.0337 8.63135C15.9198 8.90706 15.7603 9.14518 15.5552 9.3457C15.3501 9.54622 15.1051 9.70345 14.8203 9.81738C14.5355 9.93132 14.2222 9.98828 13.8804 9.98828C13.7186 9.98828 13.5511 9.97575 13.3779 9.95068C13.2048 9.9279 13.0316 9.89144 12.8584 9.84131C12.6852 9.79118 12.5143 9.72965 12.3457 9.65674C12.1794 9.58154 12.0199 9.49268 11.8672 9.39014C11.6872 9.56787 11.4787 9.70687 11.2417 9.80713C11.007 9.90511 10.7586 9.9541 10.4966 9.9541C10.3553 9.9541 10.2231 9.93815 10.1001 9.90625C9.97705 9.87435 9.86995 9.82878 9.77881 9.76953C9.68994 9.71029 9.6193 9.63851 9.56689 9.5542C9.51676 9.46989 9.4917 9.37646 9.4917 9.27393C9.4917 9.18506 9.51335 9.10189 9.55664 9.02441C9.60221 8.94694 9.66488 8.87858 9.74463 8.81934C9.82666 8.76009 9.9235 8.71338 10.0352 8.6792C10.1491 8.64502 10.2733 8.62793 10.4077 8.62793C10.8042 8.62793 11.2736 8.77376 11.8159 9.06543C11.9162 8.9401 11.9982 8.79883 12.062 8.6416C12.1326 8.46615 12.1873 8.28613 12.2261 8.10156C12.2671 7.91471 12.3024 7.729 12.332 7.54443C12.3639 7.35986 12.3958 7.17985 12.4277 7.00439C12.4619 6.82894 12.5075 6.66374 12.5645 6.50879C12.6237 6.35384 12.7 6.21257 12.7935 6.08496C12.8892 5.95508 13.0133 5.84456 13.166 5.75342C13.1888 5.74202 13.2093 5.73633 13.2275 5.73633C13.2594 5.73633 13.2891 5.74772 13.3164 5.77051C13.346 5.79329 13.3608 5.8252 13.3608 5.86621C13.3608 5.91406 13.3392 5.95052 13.2959 5.97559C13.1751 6.04622 13.076 6.13509 12.9985 6.24219C12.9233 6.34701 12.8607 6.46549 12.8105 6.59766C12.7604 6.72982 12.7205 6.87223 12.6909 7.0249C12.6613 7.17757 12.6328 7.33708 12.6055 7.50342C12.5827 7.64014 12.5576 7.78369 12.5303 7.93408C12.5029 8.08219 12.4688 8.23031 12.4277 8.37842C12.3867 8.52425 12.3343 8.66781 12.2705 8.80908C12.209 8.94808 12.1326 9.07682 12.0415 9.19531C12.0461 9.19759 12.0483 9.19987 12.0483 9.20215C12.0506 9.20215 12.054 9.20329 12.0586 9.20557C12.348 9.37874 12.6488 9.50977 12.9609 9.59863C13.2731 9.6875 13.5785 9.73193 13.877 9.73193C14.2005 9.73193 14.4899 9.67839 14.7451 9.57129C15.0026 9.46419 15.2202 9.32064 15.3979 9.14062C15.5757 8.95833 15.7113 8.74642 15.8047 8.50488C15.8981 8.26335 15.9448 8.00814 15.9448 7.73926C15.9448 7.46582 15.8993 7.21175 15.8081 6.97705C15.717 6.74007 15.5916 6.52474 15.4321 6.33105C15.2749 6.13737 15.0869 5.96533 14.8682 5.81494C14.6517 5.66455 14.417 5.53923 14.1641 5.43896C13.9134 5.33643 13.6491 5.25895 13.3711 5.20654C13.0954 5.15186 12.8185 5.12451 12.5405 5.12451C12.1668 5.12451 11.825 5.15641 11.5151 5.22021C11.2075 5.28174 10.9421 5.37288 10.7188 5.49365C10.4977 5.61442 10.3257 5.76253 10.2026 5.93799C10.0796 6.11344 10.0181 6.31283 10.0181 6.53613C10.0181 6.66374 10.0363 6.77653 10.0728 6.87451C10.1115 6.97249 10.1593 7.05794 10.2163 7.13086C10.2756 7.2015 10.3394 7.26188 10.4077 7.31201C10.4761 7.36214 10.5399 7.40316 10.5991 7.43506C10.6584 7.46468 10.7085 7.48633 10.7495 7.5C10.7928 7.51367 10.8179 7.52165 10.8247 7.52393C10.8543 7.53076 10.8771 7.54671 10.8931 7.57178C10.9113 7.59456 10.9204 7.62077 10.9204 7.65039C10.9204 7.68913 10.9067 7.71875 10.8794 7.73926C10.8521 7.75977 10.8224 7.77002 10.7905 7.77002C10.745 7.77002 10.688 7.75977 10.6196 7.73926C10.5513 7.71647 10.4784 7.68343 10.4009 7.64014C10.3257 7.59456 10.2493 7.53874 10.1719 7.47266C10.0967 7.4043 10.0283 7.32454 9.9668 7.2334C9.90527 7.14225 9.85514 7.03857 9.81641 6.92236C9.77995 6.80615 9.76172 6.67741 9.76172 6.53613C9.76172 6.27865 9.82666 6.04736 9.95654 5.84229C10.0887 5.63493 10.2744 5.45947 10.5137 5.31592C10.7529 5.17236 11.0389 5.06185 11.3716 4.98438C11.7065 4.9069 12.078 4.86816 12.4858 4.86816ZM11.6313 9.26025C11.3944 9.13493 11.1745 9.04036 10.9717 8.97656C10.7689 8.91276 10.5832 8.88086 10.4146 8.88086C10.3188 8.88086 10.23 8.89225 10.1479 8.91504C10.0682 8.93555 9.9987 8.96403 9.93945 9.00049C9.88021 9.03695 9.8335 9.0791 9.79932 9.12695C9.76514 9.1748 9.74805 9.22493 9.74805 9.27734C9.74805 9.32747 9.76286 9.3776 9.79248 9.42773C9.82438 9.47786 9.87109 9.5223 9.93262 9.56104C9.99642 9.59977 10.075 9.63167 10.1685 9.65674C10.2619 9.6818 10.3713 9.69434 10.4966 9.69434C10.7108 9.69434 10.9147 9.65674 11.1084 9.58154C11.3044 9.50407 11.4787 9.39697 11.6313 9.26025Z" fill="#F5DEB3"/>
</svg>
