<svg width="407" height="77" viewBox="0 0 407 77" fill="none" xmlns="http://www.w3.org/2000/svg">
    <path d="M53.6875 14.1875C53.625 14.4792 53.4896 14.7083 53.2812 14.875C53.0729 15.0417 52.8438 15.125 52.5938 15.125C52.2188 15.125 51.9167 15.0104 51.6875 14.7812C51.4583 14.5312 51.3438 14.25 51.3438 13.9375C51.3438 13.625 51.375 13.3229 51.4375 13.0312C51.5 12.7188 51.5312 12.4167 51.5312 12.125C51.5312 10.6042 51.0625 9.23958 50.125 8.03125C49.1875 6.82292 47.8542 5.8125 46.125 5C44.4167 4.16667 42.3333 3.53125 39.875 3.09375C37.4167 2.65625 34.6771 2.4375 31.6562 2.4375C29.3438 2.4375 27.0104 2.59375 24.6562 2.90625C22.3229 3.19792 20.0729 3.63542 17.9062 4.21875C15.7604 4.78125 13.75 5.5 11.875 6.375C10 7.22917 8.36458 8.22917 6.96875 9.375C5.59375 10.5 4.51042 11.7604 3.71875 13.1562C2.92708 14.5312 2.53125 16.0417 2.53125 17.6875C2.53125 18.9583 2.80208 20.0833 3.34375 21.0625C3.90625 22.0208 4.66667 22.8646 5.625 23.5938C6.58333 24.3021 7.70833 24.9167 9 25.4375C10.3125 25.9375 11.7292 26.3646 13.25 26.7188C14.7708 27.0521 16.3542 27.3333 18 27.5625C19.6458 27.7708 21.3021 27.9479 22.9688 28.0938L27.7812 28.5C30.1771 28.7083 32.3229 28.9271 34.2188 29.1562C36.1146 29.3854 37.7812 29.6771 39.2188 30.0312C41.6146 30.6354 43.3854 31.5 44.5312 32.625C45.6771 33.75 46.25 35.25 46.25 37.125C46.25 38.9375 45.75 40.5312 44.75 41.9062C43.75 43.2812 42.3854 44.4375 40.6562 45.375C38.9271 46.3125 36.9062 47.0208 34.5938 47.5C32.2812 47.9792 29.8021 48.2188 27.1562 48.2188C24.2812 48.2188 21.75 48.0208 19.5625 47.625C17.3958 47.25 15.5729 46.8333 14.0938 46.375C12.6354 45.8958 11.5208 45.4583 10.75 45.0625C9.97917 44.6667 9.5625 44.4479 9.5 44.4062C9.125 44.1979 8.9375 43.8646 8.9375 43.4062C8.9375 43.0521 9.0625 42.7708 9.3125 42.5625C9.5625 42.3333 9.83333 42.2188 10.125 42.2188C10.3542 42.2188 10.5625 42.2812 10.75 42.4062C10.7708 42.4062 11.125 42.5938 11.8125 42.9688C12.5208 43.3229 13.5625 43.7188 14.9375 44.1562C16.3333 44.5938 18.0521 44.9896 20.0938 45.3438C22.1354 45.6979 24.5104 45.875 27.2188 45.875C29.9062 45.875 32.2812 45.6562 34.3438 45.2188C36.4062 44.7812 38.1354 44.1771 39.5312 43.4062C40.9479 42.6146 42.0104 41.6979 42.7188 40.6562C43.4479 39.5938 43.8125 38.4479 43.8125 37.2188C43.8125 36.4896 43.6771 35.8646 43.4062 35.3438C43.1562 34.8021 42.8021 34.3438 42.3438 33.9688C41.8854 33.5729 41.3333 33.2396 40.6875 32.9688C40.0625 32.6979 39.375 32.4688 38.625 32.2812C37.8333 32.0729 36.9792 31.8958 36.0625 31.75C35.1667 31.6042 34.2396 31.4792 33.2812 31.375C32.3229 31.2708 31.3542 31.1771 30.375 31.0938C29.4167 31.0104 28.4688 30.9271 27.5312 30.8438L22.7188 30.4375C18.9271 30.125 15.6146 29.6458 12.7812 29C9.96875 28.3333 7.625 27.4896 5.75 26.4688C3.875 25.4271 2.46875 24.1875 1.53125 22.75C0.59375 21.3125 0.125 19.6354 0.125 17.7188C0.125 15.7604 0.5625 13.9688 1.4375 12.3438C2.33333 10.6979 3.54167 9.21875 5.0625 7.90625C6.60417 6.59375 8.39583 5.45833 10.4375 4.5C12.5 3.52083 14.6979 2.70833 17.0312 2.0625C19.3646 1.41667 21.7812 0.9375 24.2812 0.625C26.7812 0.291667 29.2396 0.125 31.6562 0.125C34.6771 0.125 37.3021 0.3125 39.5312 0.6875C41.7812 1.04167 43.6979 1.51042 45.2812 2.09375C46.8854 2.65625 48.1979 3.30208 49.2188 4.03125C50.2396 4.76042 51.0625 5.47917 51.6875 6.1875C53.1667 7.91667 53.9062 9.88542 53.9062 12.0938C53.9062 12.8229 53.8333 13.5208 53.6875 14.1875ZM54.5 43.5625C54.9375 44.1667 55.5 44.6562 56.1875 45.0312C56.875 45.3854 57.7188 45.5625 58.7188 45.5625C59.7396 45.5625 60.6667 45.3229 61.5 44.8438C62.3333 44.3438 63.0938 43.6979 63.7812 42.9062C64.4688 42.1146 65.0833 41.2292 65.625 40.25C66.1667 39.2708 66.6562 38.2917 67.0938 37.3125C67.1979 37.0833 67.3438 36.9167 67.5312 36.8125C67.7188 36.6875 67.9271 36.625 68.1562 36.625C68.5104 36.625 68.7917 36.75 69 37C69.2292 37.25 69.3438 37.5208 69.3438 37.8125C69.3438 37.9167 69.3333 38.0104 69.3125 38.0938C69.2917 38.1562 69.2604 38.2292 69.2188 38.3125C67.7812 41.4792 66.2083 43.8646 64.5 45.4688C62.8125 47.0729 60.8958 47.8958 58.75 47.9375C57.375 47.9375 56.1875 47.6667 55.1875 47.125C54.1875 46.6042 53.3646 45.9271 52.7188 45.0938C52.0729 44.2396 51.5938 43.2812 51.2812 42.2188C50.9688 41.1562 50.8125 40.0938 50.8125 39.0312C50.8125 37.9688 50.9375 36.9896 51.1875 36.0938C51.4583 35.1979 51.8333 34.4167 52.3125 33.75C52.8125 33.0833 53.3958 32.5625 54.0625 32.1875C54.75 31.8125 55.5 31.625 56.3125 31.625C56.7917 31.625 57.2604 31.7292 57.7188 31.9375C58.1979 32.125 58.625 32.4062 59 32.7812C59.375 33.1354 59.6771 33.5729 59.9062 34.0938C60.1354 34.6146 60.25 35.2083 60.25 35.875C60.25 36.7292 60.1042 37.5312 59.8125 38.2812C59.5208 39.0312 59.1146 39.7292 58.5938 40.375C58.0938 41.0208 57.4896 41.6146 56.7812 42.1562C56.0729 42.6979 55.3125 43.1667 54.5 43.5625ZM53.5625 41.5312C54.2083 41.2604 54.7917 40.9167 55.3125 40.5C55.8542 40.0833 56.3125 39.625 56.6875 39.125C57.0625 38.625 57.3542 38.1042 57.5625 37.5625C57.7708 37 57.875 36.4375 57.875 35.875C57.875 35.25 57.7188 34.7812 57.4062 34.4688C57.0938 34.1354 56.7292 33.9688 56.3125 33.9688C55.75 33.9688 55.2708 34.125 54.875 34.4375C54.4792 34.75 54.1562 35.1562 53.9062 35.6562C53.6562 36.1562 53.4688 36.7188 53.3438 37.3438C53.2396 37.9479 53.1875 38.5521 53.1875 39.1562C53.1875 39.5312 53.2188 39.9271 53.2812 40.3438C53.3646 40.7604 53.4583 41.1562 53.5625 41.5312ZM70.4062 34.1562C70.3229 34.7188 70.2188 35.25 70.0938 35.75C69.9688 36.2292 69.8438 36.6562 69.7188 37.0312C69.6146 37.3854 69.5208 37.6771 69.4375 37.9062C69.3542 38.1354 69.3021 38.2604 69.2812 38.2812C69.0729 38.7604 68.7083 39 68.1875 39C67.8958 39 67.625 38.8958 67.375 38.6875C67.125 38.4583 67 38.1771 67 37.8438C67 37.7188 67.0208 37.625 67.0625 37.5625C67.1042 37.5 67.1667 37.375 67.25 37.1875C67.3333 37 67.4375 36.6875 67.5625 36.25C67.6875 35.8125 67.8438 35.1354 68.0312 34.2188C67.6771 34.2188 67.3125 34.2083 66.9375 34.1875C66.5625 34.1667 66.2188 34.0938 65.9062 33.9688C65.5729 33.8438 65.3021 33.6458 65.0938 33.375C64.8854 33.1042 64.7812 32.7292 64.7812 32.25C64.7812 31.8958 64.8854 31.4167 65.0938 30.8125C65.2812 30.2083 65.5417 29.6146 65.875 29.0312C66.2083 28.4479 66.5833 27.9479 67 27.5312C67.4167 27.0938 67.8333 26.875 68.25 26.875C68.7292 26.875 69.1146 27.0521 69.4062 27.4062C69.7188 27.7604 69.9583 28.1979 70.125 28.7188C70.2917 29.2188 70.4062 29.75 70.4688 30.3125C70.5521 30.875 70.5938 31.3646 70.5938 31.7812C70.9479 31.7812 71.2917 31.7812 71.625 31.7812C71.9792 31.7604 72.3125 31.75 72.625 31.75C73.8125 31.75 74.7188 32.0104 75.3438 32.5312C75.9688 33.0521 76.2812 33.9062 76.2812 35.0938C76.2812 35.5729 76.25 36.0729 76.1875 36.5938C76.125 37.1146 76.0521 37.6562 75.9688 38.2188C75.8854 38.7604 75.8125 39.3021 75.75 39.8438C75.6875 40.3854 75.6562 40.9167 75.6562 41.4375C75.6562 42.1875 75.7604 42.8125 75.9688 43.3125C76.1771 43.7917 76.4375 44.1771 76.75 44.4688C77.0625 44.7604 77.3958 44.9688 77.75 45.0938C78.1042 45.1979 78.4271 45.25 78.7188 45.25C79.6146 45.25 80.4583 44.9583 81.25 44.375C82.0417 43.7917 82.7708 43.0938 83.4375 42.2812C84.1042 41.4479 84.6979 40.5729 85.2188 39.6562C85.7604 38.7396 86.2083 37.9375 86.5625 37.25C86.6667 37.0625 86.8125 36.9167 87 36.8125C87.1875 36.7083 87.3854 36.6562 87.5938 36.6562C87.9688 36.6562 88.2604 36.7812 88.4688 37.0312C88.6771 37.2604 88.7812 37.5208 88.7812 37.8125C88.7812 38.0208 88.7396 38.2083 88.6562 38.375C88.1771 39.2292 87.6146 40.1979 86.9688 41.2812C86.3438 42.3438 85.625 43.3438 84.8125 44.2812C84 45.2188 83.0833 46.0104 82.0625 46.6562C81.0625 47.3021 79.9583 47.625 78.75 47.625C78 47.625 77.2917 47.4792 76.625 47.1875C75.9583 46.9167 75.375 46.5208 74.875 46C74.3958 45.4583 74.0104 44.8021 73.7188 44.0312C73.4271 43.2396 73.2812 42.3542 73.2812 41.375C73.2812 40.3333 73.3854 39.3021 73.5938 38.2812C73.8021 37.2396 73.9062 36.25 73.9062 35.3125C73.9062 34.9167 73.8125 34.625 73.625 34.4375C73.4583 34.2292 73.0729 34.125 72.4688 34.125C72.1771 34.125 71.8542 34.125 71.5 34.125C71.1667 34.125 70.8021 34.1354 70.4062 34.1562ZM68.3125 31.8438C68.3125 31.6979 68.3021 31.5104 68.2812 31.2812C68.2812 31.0312 68.2604 30.7917 68.2188 30.5625C68.1979 30.3333 68.1562 30.1354 68.0938 29.9688C68.0521 29.8021 68 29.7188 67.9375 29.7188C67.875 29.7188 67.7917 29.8021 67.6875 29.9688C67.6042 30.1146 67.5104 30.3021 67.4062 30.5312C67.3021 30.7396 67.2083 30.9688 67.125 31.2188C67.0417 31.4688 66.9792 31.6771 66.9375 31.8438H68.3125ZM99.2188 37.1562C98.9062 38.6146 98.4583 39.9792 97.875 41.25C97.2917 42.5 96.6667 43.5938 96 44.5312C95.3542 45.4688 94.6979 46.2083 94.0312 46.75C93.3646 47.2917 92.7917 47.5833 92.3125 47.625C91.7708 47.625 91.1667 47.3542 90.5 46.8125C89.8542 46.2708 89.2292 45.5208 88.625 44.5625C88.0417 43.5833 87.5521 42.4271 87.1562 41.0938C86.7604 39.7604 86.5625 38.3125 86.5625 36.75C86.5625 35.375 86.6771 34.3333 86.9062 33.625C87.1562 32.9167 87.3125 32.5104 87.375 32.4062C87.4792 32.2188 87.6146 32.0729 87.7812 31.9688C87.9688 31.8646 88.1771 31.8125 88.4062 31.8125C88.7604 31.8125 89.0417 31.9375 89.25 32.1875C89.4583 32.4167 89.5625 32.6771 89.5625 32.9688C89.5625 33.1771 89.5208 33.3542 89.4375 33.5C89.4167 33.5417 89.3229 33.8229 89.1562 34.3438C88.9896 34.8646 88.9062 35.6458 88.9062 36.6875C88.9062 37.9167 89.0312 39.0521 89.2812 40.0938C89.5312 41.1354 89.8333 42.0312 90.1875 42.7812C90.5417 43.5312 90.9062 44.125 91.2812 44.5625C91.6771 44.9792 92 45.1875 92.25 45.1875C92.4167 45.1875 92.6562 45.0312 92.9688 44.7188C93.3021 44.4062 93.6458 43.9792 94 43.4375C94.375 42.8958 94.75 42.25 95.125 41.5C95.5208 40.75 95.875 39.9375 96.1875 39.0625C96.5208 38.1667 96.7812 37.2292 96.9688 36.25C97.1771 35.25 97.2812 34.2396 97.2812 33.2188C97.2812 33.0104 97.2708 32.8125 97.25 32.625C97.25 32.4167 97.25 32.2083 97.25 32C97.25 31.6458 97.3542 31.3542 97.5625 31.125C97.7917 30.875 98.0833 30.75 98.4375 30.75C98.7083 30.75 98.9479 30.8333 99.1562 31C99.3854 31.1667 99.5312 31.3958 99.5938 31.6875C99.5938 31.6667 99.6354 31.8333 99.7188 32.1875C99.8021 32.5417 99.9375 33 100.125 33.5625C100.333 34.1042 100.583 34.6979 100.875 35.3438C101.188 35.9896 101.552 36.5938 101.969 37.1562C102.406 37.6979 102.906 38.1562 103.469 38.5312C104.031 38.9062 104.677 39.0938 105.406 39.0938C105.802 39.0938 106.146 39.0104 106.438 38.8438C106.729 38.6771 106.969 38.4896 107.156 38.2812C107.344 38.0729 107.479 37.875 107.562 37.6875C107.667 37.5 107.719 37.3958 107.719 37.375C107.802 37.1458 107.938 36.9688 108.125 36.8438C108.333 36.6979 108.562 36.625 108.812 36.625C109.146 36.625 109.427 36.75 109.656 37C109.885 37.2292 110 37.5 110 37.8125C110 37.9583 109.969 38.1042 109.906 38.25C109.781 38.5417 109.594 38.875 109.344 39.25C109.115 39.625 108.812 39.9792 108.438 40.3125C108.062 40.6458 107.615 40.9271 107.094 41.1562C106.594 41.3646 106.031 41.4688 105.406 41.4688C104.677 41.4688 104 41.3438 103.375 41.0938C102.75 40.8229 102.177 40.4896 101.656 40.0938C101.156 39.6771 100.698 39.2188 100.281 38.7188C99.8646 38.1979 99.5104 37.6771 99.2188 37.1562ZM111.5 43.5625C111.938 44.1667 112.5 44.6562 113.188 45.0312C113.875 45.3854 114.719 45.5625 115.719 45.5625C116.74 45.5625 117.667 45.3229 118.5 44.8438C119.333 44.3438 120.094 43.6979 120.781 42.9062C121.469 42.1146 122.083 41.2292 122.625 40.25C123.167 39.2708 123.656 38.2917 124.094 37.3125C124.198 37.0833 124.344 36.9167 124.531 36.8125C124.719 36.6875 124.927 36.625 125.156 36.625C125.51 36.625 125.792 36.75 126 37C126.229 37.25 126.344 37.5208 126.344 37.8125C126.344 37.9167 126.333 38.0104 126.312 38.0938C126.292 38.1562 126.26 38.2292 126.219 38.3125C124.781 41.4792 123.208 43.8646 121.5 45.4688C119.812 47.0729 117.896 47.8958 115.75 47.9375C114.375 47.9375 113.188 47.6667 112.188 47.125C111.188 46.6042 110.365 45.9271 109.719 45.0938C109.073 44.2396 108.594 43.2812 108.281 42.2188C107.969 41.1562 107.812 40.0938 107.812 39.0312C107.812 37.9688 107.938 36.9896 108.188 36.0938C108.458 35.1979 108.833 34.4167 109.312 33.75C109.812 33.0833 110.396 32.5625 111.062 32.1875C111.75 31.8125 112.5 31.625 113.312 31.625C113.792 31.625 114.26 31.7292 114.719 31.9375C115.198 32.125 115.625 32.4062 116 32.7812C116.375 33.1354 116.677 33.5729 116.906 34.0938C117.135 34.6146 117.25 35.2083 117.25 35.875C117.25 36.7292 117.104 37.5312 116.812 38.2812C116.521 39.0312 116.115 39.7292 115.594 40.375C115.094 41.0208 114.49 41.6146 113.781 42.1562C113.073 42.6979 112.312 43.1667 111.5 43.5625ZM110.562 41.5312C111.208 41.2604 111.792 40.9167 112.312 40.5C112.854 40.0833 113.312 39.625 113.688 39.125C114.062 38.625 114.354 38.1042 114.562 37.5625C114.771 37 114.875 36.4375 114.875 35.875C114.875 35.25 114.719 34.7812 114.406 34.4688C114.094 34.1354 113.729 33.9688 113.312 33.9688C112.75 33.9688 112.271 34.125 111.875 34.4375C111.479 34.75 111.156 35.1562 110.906 35.6562C110.656 36.1562 110.469 36.7188 110.344 37.3438C110.24 37.9479 110.188 38.5521 110.188 39.1562C110.188 39.5312 110.219 39.9271 110.281 40.3438C110.365 40.7604 110.458 41.1562 110.562 41.5312ZM136.25 37.9062C137.271 42.7188 138.75 45.125 140.688 45.125C141.438 45.125 142.156 44.8542 142.844 44.3125C143.531 43.75 144.167 43.0729 144.75 42.2812C145.354 41.4688 145.885 40.6146 146.344 39.7188C146.802 38.8229 147.177 38.0417 147.469 37.375C147.677 36.875 148.042 36.625 148.562 36.625C148.896 36.625 149.177 36.75 149.406 37C149.635 37.25 149.75 37.5208 149.75 37.8125C149.75 37.9792 149.719 38.125 149.656 38.25C149.51 38.6042 149.292 39.0833 149 39.6875C148.729 40.2708 148.385 40.9062 147.969 41.5938C147.573 42.2604 147.125 42.9479 146.625 43.6562C146.125 44.3646 145.573 45 144.969 45.5625C144.365 46.125 143.719 46.5938 143.031 46.9688C142.365 47.3229 141.656 47.5 140.906 47.5C139.51 47.5 138.312 47.0208 137.312 46.0625C136.312 45.0833 135.448 43.4792 134.719 41.25C133.719 43.375 132.708 44.9167 131.688 45.875C130.667 46.8333 129.562 47.3125 128.375 47.3125C127.75 47.3125 127.146 47.2083 126.562 47C125.979 46.8125 125.469 46.4896 125.031 46.0312C124.594 45.5729 124.24 44.9896 123.969 44.2812C123.698 43.5521 123.562 42.6667 123.562 41.625C123.562 40.1875 123.812 38.8646 124.312 37.6562C124.812 36.4479 125.458 35.4167 126.25 34.5625C127.042 33.6875 127.917 33.0104 128.875 32.5312C129.854 32.0521 130.823 31.8125 131.781 31.8125C132.094 31.8125 132.365 31.9271 132.594 32.1562C132.823 32.3646 132.938 32.6354 132.938 32.9688C132.938 33.2604 132.844 33.5208 132.656 33.75C132.469 33.9792 132.219 34.1146 131.906 34.1562C131.281 34.2396 130.615 34.4375 129.906 34.75C129.198 35.0625 128.542 35.5208 127.938 36.125C127.354 36.7083 126.865 37.4583 126.469 38.375C126.094 39.2917 125.906 40.3854 125.906 41.6562C125.906 42.6979 126.115 43.5104 126.531 44.0938C126.969 44.6771 127.594 44.9688 128.406 44.9688C128.74 44.9688 129.094 44.8854 129.469 44.7188C129.844 44.5312 130.24 44.1771 130.656 43.6562C131.094 43.1354 131.562 42.3958 132.062 41.4375C132.583 40.4792 133.156 39.2188 133.781 37.6562C133.427 35.8229 133.104 33.7083 132.812 31.3125C132.521 28.9167 132.375 26.2396 132.375 23.2812C132.375 21.9896 132.417 20.6458 132.5 19.25C132.583 17.8333 132.719 16.4583 132.906 15.125C133.094 13.7708 133.344 12.4896 133.656 11.2812C133.969 10.0729 134.344 9.01042 134.781 8.09375C135.24 7.17708 135.771 6.45833 136.375 5.9375C136.979 5.39583 137.667 5.125 138.438 5.125C139.125 5.125 139.708 5.3125 140.188 5.6875C140.667 6.0625 141.052 6.58333 141.344 7.25C141.656 7.91667 141.885 8.71875 142.031 9.65625C142.177 10.5938 142.25 11.625 142.25 12.75C142.25 15.1667 142.042 17.5833 141.625 20C141.208 22.4167 140.688 24.7292 140.062 26.9375C139.458 29.1458 138.812 31.1875 138.125 33.0625C137.438 34.9375 136.812 36.5521 136.25 37.9062ZM139.906 12.7188C139.906 12.1979 139.885 11.6354 139.844 11.0312C139.823 10.4271 139.75 9.86458 139.625 9.34375C139.521 8.80208 139.375 8.35417 139.188 8C139 7.64583 138.75 7.46875 138.438 7.46875C137.917 7.46875 137.427 7.92708 136.969 8.84375C136.531 9.76042 136.146 10.9688 135.812 12.4688C135.479 13.9479 135.208 15.6354 135 17.5312C134.812 19.4062 134.719 21.3021 134.719 23.2188C134.719 25.0521 134.792 26.8854 134.938 28.7188C135.083 30.5521 135.25 32.1875 135.438 33.625C136.042 32.0208 136.615 30.375 137.156 28.6875C137.698 26.9792 138.167 25.2396 138.562 23.4688C138.979 21.6979 139.302 19.9167 139.531 18.125C139.781 16.3125 139.906 14.5104 139.906 12.7188ZM177 31.9688C177 31.8854 177 31.8229 177 31.7812C177.021 31.7396 177.021 31.6667 177 31.5625C177.042 31.4792 177.083 31.3854 177.125 31.2812C177.188 31.1771 177.198 31.0729 177.156 30.9688C177.24 30.8229 177.292 30.7292 177.312 30.6875C177.354 30.6458 177.396 30.6042 177.438 30.5625C177.479 30.3958 177.51 30.2917 177.531 30.25C177.552 30.2083 177.573 30.1667 177.594 30.125C177.698 29.8542 177.771 29.6875 177.812 29.625C177.854 29.5417 177.875 29.4583 177.875 29.375L178.062 29.0625C178.208 28.8542 178.302 28.7396 178.344 28.7188C178.385 28.6771 178.406 28.6146 178.406 28.5312C178.469 28.4688 178.531 28.3958 178.594 28.3125C178.677 28.2292 178.708 28.1354 178.688 28.0312C178.896 27.8646 179.021 27.75 179.062 27.6875C179.125 27.6042 179.188 27.5521 179.25 27.5312C179.333 27.4271 179.385 27.3646 179.406 27.3438C179.448 27.3021 179.49 27.2604 179.531 27.2188C179.573 27.0312 179.708 26.8854 179.938 26.7812C180 26.6979 180.073 26.625 180.156 26.5625C180.24 26.5 180.302 26.4167 180.344 26.3125C180.573 26.1875 180.708 26.1042 180.75 26.0625C180.833 25.9583 180.927 25.8854 181.031 25.8438C181.135 25.7812 181.229 25.6979 181.312 25.5938C181.375 25.5729 181.438 25.5521 181.5 25.5312C181.562 25.5104 181.615 25.4583 181.656 25.375C181.823 25.3333 181.938 25.2812 182 25.2188C182.062 25.1562 182.135 25.1042 182.219 25.0625C182.51 24.875 182.729 24.7708 182.875 24.75C183.021 24.7083 183.156 24.6354 183.281 24.5312C183.448 24.4896 183.552 24.4688 183.594 24.4688C183.656 24.4688 183.708 24.4479 183.75 24.4062C183.938 24.3438 184.052 24.2917 184.094 24.25C184.24 24.2292 184.333 24.2083 184.375 24.1875C184.417 24.1458 184.469 24.1146 184.531 24.0938C184.594 24.0521 184.656 24.0417 184.719 24.0625C184.802 24.0625 184.875 24.0521 184.938 24.0312C185.25 23.9271 185.49 23.8646 185.656 23.8438C185.844 23.8021 186.042 23.7812 186.25 23.7812C186.417 23.7812 186.594 23.8021 186.781 23.8438C186.969 23.8646 187.146 23.8542 187.312 23.8125C187.583 23.875 187.74 23.9375 187.781 24C187.844 24.0625 187.938 24.0833 188.062 24.0625C188.125 24.125 188.188 24.1667 188.25 24.1875C188.333 24.2083 188.427 24.2396 188.531 24.2812C188.677 24.3854 188.771 24.4583 188.812 24.5C188.854 24.5417 188.896 24.5729 188.938 24.5938C189.104 24.7604 189.25 24.8438 189.375 24.8438C189.5 24.8438 189.594 24.8854 189.656 24.9688C189.635 25.1771 189.656 25.3333 189.719 25.4375C189.552 25.5 189.417 25.6146 189.312 25.7812C189.104 25.8438 188.969 25.9062 188.906 25.9688C188.865 26.0312 188.823 26.1042 188.781 26.1875C188.552 26.25 188.417 26.3021 188.375 26.3438C188.333 26.3646 188.281 26.3958 188.219 26.4375C188.135 26.5208 188.073 26.5729 188.031 26.5938C187.99 26.5938 187.948 26.6146 187.906 26.6562C187.719 26.7604 187.573 26.7917 187.469 26.75C187.385 26.7292 187.323 26.6875 187.281 26.625C187.26 26.5625 187.188 26.5521 187.062 26.5938C187.042 26.4688 187.01 26.3854 186.969 26.3438C186.927 26.2812 186.885 26.2292 186.844 26.1875C186.635 26.0208 186.51 25.9479 186.469 25.9688C186.448 25.9688 186.417 25.9583 186.375 25.9375C186.125 25.8333 185.948 25.7812 185.844 25.7812C185.719 25.6771 185.604 25.6354 185.5 25.6562C185.396 25.6562 185.292 25.6458 185.188 25.625C184.896 25.5833 184.698 25.5833 184.594 25.625C184.49 25.6458 184.396 25.6458 184.312 25.625C184.021 25.7083 183.812 25.75 183.688 25.75C183.562 25.7292 183.479 25.75 183.438 25.8125C183.354 25.8125 183.271 25.8125 183.188 25.8125C183.125 25.8125 183.042 25.8229 182.938 25.8438C182.792 25.9479 182.688 26 182.625 26C182.562 26 182.5 26.0104 182.438 26.0312C182.208 26.1354 182.094 26.1979 182.094 26.2188C182.094 26.2188 182.073 26.2292 182.031 26.25C181.656 26.4167 181.469 26.5833 181.469 26.75C181.323 26.8125 181.229 26.8958 181.188 27C181.083 27.0208 181.01 27.0625 180.969 27.125C180.927 27.1875 180.854 27.2396 180.75 27.2812C180.625 27.4896 180.552 27.625 180.531 27.6875C180.51 27.7292 180.458 27.7604 180.375 27.7812C180.229 27.9896 180.125 28.1979 180.062 28.4062C180 28.5938 179.927 28.7188 179.844 28.7812C179.76 28.8438 179.729 28.9271 179.75 29.0312C179.667 29.1771 179.615 29.2812 179.594 29.3438C179.573 29.3854 179.542 29.4271 179.5 29.4688C179.438 29.7396 179.375 29.9167 179.312 30C179.271 30.0625 179.271 30.125 179.312 30.1875C179.229 30.2917 179.188 30.4375 179.188 30.625C179.083 30.8125 179.01 30.9271 178.969 30.9688C178.927 31.0104 178.917 31.0833 178.938 31.1875C178.917 31.5417 178.885 31.8021 178.844 31.9688C178.802 32.1354 178.781 32.3125 178.781 32.5C178.635 32.7083 178.573 32.8333 178.594 32.875C178.615 32.8958 178.625 32.9271 178.625 32.9688C178.562 33.1771 178.531 33.2917 178.531 33.3125C178.552 33.3333 178.542 33.3646 178.5 33.4062L178.281 34.3125C178.24 34.6667 178.188 34.9271 178.125 35.0938C178.083 35.2396 178.073 35.3854 178.094 35.5312C178.01 35.7396 177.969 35.8854 177.969 35.9688C177.99 36.0521 177.969 36.125 177.906 36.1875C177.885 36.5625 177.896 36.9167 177.938 37.25C177.854 37.6667 177.854 37.9479 177.938 38.0938C177.833 38.1979 177.802 38.3229 177.844 38.4688C177.906 38.6146 177.906 38.7292 177.844 38.8125C177.885 38.8958 177.906 39 177.906 39.125C177.906 39.25 177.906 39.375 177.906 39.5C177.865 39.6667 177.844 39.7708 177.844 39.8125C177.844 39.8333 177.854 39.8646 177.875 39.9062C177.938 40.1146 177.958 40.2708 177.938 40.375C177.917 40.4583 177.906 40.5521 177.906 40.6562C177.927 40.9062 177.948 41.0625 177.969 41.125C178.01 41.1667 178.021 41.2188 178 41.2812C177.917 41.4479 177.896 41.5417 177.938 41.5625C177.979 41.5833 178.01 41.6146 178.031 41.6562C178.031 41.8438 177.979 41.9583 177.875 42C177.917 42.3958 177.958 42.6667 178 42.8125C178.042 42.9583 178.042 43.0833 178 43.1875C178.083 43.4167 178.125 43.5833 178.125 43.6875C178.146 43.7917 178.177 43.875 178.219 43.9375C178.156 44.125 178.135 44.25 178.156 44.3125C178.177 44.375 178.167 44.4271 178.125 44.4688C178.271 44.6771 178.333 44.8125 178.312 44.875C178.312 44.9375 178.323 45.0104 178.344 45.0938C178.427 45.2396 178.458 45.3333 178.438 45.375C178.438 45.4167 178.458 45.4271 178.5 45.4062C178.562 45.2604 178.625 45.125 178.688 45C178.771 44.8542 178.833 44.6979 178.875 44.5312C178.958 44.4062 179.021 44.3333 179.062 44.3125C179.125 44.2917 179.177 44.2604 179.219 44.2188C179.344 44.0104 179.427 43.8229 179.469 43.6562C179.51 43.4896 179.594 43.3646 179.719 43.2812C179.823 43.0729 179.885 42.9375 179.906 42.875C179.948 42.7917 180.021 42.7292 180.125 42.6875C180.208 42.5625 180.26 42.4583 180.281 42.375C180.302 42.2917 180.365 42.2292 180.469 42.1875C180.49 42.0833 180.531 41.9896 180.594 41.9062C180.677 41.8021 180.771 41.7083 180.875 41.625C181 41.4583 181.125 41.3646 181.25 41.3438C181.375 41.2604 181.438 41.1979 181.438 41.1562C181.458 41.0938 181.49 41.0312 181.531 40.9688C181.615 41.0104 181.677 41 181.719 40.9375C181.76 40.875 181.812 40.8229 181.875 40.7812C181.979 40.7188 182.073 40.6562 182.156 40.5938C182.26 40.5312 182.333 40.4583 182.375 40.375C182.583 40.3125 182.708 40.2604 182.75 40.2188C182.792 40.1771 182.844 40.1354 182.906 40.0938C183.031 40.0312 183.146 39.9896 183.25 39.9688C183.375 39.9271 183.469 39.875 183.531 39.8125C183.635 39.8542 183.74 39.8438 183.844 39.7812C183.948 39.7188 184.052 39.6562 184.156 39.5938C184.26 39.5521 184.448 39.5312 184.719 39.5312C184.99 39.5312 185.219 39.5417 185.406 39.5625C185.552 39.6875 185.635 39.7604 185.656 39.7812C185.698 39.8021 185.75 39.8333 185.812 39.875C186 40.0625 186.104 40.1771 186.125 40.2188C186.167 40.2396 186.208 40.2708 186.25 40.3125C186.292 40.4583 186.333 40.5729 186.375 40.6562C186.417 40.7188 186.49 40.7708 186.594 40.8125C186.615 40.875 186.635 40.9479 186.656 41.0312C186.677 41.0938 186.719 41.1458 186.781 41.1875C186.781 41.3125 186.802 41.4062 186.844 41.4688C186.906 41.5312 186.938 41.625 186.938 41.75C186.979 42.0417 187.021 42.2812 187.062 42.4688C187.104 42.6354 187.104 42.8021 187.062 42.9688C187.042 43.2188 187.021 43.3646 187 43.4062C186.979 43.4271 186.969 43.4583 186.969 43.5C186.99 43.6875 186.99 43.7917 186.969 43.8125C186.948 43.8333 186.938 43.8646 186.938 43.9062C186.917 43.9479 186.917 44 186.938 44.0625C186.958 44.125 186.969 44.1875 186.969 44.25C186.865 44.5208 186.812 44.7083 186.812 44.8125C186.833 44.8958 186.833 44.9896 186.812 45.0938C186.708 45.3229 186.635 45.4688 186.594 45.5312C186.552 45.5938 186.542 45.6771 186.562 45.7812C186.521 45.8854 186.469 45.9688 186.406 46.0312C186.344 46.0938 186.323 46.2083 186.344 46.375C186.24 46.4792 186.156 46.625 186.094 46.8125C186.052 47 185.969 47.1458 185.844 47.25C185.74 47.5417 185.677 47.6979 185.656 47.7188C185.635 47.7396 185.604 47.7708 185.562 47.8125C185.521 47.8542 185.469 47.9062 185.406 47.9688C185.344 48.0312 185.281 48.1042 185.219 48.1875C185.094 48.3958 185 48.5 184.938 48.5C184.812 48.7292 184.729 48.875 184.688 48.9375C184.667 49 184.615 49.0521 184.531 49.0938C184.51 49.1771 184.458 49.2396 184.375 49.2812C184.312 49.3229 184.271 49.3958 184.25 49.5C184.167 49.5417 184.094 49.5938 184.031 49.6562C183.99 49.7396 183.938 49.8125 183.875 49.875C183.667 50.0208 183.542 50.1042 183.5 50.125C183.458 50.1667 183.417 50.2083 183.375 50.25C183.25 50.4167 183.177 50.5104 183.156 50.5312C183.01 50.5938 182.896 50.6562 182.812 50.7188C182.75 50.8021 182.688 50.8854 182.625 50.9688C182.271 51.0312 182.031 51.1875 181.906 51.4375C181.781 51.4583 181.698 51.5417 181.656 51.6875C181.531 51.7292 181.427 51.7812 181.344 51.8438C181.26 51.9062 181.167 51.9583 181.062 52C180.833 52.1667 180.677 52.2292 180.594 52.1875C180.531 52.1667 180.458 52.1875 180.375 52.25C180.125 52.4792 180 52.6354 180 52.7188C179.896 52.7396 179.823 52.7708 179.781 52.8125C179.74 52.875 179.698 52.9479 179.656 53.0312C179.469 53.0312 179.344 53.0521 179.281 53.0938C179.24 53.1354 179.208 53.1875 179.188 53.25C179.021 53.25 178.885 53.2708 178.781 53.3125C178.698 53.3542 178.594 53.3958 178.469 53.4375C178.344 53.5417 178.25 53.6042 178.188 53.625C178.125 53.6458 178.052 53.6562 177.969 53.6562C177.781 53.6562 177.656 53.6667 177.594 53.6875C177.531 53.7292 177.469 53.75 177.406 53.75C177.281 53.5417 177.188 53.4375 177.125 53.4375C177.062 53.4375 177.042 53.3854 177.062 53.2812C177.083 52.9479 177.167 52.7812 177.312 52.7812C177.354 52.6979 177.396 52.625 177.438 52.5625C177.479 52.5208 177.521 52.4479 177.562 52.3438C177.521 52.2396 177.5 52.125 177.5 52C177.5 51.8958 177.479 51.7917 177.438 51.6875C177.417 51.5833 177.385 51.4896 177.344 51.4062C177.302 51.3229 177.302 51.2292 177.344 51.125C177.281 50.6458 177.198 50.3125 177.094 50.125C177.01 49.9375 176.969 49.7188 176.969 49.4688C176.927 49.2812 176.885 49.1562 176.844 49.0938C176.823 49.0521 176.823 49.0104 176.844 48.9688C176.802 48.7604 176.75 48.625 176.688 48.5625C176.646 48.4583 176.625 48.3542 176.625 48.25C176.646 48.1667 176.625 48.0833 176.562 48C176.604 47.875 176.594 47.75 176.531 47.625C176.49 47.5 176.448 47.3854 176.406 47.2812L176.312 46.9062C176.292 46.6562 176.271 46.5104 176.25 46.4688C176.25 46.4271 176.271 46.3958 176.312 46.375C176.229 46.1875 176.219 46.0312 176.281 45.9062C176.198 45.5729 176.135 45.3542 176.094 45.25C176.073 45.1458 176.042 45.0312 176 44.9062C176 44.7188 176 44.5521 176 44.4062C176 44.2396 175.969 44.1042 175.906 44C175.906 43.7292 175.906 43.5312 175.906 43.4062C175.927 43.2812 175.917 43.1667 175.875 43.0625C175.875 42.7708 175.854 42.5104 175.812 42.2812C175.771 41.9688 175.75 41.7812 175.75 41.7188C175.771 41.6354 175.781 41.5417 175.781 41.4375C175.781 41.375 175.781 41.3125 175.781 41.25C175.802 41.1667 175.792 41.0729 175.75 40.9688C175.708 40.6771 175.708 40.4062 175.75 40.1562C175.792 39.9062 175.781 39.7083 175.719 39.5625C175.76 39.5 175.781 39.4271 175.781 39.3438C175.781 39.2396 175.781 39.1458 175.781 39.0625C175.802 38.8333 175.802 38.6979 175.781 38.6562C175.781 38.5938 175.781 38.5417 175.781 38.5C175.781 38.3958 175.792 38.3125 175.812 38.25C175.854 38.1667 175.875 38.0833 175.875 38C175.875 37.7917 175.885 37.6562 175.906 37.5938C175.927 37.5104 175.948 37.4271 175.969 37.3438C175.969 37.0312 175.979 36.8125 176 36.6875C176.042 36.5417 176.073 36.4062 176.094 36.2812L176.188 35.6875C176.208 35.5625 176.208 35.4688 176.188 35.4062C176.188 35.3229 176.219 35.25 176.281 35.1875C176.24 35.125 176.229 35.0729 176.25 35.0312C176.292 34.9896 176.323 34.9271 176.344 34.8438C176.385 34.7604 176.406 34.6771 176.406 34.5938C176.406 34.4896 176.448 34.3958 176.531 34.3125C176.49 34.2083 176.49 34.1354 176.531 34.0938C176.573 34.0312 176.604 33.9583 176.625 33.875C176.667 33.75 176.677 33.6354 176.656 33.5312C176.656 33.4062 176.688 33.3021 176.75 33.2188C176.75 32.9896 176.76 32.875 176.781 32.875C176.802 32.875 176.823 32.8542 176.844 32.8125L177 31.9688ZM183.344 48.7188C183.469 48.5729 183.542 48.4792 183.562 48.4375C183.583 48.4167 183.604 48.3854 183.625 48.3438C183.667 48.2812 183.698 48.2083 183.719 48.125C183.74 48.0417 183.76 47.9792 183.781 47.9375C184.031 47.5625 184.167 47.2083 184.188 46.875C184.271 46.875 184.323 46.8333 184.344 46.75C184.365 46.6458 184.354 46.5729 184.312 46.5312C184.417 46.2812 184.5 46.0938 184.562 45.9688C184.583 45.7812 184.604 45.6875 184.625 45.6875C184.646 45.6875 184.656 45.6667 184.656 45.625C184.635 45.3958 184.625 45.2812 184.625 45.2812C184.646 45.2812 184.656 45.2708 184.656 45.25C184.698 45.1042 184.708 45.0208 184.688 45C184.688 44.9583 184.688 44.9271 184.688 44.9062C184.729 44.8229 184.75 44.75 184.75 44.6875C184.771 44.6042 184.76 44.5104 184.719 44.4062C184.802 44.3021 184.844 44.1458 184.844 43.9375C184.802 43.7708 184.771 43.6354 184.75 43.5312C184.729 43.4271 184.74 43.3125 184.781 43.1875C184.719 43.1042 184.677 43 184.656 42.875C184.635 42.75 184.615 42.625 184.594 42.5C184.448 42.3333 184.375 42.2396 184.375 42.2188C184.292 42.0938 184.24 41.9792 184.219 41.875C184.135 41.8542 184.073 41.8333 184.031 41.8125C184.01 41.7708 183.969 41.7396 183.906 41.7188C183.74 41.5521 183.625 41.4479 183.562 41.4062C183.521 41.3646 183.479 41.3333 183.438 41.3125C183.333 41.2917 183.229 41.2917 183.125 41.3125C183.021 41.3333 182.906 41.3229 182.781 41.2812C182.615 41.4062 182.521 41.4583 182.5 41.4375C182.5 41.4167 182.479 41.4062 182.438 41.4062C182.396 41.4688 182.354 41.5417 182.312 41.625C182.292 41.6875 182.24 41.7292 182.156 41.75C182.031 41.9375 181.917 42.0625 181.812 42.125C181.646 42.375 181.521 42.5729 181.438 42.7188C181.354 42.8438 181.312 42.9896 181.312 43.1562C181.167 43.3854 181.073 43.5104 181.031 43.5312C181.01 43.5521 180.979 43.5833 180.938 43.625C180.958 43.8125 180.927 43.9375 180.844 44C180.76 44.0417 180.698 44.1146 180.656 44.2188C180.635 44.4062 180.615 44.5208 180.594 44.5625C180.573 44.6042 180.583 44.6667 180.625 44.75C180.521 44.8958 180.469 44.9896 180.469 45.0312C180.49 45.0521 180.5 45.0833 180.5 45.125C180.354 45.3542 180.271 45.5312 180.25 45.6562C180.25 45.7812 180.219 45.8854 180.156 45.9688C180.156 46.1146 180.146 46.2083 180.125 46.25C180.104 46.2708 180.094 46.3125 180.094 46.375C180.073 46.5208 180.052 46.6146 180.031 46.6562C180.031 46.6979 180.01 46.7292 179.969 46.75C179.865 47.125 179.781 47.4896 179.719 47.8438C179.74 47.9896 179.729 48.0833 179.688 48.125C179.667 48.1667 179.656 48.2188 179.656 48.2812C179.677 48.4688 179.688 48.6042 179.688 48.6875C179.667 48.8125 179.656 48.9583 179.656 49.125C179.656 49.3125 179.656 49.4583 179.656 49.5625C179.656 49.7917 179.656 49.9167 179.656 49.9375C179.677 49.9583 179.688 49.9896 179.688 50.0312C179.708 50.2604 179.729 50.4062 179.75 50.4688C179.771 50.5521 179.781 50.6146 179.781 50.6562L179.844 51.2188C179.906 51.3021 179.969 51.375 180.031 51.4375C180.094 51.5208 180.115 51.6458 180.094 51.8125C180.198 51.8125 180.271 51.7812 180.312 51.7188C180.354 51.6771 180.406 51.625 180.469 51.5625C180.573 51.5208 180.667 51.4583 180.75 51.375C180.833 51.2917 180.927 51.2083 181.031 51.125C181.177 51.1042 181.281 51.0521 181.344 50.9688C181.406 50.8854 181.51 50.8333 181.656 50.8125C181.781 50.625 181.875 50.5 181.938 50.4375C182 50.375 182.062 50.3125 182.125 50.25L182.375 49.9375C182.438 49.8958 182.49 49.8438 182.531 49.7812C182.573 49.7396 182.615 49.6979 182.656 49.6562C182.698 49.5938 182.74 49.5417 182.781 49.5C182.823 49.4583 182.865 49.4062 182.906 49.3438C183.052 49.2188 183.135 49.1458 183.156 49.125C183.177 49.1042 183.208 49.1042 183.25 49.125C183.271 49.0417 183.302 48.9792 183.344 48.9375C183.385 48.8958 183.385 48.8229 183.344 48.7188ZM198.219 56.5625C198.156 56.5833 198.083 56.6042 198 56.625C197.938 56.6667 197.875 56.7083 197.812 56.75C197.646 56.875 197.542 56.9375 197.5 56.9375C197.354 57.0833 197.271 57.1667 197.25 57.1875C197.167 57.2917 197.094 57.3438 197.031 57.3438C196.969 57.3646 196.917 57.4062 196.875 57.4688C196.688 57.5729 196.5 57.6562 196.312 57.7188C196.146 57.7812 196 57.8646 195.875 57.9688C195.729 57.9896 195.646 58.0104 195.625 58.0312C195.625 58.0729 195.604 58.1146 195.562 58.1562C195.458 58.1771 195.354 58.2083 195.25 58.25C195.167 58.3125 195.073 58.375 194.969 58.4375C194.802 58.5417 194.688 58.5833 194.625 58.5625C194.583 58.5625 194.531 58.5729 194.469 58.5938C194.427 58.6354 194.375 58.6667 194.312 58.6875C194.271 58.7292 194.229 58.7812 194.188 58.8438C193.917 58.8646 193.729 58.8958 193.625 58.9375C193.521 58.9792 193.438 59.0208 193.375 59.0625C193.271 59.0208 193.188 59.0104 193.125 59.0312C193.062 59.0729 192.99 59.1042 192.906 59.125C192.76 59.1042 192.656 59.0938 192.594 59.0938C192.552 59.1146 192.5 59.125 192.438 59.125C192.333 59.0625 192.25 59.0417 192.188 59.0625C192.146 59.0833 192.115 59.0729 192.094 59.0312C191.74 59.0521 191.552 59.0833 191.531 59.125C191.323 59.0208 191.062 59 190.75 59.0625C190.583 58.9583 190.406 58.8958 190.219 58.875C190.031 58.875 189.865 58.8021 189.719 58.6562C189.615 58.6562 189.552 58.6458 189.531 58.625C189.51 58.625 189.458 58.6354 189.375 58.6562C189.333 58.6146 189.271 58.5833 189.188 58.5625C189.104 58.5417 189.042 58.4896 189 58.4062C188.833 58.1979 188.74 58.1042 188.719 58.125C188.698 58.1667 188.667 58.1771 188.625 58.1562C188.438 57.9688 188.312 57.8542 188.25 57.8125C188.167 57.7708 188.115 57.7083 188.094 57.625C187.99 57.625 187.917 57.5938 187.875 57.5312C187.833 57.4896 187.781 57.4583 187.719 57.4375C187.698 57.3125 187.646 57.2292 187.562 57.1875C187.479 57.1667 187.417 57.1354 187.375 57.0938C187.354 56.9896 187.344 56.8854 187.344 56.7812C187.323 56.6771 187.281 56.5938 187.219 56.5312C187.24 56.4271 187.219 56.3229 187.156 56.2188C187.094 56.1146 187.052 56.0104 187.031 55.9062C187.073 55.8646 187.094 55.7812 187.094 55.6562C187.094 55.5521 187.115 55.4792 187.156 55.4375C187.156 55.375 187.146 55.2917 187.125 55.1875C187.104 55.1042 187.125 55.0521 187.188 55.0312C187.188 54.8438 187.198 54.6979 187.219 54.5938C187.219 54.5104 187.24 54.4688 187.281 54.4688C187.302 54.3646 187.323 54.2812 187.344 54.2188C187.365 54.1562 187.396 54.0938 187.438 54.0312C187.354 53.8646 187.344 53.7604 187.406 53.7188C187.469 53.6771 187.542 53.6042 187.625 53.5C187.75 53.3333 187.833 53.2396 187.875 53.2188C187.896 53.2188 187.927 53.2188 187.969 53.2188C187.99 52.9896 188.052 52.875 188.156 52.875C188.135 52.75 188.167 52.6562 188.25 52.5938C188.312 52.5312 188.365 52.4479 188.406 52.3438C188.49 52.1979 188.573 52.1042 188.656 52.0625C188.74 52.0208 188.802 51.9479 188.844 51.8438C188.927 51.8229 188.969 51.7708 188.969 51.6875C188.99 51.625 189.052 51.5833 189.156 51.5625C189.281 51.375 189.333 51.2708 189.312 51.25C189.312 51.25 189.323 51.2292 189.344 51.1875C189.573 51.125 189.729 51.0729 189.812 51.0312C189.917 50.9896 190.021 50.9688 190.125 50.9688C190.104 51.1979 190.115 51.3125 190.156 51.3125C190.219 51.3125 190.25 51.3333 190.25 51.375C190.188 51.6042 190.146 51.7396 190.125 51.7812C190.104 51.8438 190.083 51.9062 190.062 51.9688C189.938 51.9688 189.854 51.9896 189.812 52.0312C189.792 52.0729 189.74 52.0938 189.656 52.0938C189.698 52.2188 189.688 52.2917 189.625 52.3125C189.562 52.3542 189.562 52.4271 189.625 52.5312C189.5 52.7188 189.427 52.8229 189.406 52.8438C189.406 52.8854 189.406 52.9167 189.406 52.9375C189.281 53.1042 189.208 53.1979 189.188 53.2188C189.167 53.2604 189.135 53.2917 189.094 53.3125C189.156 53.5 189.167 53.5938 189.125 53.5938C189.104 53.6146 189.094 53.6458 189.094 53.6875C189.094 53.8542 189.083 53.9479 189.062 53.9688C189.062 54.0104 189.052 54.0729 189.031 54.1562C188.99 54.3229 188.969 54.4375 188.969 54.5C188.99 54.5625 189 54.625 189 54.6875C189.042 54.9583 189.062 55.1146 189.062 55.1562C189.083 55.1979 189.104 55.2604 189.125 55.3438C189.25 55.5521 189.344 55.6979 189.406 55.7812C189.469 55.8646 189.5 55.9792 189.5 56.125C189.708 56.2917 189.823 56.3854 189.844 56.4062C189.885 56.4479 189.927 56.4896 189.969 56.5312C190.073 56.5312 190.135 56.5625 190.156 56.625C190.198 56.6875 190.271 56.7083 190.375 56.6875C190.542 56.875 190.646 56.9688 190.688 56.9688C190.75 56.9688 190.802 57.0104 190.844 57.0938C190.948 57.0521 191.031 57.0521 191.094 57.0938C191.177 57.1354 191.25 57.1771 191.312 57.2188C191.521 57.2812 191.656 57.3229 191.719 57.3438C191.781 57.3646 191.823 57.375 191.844 57.375C192.135 57.4167 192.365 57.4479 192.531 57.4688C192.698 57.4896 192.865 57.5104 193.031 57.5312C193.344 57.5729 193.562 57.5833 193.688 57.5625C193.812 57.5625 193.938 57.5625 194.062 57.5625C194.125 57.5625 194.188 57.5729 194.25 57.5938C194.312 57.6146 194.365 57.6042 194.406 57.5625C194.448 57.5208 194.521 57.5 194.625 57.5C194.729 57.5208 194.802 57.5 194.844 57.4375C194.969 57.4792 195.073 57.4688 195.156 57.4062C195.24 57.3438 195.333 57.3021 195.438 57.2812L195.719 57.0625C195.885 56.8958 196.062 56.7604 196.25 56.6562C196.458 56.5729 196.604 56.4167 196.688 56.1875C196.833 56.1042 196.927 56.0417 196.969 56C197.01 55.9792 197.01 55.9271 196.969 55.8438C197.073 55.8229 197.125 55.7604 197.125 55.6562C197.146 55.5729 197.208 55.5208 197.312 55.5C197.438 55.3333 197.51 55.1771 197.531 55.0312C197.573 54.8854 197.656 54.7812 197.781 54.7188C197.781 54.6146 197.802 54.5312 197.844 54.4688C197.906 54.4062 197.958 54.3438 198 54.2812C197.958 54.1146 197.969 53.9583 198.031 53.8125C198.094 53.6875 198.094 53.5417 198.031 53.375C198.135 53.3542 198.188 53.3021 198.188 53.2188C198.208 53.1354 198.25 53.0729 198.312 53.0312C198.292 52.8646 198.302 52.7292 198.344 52.625C198.385 52.5208 198.396 52.3854 198.375 52.2188C198.438 52.1562 198.469 52.0729 198.469 51.9688C198.469 51.8854 198.479 51.7604 198.5 51.5938C198.542 51.3646 198.552 51.2396 198.531 51.2188C198.531 51.2188 198.531 51.1771 198.531 51.0938C198.552 51.0104 198.573 50.9375 198.594 50.875C198.635 50.8125 198.635 50.7396 198.594 50.6562C198.677 50.4271 198.708 50.3021 198.688 50.2812C198.688 50.2812 198.688 50.2604 198.688 50.2188C198.688 50.1146 198.677 50.0208 198.656 49.9375C198.656 49.875 198.677 49.8125 198.719 49.75C198.698 49.5833 198.677 49.4688 198.656 49.4062C198.656 49.3438 198.656 49.2917 198.656 49.25C198.719 49.2083 198.74 49.125 198.719 49C198.719 48.875 198.74 48.7917 198.781 48.75C198.719 48.5625 198.698 48.4167 198.719 48.3125C198.74 48.2292 198.729 48.1458 198.688 48.0625C198.75 48.0208 198.76 47.9479 198.719 47.8438C198.698 47.7604 198.719 47.6771 198.781 47.5938C198.719 47.3646 198.698 47.2292 198.719 47.1875C198.74 47.1458 198.74 47.0729 198.719 46.9688C198.677 46.3229 198.708 45.8021 198.812 45.4062C198.792 45.1146 198.76 44.9583 198.719 44.9375C198.698 44.9167 198.688 44.8854 198.688 44.8438C198.688 44.7604 198.698 44.6979 198.719 44.6562C198.74 44.5938 198.74 44.5312 198.719 44.4688C198.719 44.3646 198.698 44.2708 198.656 44.1875C198.635 44.1042 198.646 44.0104 198.688 43.9062C198.625 43.7812 198.594 43.6979 198.594 43.6562C198.615 43.5938 198.625 43.5417 198.625 43.5C198.625 43.3958 198.625 43.2812 198.625 43.1562C198.625 43.0312 198.646 42.9375 198.688 42.875C198.688 42.6667 198.656 42.5104 198.594 42.4062C198.552 42.2812 198.573 42.1667 198.656 42.0625C198.615 41.6667 198.583 41.3438 198.562 41.0938C198.562 40.8438 198.583 40.6042 198.625 40.375C198.562 40.2083 198.542 40.1146 198.562 40.0938C198.583 40.0521 198.594 40.0104 198.594 39.9688C198.531 39.7604 198.5 39.625 198.5 39.5625C198.521 39.4792 198.51 39.4062 198.469 39.3438C198.385 39.3229 198.323 39.3438 198.281 39.4062C198.26 39.4688 198.229 39.5312 198.188 39.5938C198.104 39.7396 198.042 39.8333 198 39.875C197.958 39.9167 197.917 39.9583 197.875 40C197.833 40.0417 197.792 40.0938 197.75 40.1562C197.708 40.1979 197.646 40.2292 197.562 40.25C197.458 40.3958 197.396 40.4792 197.375 40.5C197.375 40.5208 197.375 40.5417 197.375 40.5625C197.271 40.7083 197.208 40.8021 197.188 40.8438C197.188 40.8854 197.167 40.9271 197.125 40.9688L196.875 41.5C196.75 41.625 196.667 41.6979 196.625 41.7188C196.604 41.7396 196.604 41.7812 196.625 41.8438C196.438 42.0521 196.333 42.1979 196.312 42.2812C196.292 42.3646 196.24 42.4271 196.156 42.4688C195.969 42.6562 195.875 42.7917 195.875 42.875C195.792 42.8958 195.729 42.9271 195.688 42.9688C195.646 43.0104 195.583 43.0521 195.5 43.0938C195.333 43.2396 195.24 43.3229 195.219 43.3438C195.198 43.3646 195.167 43.375 195.125 43.375C194.896 43.5208 194.771 43.6042 194.75 43.625C194.729 43.625 194.698 43.6458 194.656 43.6875C194.51 43.8125 194.427 43.875 194.406 43.875C194.406 43.8542 194.385 43.8542 194.344 43.875C194.302 43.9167 194.25 43.9583 194.188 44C194.146 44.0417 194.104 44.0833 194.062 44.125C193.896 44.1875 193.792 44.2396 193.75 44.2812C193.729 44.3021 193.698 44.3333 193.656 44.375C193.448 44.4792 193.312 44.5625 193.25 44.625C193.188 44.6875 193.083 44.7188 192.938 44.7188C192.833 44.7604 192.75 44.8125 192.688 44.875C192.625 44.9167 192.531 44.9375 192.406 44.9375C192.177 44.9792 192.021 45 191.938 45C191.854 45 191.792 44.9583 191.75 44.875C191.479 44.7917 191.302 44.7292 191.219 44.6875C191.01 44.4583 190.896 44.3021 190.875 44.2188C190.854 44.1354 190.844 44.0417 190.844 43.9375C190.823 43.8542 190.823 43.7708 190.844 43.6875C190.865 43.6042 190.854 43.5312 190.812 43.4688C190.771 43.4271 190.76 43.375 190.781 43.3125C190.823 43.25 190.823 43.1875 190.781 43.125C190.781 43 190.771 42.9167 190.75 42.875C190.729 42.8125 190.719 42.75 190.719 42.6875C190.698 42.5833 190.688 42.4896 190.688 42.4062C190.708 42.3021 190.708 42.1667 190.688 42C190.688 41.8958 190.688 41.8125 190.688 41.75C190.688 41.6875 190.667 41.6354 190.625 41.5938C190.646 41.4062 190.656 41.3021 190.656 41.2812C190.677 41.2604 190.677 41.25 190.656 41.25C190.635 41.0833 190.625 40.9583 190.625 40.875C190.625 40.7083 190.635 40.5833 190.656 40.5C190.677 40.3958 190.646 40.3229 190.562 40.2812C190.625 40.1146 190.635 39.9896 190.594 39.9062C190.573 39.8021 190.562 39.6875 190.562 39.5625C190.583 39.4583 190.583 39.3542 190.562 39.25C190.542 39.125 190.531 39.0104 190.531 38.9062C190.49 38.6562 190.427 38.4896 190.344 38.4062C190.281 38.3021 190.271 38.2083 190.312 38.125C190.188 37.9583 190.083 37.7708 190 37.5625C189.917 37.3542 189.729 37.2292 189.438 37.1875C189.25 37 189.062 36.9062 188.875 36.9062H188.344C188.24 36.9062 188.177 36.9167 188.156 36.9375C188.115 36.9375 188.052 36.9271 187.969 36.9062C187.76 36.8438 187.667 36.7917 187.688 36.75C187.688 36.6875 187.667 36.6562 187.625 36.6562C187.792 36.4896 187.885 36.3854 187.906 36.3438C187.906 36.3021 187.938 36.2917 188 36.3125C188.292 36.1042 188.49 35.9792 188.594 35.9375C188.698 35.875 188.833 35.8438 189 35.8438C189.083 35.7604 189.146 35.7083 189.188 35.6875C189.25 35.6458 189.323 35.625 189.406 35.625C189.51 35.5625 189.646 35.5312 189.812 35.5312C189.979 35.5104 190.115 35.4479 190.219 35.3438C190.281 35.3854 190.354 35.4167 190.438 35.4375C190.521 35.4583 190.583 35.4896 190.625 35.5312C190.854 35.5521 190.979 35.5833 191 35.625C191.021 35.6667 191.052 35.6875 191.094 35.6875C191.26 35.7292 191.365 35.7812 191.406 35.8438C191.615 35.9062 191.74 35.9583 191.781 36C191.844 36.0208 191.896 36.0521 191.938 36.0938C192.125 36.3021 192.219 36.4271 192.219 36.4688C192.219 36.5104 192.25 36.5417 192.312 36.5625C192.271 36.625 192.281 36.6979 192.344 36.7812C192.406 36.8438 192.458 36.9271 192.5 37.0312C192.521 37.1562 192.531 37.2812 192.531 37.4062C192.531 37.5104 192.604 37.5729 192.75 37.5938C192.75 37.7604 192.75 37.9375 192.75 38.125C192.833 38.2083 192.844 38.3229 192.781 38.4688C192.719 38.5938 192.74 38.6979 192.844 38.7812C192.823 39.0312 192.823 39.2708 192.844 39.5C192.865 39.7708 192.854 39.9375 192.812 40C192.792 40.0625 192.802 40.1354 192.844 40.2188V40.5938C192.844 40.7188 192.854 40.8542 192.875 41C192.896 41.125 192.875 41.2188 192.812 41.2812C192.854 41.4479 192.875 41.6146 192.875 41.7812C192.875 41.9271 192.885 42.0208 192.906 42.0625C192.948 42.1042 192.948 42.1458 192.906 42.1875C192.969 42.4583 193.01 42.6667 193.031 42.8125C193.052 42.9375 193.115 43.0208 193.219 43.0625C193.719 43.25 194.021 43.1667 194.125 42.8125L194.406 42.4688C194.448 42.3229 194.51 42.2083 194.594 42.125C194.677 42.0417 194.729 41.9167 194.75 41.75C194.938 41.6042 195.031 41.5104 195.031 41.4688C195.177 41.3229 195.281 41.2396 195.344 41.2188C195.49 41.0312 195.562 40.9062 195.562 40.8438C195.583 40.7604 195.635 40.7083 195.719 40.6875C195.781 40.4792 195.833 40.375 195.875 40.375C195.938 40.3542 195.969 40.3021 195.969 40.2188C196.094 40.0938 196.219 39.9688 196.344 39.8438C196.385 39.7396 196.427 39.6667 196.469 39.625C196.51 39.5833 196.521 39.5312 196.5 39.4688C196.625 39.2604 196.698 39.1458 196.719 39.125C196.76 39.1042 196.802 39.0729 196.844 39.0312C196.865 38.9271 196.896 38.8438 196.938 38.7812C197 38.7188 197.062 38.6562 197.125 38.5938C197.104 38.4479 197.135 38.3438 197.219 38.2812C197.302 38.1979 197.323 38.1042 197.281 38C197.406 37.8958 197.5 37.8021 197.562 37.7188C197.625 37.6354 197.646 37.5521 197.625 37.4688C197.771 37.4062 197.854 37.2812 197.875 37.0938C197.979 36.9896 198.052 36.875 198.094 36.75C198.156 36.6042 198.229 36.4792 198.312 36.375C198.375 36.125 198.396 35.9896 198.375 35.9688C198.354 35.9479 198.344 35.9167 198.344 35.875C198.448 35.625 198.521 35.4896 198.562 35.4688C198.625 35.4271 198.667 35.3646 198.688 35.2812C198.938 35.1562 199.083 35.0729 199.125 35.0312C199.188 34.9896 199.24 34.9479 199.281 34.9062C199.427 34.9062 199.531 34.8854 199.594 34.8438C199.677 34.8021 199.74 34.7604 199.781 34.7188C200.031 34.7188 200.167 34.6562 200.188 34.5312C200.438 34.4896 200.594 34.4896 200.656 34.5312C200.719 34.5729 200.802 34.6042 200.906 34.625C200.906 34.9583 200.896 35.2396 200.875 35.4688C200.854 35.6979 200.844 35.9479 200.844 36.2188C200.802 36.3854 200.771 36.4896 200.75 36.5312C200.75 36.5729 200.781 36.6146 200.844 36.6562C200.802 36.9062 200.771 37.125 200.75 37.3125C200.833 37.4167 200.854 37.5312 200.812 37.6562C200.771 37.7812 200.76 37.9271 200.781 38.0938C200.719 38.2604 200.698 38.3542 200.719 38.375C200.74 38.3958 200.771 38.4271 200.812 38.4688C200.833 38.6146 200.833 38.6979 200.812 38.7188C200.812 38.7396 200.812 38.7708 200.812 38.8125C200.833 38.9167 200.844 39.0312 200.844 39.1562C200.844 39.2812 200.823 39.3854 200.781 39.4688C200.844 39.6146 200.865 39.7604 200.844 39.9062C200.844 40.0521 200.854 40.1979 200.875 40.3438C200.917 40.5729 200.927 40.7396 200.906 40.8438C200.906 40.9479 200.906 41.0625 200.906 41.1875C200.948 41.375 200.958 41.4896 200.938 41.5312C200.917 41.5521 200.906 41.5833 200.906 41.625C200.927 41.8125 200.938 41.9688 200.938 42.0938C200.938 42.2188 200.958 42.3229 201 42.4062C200.938 42.5521 200.917 42.6458 200.938 42.6875C200.958 42.7292 200.969 42.7604 200.969 42.7812C200.969 42.8646 200.958 42.9792 200.938 43.125C200.917 43.2708 200.906 43.3854 200.906 43.4688C200.927 43.5521 200.938 43.6458 200.938 43.75C200.958 43.8542 200.99 43.9375 201.031 44C200.969 44.25 200.948 44.4167 200.969 44.5C201.01 44.5625 201.031 44.6354 201.031 44.7188C201.031 44.9479 201.021 45.0938 201 45.1562C201 45.2188 201.031 45.2708 201.094 45.3125C201.073 45.5208 201.042 45.6667 201 45.75C200.958 45.8125 200.958 45.875 201 45.9375C200.917 46.1458 200.885 46.25 200.906 46.25C200.948 46.25 200.969 46.2604 200.969 46.2812C200.99 46.4896 200.99 46.6146 200.969 46.6562C200.969 46.6771 200.979 46.7188 201 46.7812C200.958 47.1354 200.979 47.3646 201.062 47.4688C201.021 47.6771 201.01 47.7917 201.031 47.8125C201.052 47.8542 201.062 47.8958 201.062 47.9375L201 48.3125C200.979 48.4792 200.969 48.5625 200.969 48.5625C200.99 48.5833 201 48.6146 201 48.6562C201 48.8229 200.99 48.9375 200.969 49C200.969 49.0833 200.948 49.1458 200.906 49.1875L200.875 49.5312V50.0625C200.896 50.1875 200.896 50.2812 200.875 50.3438C200.875 50.4062 200.854 50.4583 200.812 50.5C200.792 50.5417 200.771 50.5833 200.75 50.625C200.75 50.6875 200.771 50.7812 200.812 50.9062C200.75 50.9688 200.719 51.0833 200.719 51.25C200.719 51.4167 200.708 51.5312 200.688 51.5938L200.625 52C200.604 52.1667 200.583 52.2708 200.562 52.3125C200.542 52.375 200.521 52.4375 200.5 52.5C200.479 52.7292 200.448 52.8854 200.406 52.9688C200.365 53.0729 200.354 53.1979 200.375 53.3438C200.25 53.4896 200.177 53.5729 200.156 53.5938C200.156 53.6354 200.135 53.6667 200.094 53.6875C200.01 53.9375 199.948 54.1354 199.906 54.2812C199.802 54.4271 199.75 54.5104 199.75 54.5312C199.75 54.5521 199.729 54.5625 199.688 54.5625C199.667 54.7292 199.635 54.8229 199.594 54.8438C199.573 54.8854 199.542 54.9062 199.5 54.9062C199.5 55.0104 199.479 55.0833 199.438 55.125C199.396 55.1875 199.375 55.2708 199.375 55.375C199.292 55.375 199.229 55.4062 199.188 55.4688C199.167 55.5521 199.135 55.625 199.094 55.6875C198.927 55.8333 198.844 55.9167 198.844 55.9375C198.844 55.9583 198.833 55.9792 198.812 56C198.604 56.1875 198.479 56.2812 198.438 56.2812C198.396 56.3021 198.375 56.3333 198.375 56.375L198.219 56.5625ZM255.75 1.03125C258.312 1.03125 260.927 1.27083 263.594 1.75C266.26 2.20833 268.854 2.91667 271.375 3.875C273.896 4.83333 276.271 6.04167 278.5 7.5C280.729 8.9375 282.677 10.625 284.344 12.5625C286.01 14.5 287.323 16.6875 288.281 19.125C289.26 21.5625 289.75 24.2604 289.75 27.2188C289.75 30.1771 289.229 32.9167 288.188 35.4375C287.146 37.9583 285.688 40.1354 283.812 41.9688C281.938 43.8021 279.698 45.2396 277.094 46.2812C274.49 47.3229 271.625 47.8438 268.5 47.8438C267.021 47.8438 265.49 47.7292 263.906 47.5C262.323 47.2917 260.74 46.9583 259.156 46.5C257.573 46.0417 256.01 45.4792 254.469 44.8125C252.948 44.125 251.49 43.3125 250.094 42.375C248.448 44 246.542 45.2708 244.375 46.1875C242.229 47.0833 239.958 47.5312 237.562 47.5312C236.271 47.5312 235.062 47.3854 233.938 47.0938C232.812 46.8021 231.833 46.3854 231 45.8438C230.188 45.3021 229.542 44.6458 229.062 43.875C228.604 43.1042 228.375 42.25 228.375 41.3125C228.375 40.5 228.573 39.7396 228.969 39.0312C229.385 38.3229 229.958 37.6979 230.688 37.1562C231.438 36.6146 232.323 36.1875 233.344 35.875C234.385 35.5625 235.521 35.4062 236.75 35.4062C240.375 35.4062 244.667 36.7396 249.625 39.4062C250.542 38.2604 251.292 36.9688 251.875 35.5312C252.521 33.9271 253.021 32.2812 253.375 30.5938C253.75 28.8854 254.073 27.1875 254.344 25.5C254.635 23.8125 254.927 22.1667 255.219 20.5625C255.531 18.9583 255.948 17.4479 256.469 16.0312C257.01 14.6146 257.708 13.3229 258.562 12.1562C259.438 10.9688 260.573 9.95833 261.969 9.125C262.177 9.02083 262.365 8.96875 262.531 8.96875C262.823 8.96875 263.094 9.07292 263.344 9.28125C263.615 9.48958 263.75 9.78125 263.75 10.1562C263.75 10.5938 263.552 10.9271 263.156 11.1562C262.052 11.8021 261.146 12.6146 260.438 13.5938C259.75 14.5521 259.177 15.6354 258.719 16.8438C258.26 18.0521 257.896 19.3542 257.625 20.75C257.354 22.1458 257.094 23.6042 256.844 25.125C256.635 26.375 256.406 27.6875 256.156 29.0625C255.906 30.4167 255.594 31.7708 255.219 33.125C254.844 34.4583 254.365 35.7708 253.781 37.0625C253.219 38.3333 252.521 39.5104 251.688 40.5938C251.729 40.6146 251.75 40.6354 251.75 40.6562C251.771 40.6562 251.802 40.6667 251.844 40.6875C254.49 42.2708 257.24 43.4688 260.094 44.2812C262.948 45.0938 265.74 45.5 268.469 45.5C271.427 45.5 274.073 45.0104 276.406 44.0312C278.76 43.0521 280.75 41.7396 282.375 40.0938C284 38.4271 285.24 36.4896 286.094 34.2812C286.948 32.0729 287.375 29.7396 287.375 27.2812C287.375 24.7812 286.958 22.4583 286.125 20.3125C285.292 18.1458 284.146 16.1771 282.688 14.4062C281.25 12.6354 279.531 11.0625 277.531 9.6875C275.552 8.3125 273.406 7.16667 271.094 6.25C268.802 5.3125 266.385 4.60417 263.844 4.125C261.323 3.625 258.792 3.375 256.25 3.375C252.833 3.375 249.708 3.66667 246.875 4.25C244.062 4.8125 241.635 5.64583 239.594 6.75C237.573 7.85417 236 9.20833 234.875 10.8125C233.75 12.4167 233.188 14.2396 233.188 16.2812C233.188 17.4479 233.354 18.4792 233.688 19.375C234.042 20.2708 234.479 21.0521 235 21.7188C235.542 22.3646 236.125 22.9167 236.75 23.375C237.375 23.8333 237.958 24.2083 238.5 24.5C239.042 24.7708 239.5 24.9688 239.875 25.0938C240.271 25.2188 240.5 25.2917 240.562 25.3125C240.833 25.375 241.042 25.5208 241.188 25.75C241.354 25.9583 241.438 26.1979 241.438 26.4688C241.438 26.8229 241.312 27.0938 241.062 27.2812C240.812 27.4688 240.542 27.5625 240.25 27.5625C239.833 27.5625 239.312 27.4688 238.688 27.2812C238.062 27.0729 237.396 26.7708 236.688 26.375C236 25.9583 235.302 25.4479 234.594 24.8438C233.906 24.2188 233.281 23.4896 232.719 22.6562C232.156 21.8229 231.698 20.875 231.344 19.8125C231.01 18.75 230.844 17.5729 230.844 16.2812C230.844 13.9271 231.438 11.8125 232.625 9.9375C233.833 8.04167 235.531 6.4375 237.719 5.125C239.906 3.8125 242.521 2.80208 245.562 2.09375C248.625 1.38542 252.021 1.03125 255.75 1.03125ZM247.938 41.1875C245.771 40.0417 243.76 39.1771 241.906 38.5938C240.052 38.0104 238.354 37.7188 236.812 37.7188C235.938 37.7188 235.125 37.8229 234.375 38.0312C233.646 38.2188 233.01 38.4792 232.469 38.8125C231.927 39.1458 231.5 39.5312 231.188 39.9688C230.875 40.4062 230.719 40.8646 230.719 41.3438C230.719 41.8021 230.854 42.2604 231.125 42.7188C231.417 43.1771 231.844 43.5833 232.406 43.9375C232.99 44.2917 233.708 44.5833 234.562 44.8125C235.417 45.0417 236.417 45.1562 237.562 45.1562C239.521 45.1562 241.385 44.8125 243.156 44.125C244.948 43.4167 246.542 42.4375 247.938 41.1875ZM304.75 47.4375C305.479 46.7083 306.219 45.9688 306.969 45.2188C307.719 44.4479 308.448 43.6458 309.156 42.8125C309.865 41.9792 310.521 41.1146 311.125 40.2188C311.75 39.3021 312.302 38.3333 312.781 37.3125C312.885 37.0833 313.031 36.9167 313.219 36.8125C313.406 36.6875 313.615 36.625 313.844 36.625C314.198 36.625 314.479 36.75 314.688 37C314.917 37.25 315.031 37.5312 315.031 37.8438C315.031 38.0104 315 38.1667 314.938 38.3125C314.292 39.6667 313.552 40.9062 312.719 42.0312C311.885 43.1562 311.01 44.2292 310.094 45.25C309.177 46.25 308.25 47.2188 307.312 48.1562C306.375 49.1146 305.479 50.0729 304.625 51.0312C304.542 52.4688 304.542 53.9062 304.625 55.3438C304.708 56.8021 304.75 58.3438 304.75 59.9688C304.75 61.3021 304.708 62.6354 304.625 63.9688C304.542 65.3021 304.406 66.5729 304.219 67.7812C304.031 69.0104 303.771 70.1562 303.438 71.2188C303.125 72.2812 302.719 73.1979 302.219 73.9688C301.719 74.7604 301.135 75.375 300.469 75.8125C299.802 76.2708 299.021 76.5 298.125 76.5C296.646 76.5 295.51 75.9896 294.719 74.9688C293.927 73.9479 293.531 72.5208 293.531 70.6875C293.531 69.6875 293.635 68.6146 293.844 67.4688C294.073 66.3229 294.385 65.1354 294.781 63.9062C295.177 62.6979 295.646 61.4688 296.188 60.2188C296.75 58.9688 297.354 57.75 298 56.5625C298.646 55.375 299.333 54.2396 300.062 53.1562C300.792 52.0938 301.531 51.125 302.281 50.25C302.323 49.25 302.365 48.2083 302.406 47.125C302.469 46.0625 302.531 45.0729 302.594 44.1562C302.052 45.1146 301.375 45.8854 300.562 46.4688C299.771 47.0521 298.896 47.3438 297.938 47.3438C296.354 47.3438 295.115 46.8125 294.219 45.75C293.323 44.6875 292.875 43.2292 292.875 41.375C292.875 40.0208 293 38.7917 293.25 37.6875C293.521 36.5625 293.802 35.6042 294.094 34.8125C294.406 34 294.688 33.3854 294.938 32.9688C295.188 32.5312 295.312 32.3229 295.312 32.3438C295.542 31.9896 295.865 31.8125 296.281 31.8125C296.635 31.8125 296.917 31.9375 297.125 32.1875C297.354 32.4167 297.469 32.6875 297.469 33C297.469 33.2292 297.406 33.4375 297.281 33.625C297.302 33.6042 297.198 33.7812 296.969 34.1562C296.76 34.5104 296.521 35.0312 296.25 35.7188C296 36.4062 295.76 37.2292 295.531 38.1875C295.323 39.1458 295.219 40.1979 295.219 41.3438C295.219 42.4896 295.427 43.3854 295.844 44.0312C296.26 44.6771 296.938 45 297.875 45C299.062 45 300.135 44.125 301.094 42.375C302.052 40.6042 302.865 38.0417 303.531 34.6875C303.573 34.4167 303.698 34.1979 303.906 34.0312C304.115 33.8438 304.365 33.75 304.656 33.75C304.99 33.75 305.271 33.8646 305.5 34.0938C305.729 34.3229 305.844 34.6042 305.844 34.9375C305.844 35 305.802 35.375 305.719 36.0625C305.635 36.7292 305.531 37.625 305.406 38.75C305.302 39.875 305.188 41.1875 305.062 42.6875C304.938 44.1667 304.833 45.75 304.75 47.4375ZM302.25 54.0625C301.312 55.4167 300.448 56.8438 299.656 58.3438C298.885 59.8438 298.219 61.3333 297.656 62.8125C297.094 64.2917 296.656 65.7083 296.344 67.0625C296.031 68.4167 295.875 69.625 295.875 70.6875C295.875 71.7708 296.052 72.6146 296.406 73.2188C296.76 73.8438 297.323 74.1562 298.094 74.1562C298.781 74.1562 299.385 73.8125 299.906 73.125C300.448 72.4583 300.896 71.5 301.25 70.25C301.625 69 301.906 67.4792 302.094 65.6875C302.281 63.9167 302.375 61.9271 302.375 59.7188C302.375 58.8229 302.354 57.9167 302.312 57C302.292 56.0833 302.271 55.1042 302.25 54.0625ZM316.094 34.1562C316.01 34.7188 315.906 35.25 315.781 35.75C315.656 36.2292 315.531 36.6562 315.406 37.0312C315.302 37.3854 315.208 37.6771 315.125 37.9062C315.042 38.1354 314.99 38.2604 314.969 38.2812C314.76 38.7604 314.396 39 313.875 39C313.583 39 313.312 38.8958 313.062 38.6875C312.812 38.4583 312.688 38.1771 312.688 37.8438C312.688 37.7188 312.708 37.625 312.75 37.5625C312.792 37.5 312.854 37.375 312.938 37.1875C313.021 37 313.125 36.6875 313.25 36.25C313.375 35.8125 313.531 35.1354 313.719 34.2188C313.365 34.2188 313 34.2083 312.625 34.1875C312.25 34.1667 311.906 34.0938 311.594 33.9688C311.26 33.8438 310.99 33.6458 310.781 33.375C310.573 33.1042 310.469 32.7292 310.469 32.25C310.469 31.8958 310.573 31.4167 310.781 30.8125C310.969 30.2083 311.229 29.6146 311.562 29.0312C311.896 28.4479 312.271 27.9479 312.688 27.5312C313.104 27.0938 313.521 26.875 313.938 26.875C314.417 26.875 314.802 27.0521 315.094 27.4062C315.406 27.7604 315.646 28.1979 315.812 28.7188C315.979 29.2188 316.094 29.75 316.156 30.3125C316.24 30.875 316.281 31.3646 316.281 31.7812C316.635 31.7812 316.979 31.7812 317.312 31.7812C317.667 31.7604 318 31.75 318.312 31.75C319.5 31.75 320.406 32.0104 321.031 32.5312C321.656 33.0521 321.969 33.9062 321.969 35.0938C321.969 35.5729 321.938 36.0729 321.875 36.5938C321.812 37.1146 321.74 37.6562 321.656 38.2188C321.573 38.7604 321.5 39.3021 321.438 39.8438C321.375 40.3854 321.344 40.9167 321.344 41.4375C321.344 42.1875 321.448 42.8125 321.656 43.3125C321.865 43.7917 322.125 44.1771 322.438 44.4688C322.75 44.7604 323.083 44.9688 323.438 45.0938C323.792 45.1979 324.115 45.25 324.406 45.25C325.302 45.25 326.146 44.9583 326.938 44.375C327.729 43.7917 328.458 43.0938 329.125 42.2812C329.792 41.4479 330.385 40.5729 330.906 39.6562C331.448 38.7396 331.896 37.9375 332.25 37.25C332.354 37.0625 332.5 36.9167 332.688 36.8125C332.875 36.7083 333.073 36.6562 333.281 36.6562C333.656 36.6562 333.948 36.7812 334.156 37.0312C334.365 37.2604 334.469 37.5208 334.469 37.8125C334.469 38.0208 334.427 38.2083 334.344 38.375C333.865 39.2292 333.302 40.1979 332.656 41.2812C332.031 42.3438 331.312 43.3438 330.5 44.2812C329.688 45.2188 328.771 46.0104 327.75 46.6562C326.75 47.3021 325.646 47.625 324.438 47.625C323.688 47.625 322.979 47.4792 322.312 47.1875C321.646 46.9167 321.062 46.5208 320.562 46C320.083 45.4583 319.698 44.8021 319.406 44.0312C319.115 43.2396 318.969 42.3542 318.969 41.375C318.969 40.3333 319.073 39.3021 319.281 38.2812C319.49 37.2396 319.594 36.25 319.594 35.3125C319.594 34.9167 319.5 34.625 319.312 34.4375C319.146 34.2292 318.76 34.125 318.156 34.125C317.865 34.125 317.542 34.125 317.188 34.125C316.854 34.125 316.49 34.1354 316.094 34.1562ZM314 31.8438C314 31.6979 313.99 31.5104 313.969 31.2812C313.969 31.0312 313.948 30.7917 313.906 30.5625C313.885 30.3333 313.844 30.1354 313.781 29.9688C313.74 29.8021 313.688 29.7188 313.625 29.7188C313.562 29.7188 313.479 29.8021 313.375 29.9688C313.292 30.1146 313.198 30.3021 313.094 30.5312C312.99 30.7396 312.896 30.9688 312.812 31.2188C312.729 31.4688 312.667 31.6771 312.625 31.8438H314ZM335.719 35.4375C335.594 35.7708 335.438 36.1458 335.25 36.5625C335.083 36.9792 334.885 37.4167 334.656 37.875C334.469 38.2292 334.271 38.5104 334.062 38.7188C333.875 38.9062 333.625 39 333.312 39C332.958 39 332.677 38.8958 332.469 38.6875C332.26 38.4583 332.156 38.1979 332.156 37.9062C332.156 37.8021 332.167 37.7188 332.188 37.6562C332.208 37.5729 332.26 37.4479 332.344 37.2812C332.885 36.2396 333.281 35.3333 333.531 34.5625C333.802 33.7708 334.021 32.9479 334.188 32.0938C334.042 31.6146 333.938 31.2083 333.875 30.875C333.812 30.5417 333.781 30.1979 333.781 29.8438C333.781 29.1562 333.927 28.6042 334.219 28.1875C334.51 27.75 334.917 27.5312 335.438 27.5312C335.917 27.5312 336.292 27.7396 336.562 28.1562C336.854 28.5729 337 29.0833 337 29.6875C337 30.0208 336.969 30.3542 336.906 30.6875C336.844 31.0208 336.76 31.4375 336.656 31.9375C337.135 33.125 337.615 34.1771 338.094 35.0938C338.573 36.0104 339 36.8542 339.375 37.625C339.75 38.375 340.052 39.0833 340.281 39.75C340.531 40.4167 340.656 41.0833 340.656 41.75C340.656 42.625 340.479 43.4583 340.125 44.25C339.771 45.0417 339.188 45.7083 338.375 46.25C338.479 46.2708 338.583 46.2812 338.688 46.2812C338.792 46.2812 338.896 46.2812 339 46.2812C340.188 46.2812 341.281 46.0104 342.281 45.4688C343.281 44.9271 344.177 44.2292 344.969 43.375C345.781 42.5 346.5 41.5417 347.125 40.5C347.75 39.4375 348.292 38.3854 348.75 37.3438C348.958 36.8646 349.25 36.625 349.625 36.625C349.979 36.625 350.25 36.75 350.438 37C350.646 37.25 350.75 37.5208 350.75 37.8125C350.75 37.9792 350.719 38.1354 350.656 38.2812C350.427 38.8438 350.125 39.4896 349.75 40.2188C349.396 40.9271 348.958 41.6667 348.438 42.4375C347.938 43.1875 347.354 43.9271 346.688 44.6562C346.021 45.3854 345.271 46.0417 344.438 46.625C343.625 47.1875 342.729 47.6354 341.75 47.9688C340.771 48.3229 339.698 48.5 338.531 48.5C337.135 48.5 335.833 48.25 334.625 47.75C333.438 47.2708 332.469 46.4688 331.719 45.3438C331.594 45.1562 331.531 44.9583 331.531 44.75C331.531 44.4375 331.646 44.1667 331.875 43.9375C332.125 43.6875 332.406 43.5625 332.719 43.5625C333.052 43.5625 333.333 43.6771 333.562 43.9062C333.583 43.9479 333.656 44.0208 333.781 44.125C333.906 44.2083 334.052 44.3125 334.219 44.4375C334.406 44.5417 334.615 44.6354 334.844 44.7188C335.094 44.8021 335.344 44.8438 335.594 44.8438C336.094 44.8438 336.51 44.7396 336.844 44.5312C337.198 44.3229 337.479 44.0729 337.688 43.7812C337.896 43.4688 338.042 43.1458 338.125 42.8125C338.229 42.4583 338.281 42.1562 338.281 41.9062C338.281 41.3854 338.198 40.8646 338.031 40.3438C337.865 39.8229 337.646 39.3021 337.375 38.7812C337.125 38.2604 336.844 37.7292 336.531 37.1875C336.24 36.625 335.969 36.0417 335.719 35.4375ZM352.25 43.5625C352.688 44.1667 353.25 44.6562 353.938 45.0312C354.625 45.3854 355.469 45.5625 356.469 45.5625C357.49 45.5625 358.417 45.3229 359.25 44.8438C360.083 44.3438 360.844 43.6979 361.531 42.9062C362.219 42.1146 362.833 41.2292 363.375 40.25C363.917 39.2708 364.406 38.2917 364.844 37.3125C364.948 37.0833 365.094 36.9167 365.281 36.8125C365.469 36.6875 365.677 36.625 365.906 36.625C366.26 36.625 366.542 36.75 366.75 37C366.979 37.25 367.094 37.5208 367.094 37.8125C367.094 37.9167 367.083 38.0104 367.062 38.0938C367.042 38.1562 367.01 38.2292 366.969 38.3125C365.531 41.4792 363.958 43.8646 362.25 45.4688C360.562 47.0729 358.646 47.8958 356.5 47.9375C355.125 47.9375 353.938 47.6667 352.938 47.125C351.938 46.6042 351.115 45.9271 350.469 45.0938C349.823 44.2396 349.344 43.2812 349.031 42.2188C348.719 41.1562 348.562 40.0938 348.562 39.0312C348.562 37.9688 348.688 36.9896 348.938 36.0938C349.208 35.1979 349.583 34.4167 350.062 33.75C350.562 33.0833 351.146 32.5625 351.812 32.1875C352.5 31.8125 353.25 31.625 354.062 31.625C354.542 31.625 355.01 31.7292 355.469 31.9375C355.948 32.125 356.375 32.4062 356.75 32.7812C357.125 33.1354 357.427 33.5729 357.656 34.0938C357.885 34.6146 358 35.2083 358 35.875C358 36.7292 357.854 37.5312 357.562 38.2812C357.271 39.0312 356.865 39.7292 356.344 40.375C355.844 41.0208 355.24 41.6146 354.531 42.1562C353.823 42.6979 353.062 43.1667 352.25 43.5625ZM351.312 41.5312C351.958 41.2604 352.542 40.9167 353.062 40.5C353.604 40.0833 354.062 39.625 354.438 39.125C354.812 38.625 355.104 38.1042 355.312 37.5625C355.521 37 355.625 36.4375 355.625 35.875C355.625 35.25 355.469 34.7812 355.156 34.4688C354.844 34.1354 354.479 33.9688 354.062 33.9688C353.5 33.9688 353.021 34.125 352.625 34.4375C352.229 34.75 351.906 35.1562 351.656 35.6562C351.406 36.1562 351.219 36.7188 351.094 37.3438C350.99 37.9479 350.938 38.5521 350.938 39.1562C350.938 39.5312 350.969 39.9271 351.031 40.3438C351.115 40.7604 351.208 41.1562 351.312 41.5312ZM390.188 15.7188C390.188 16.0521 390.073 16.3229 389.844 16.5312C389.615 16.7188 389.333 16.8125 389 16.8125H373.156V17.1562C373.156 18.4271 373.062 19.7812 372.875 21.2188C372.688 22.6562 372.427 24.0938 372.094 25.5312C371.781 26.9479 371.417 28.3333 371 29.6875C370.604 31.0417 370.188 32.2917 369.75 33.4375C369.333 34.5833 368.917 35.5833 368.5 36.4375C368.083 37.2708 367.708 37.8958 367.375 38.3125C367.646 39.2708 367.969 40.1667 368.344 41C368.719 41.8125 369.135 42.5312 369.594 43.1562C370.073 43.7604 370.583 44.2396 371.125 44.5938C371.667 44.9479 372.25 45.125 372.875 45.125C373.604 45.125 374.323 44.8229 375.031 44.2188C375.76 43.5938 376.427 42.8646 377.031 42.0312C377.656 41.1771 378.198 40.3229 378.656 39.4688C379.135 38.5938 379.479 37.8958 379.688 37.375C379.896 36.875 380.26 36.625 380.781 36.625C381.135 36.625 381.417 36.75 381.625 37C381.854 37.25 381.969 37.5208 381.969 37.8125C381.969 37.9583 381.938 38.1042 381.875 38.25C381.812 38.3958 381.656 38.7292 381.406 39.25C381.177 39.7708 380.865 40.375 380.469 41.0625C380.094 41.75 379.646 42.4792 379.125 43.25C378.625 44 378.052 44.6875 377.406 45.3125C376.781 45.9375 376.104 46.4583 375.375 46.875C374.646 47.2917 373.875 47.5 373.062 47.5C371.625 47.5 370.333 47.0312 369.188 46.0938C368.042 45.1562 367.062 43.8438 366.25 42.1562C365.458 40.4688 364.854 38.4688 364.438 36.1562C364.021 33.8438 363.812 31.3125 363.812 28.5625C363.812 27.875 363.823 27.0729 363.844 26.1562C363.865 25.2188 363.906 24.2396 363.969 23.2188C364.031 22.1771 364.125 21.1146 364.25 20.0312C364.375 18.9271 364.542 17.8542 364.75 16.8125H353.531C353.198 16.8125 352.917 16.7188 352.688 16.5312C352.458 16.3229 352.344 16.0521 352.344 15.7188C352.344 15.3854 352.458 15.125 352.688 14.9375C352.917 14.7292 353.198 14.625 353.531 14.625H365.281C365.49 13.875 365.729 13.1875 366 12.5625C366.292 11.9375 366.615 11.3958 366.969 10.9375C367.344 10.4792 367.75 10.125 368.188 9.875C368.646 9.60417 369.146 9.46875 369.688 9.46875C370.208 9.46875 370.656 9.60417 371.031 9.875C371.427 10.125 371.76 10.4792 372.031 10.9375C372.302 11.3958 372.51 11.9375 372.656 12.5625C372.823 13.1875 372.948 13.875 373.031 14.625H389C389.333 14.625 389.615 14.7292 389.844 14.9375C390.073 15.125 390.188 15.3854 390.188 15.7188ZM366.656 35.1875C367.281 33.8125 367.844 32.3333 368.344 30.75C368.865 29.1458 369.302 27.5312 369.656 25.9062C370.031 24.2812 370.312 22.6875 370.5 21.125C370.708 19.5625 370.812 18.125 370.812 16.8125H367.125C366.833 18.1042 366.594 19.7083 366.406 21.625C366.24 23.5208 366.156 25.8333 366.156 28.5625C366.156 30.0833 366.198 31.3646 366.281 32.4062C366.365 33.4271 366.49 34.3542 366.656 35.1875ZM369.562 11.8125C369.375 11.8125 369.104 12.0208 368.75 12.4375C368.396 12.8333 368.042 13.5625 367.688 14.625H370.688C370.583 13.75 370.427 13.0625 370.219 12.5625C370.031 12.0625 369.812 11.8125 369.562 11.8125ZM367.156 37.4375V37.4688V37.4375ZM382.281 44.3438C382.615 43.6354 383 42.875 383.438 42.0625C383.875 41.2292 384.344 40.3854 384.844 39.5312C385.344 38.6562 385.875 37.7917 386.438 36.9375C387 36.0833 387.583 35.2812 388.188 34.5312C388.792 33.8021 389.396 33.2812 390 32.9688C390.625 32.6354 391.208 32.4688 391.75 32.4688C392.292 32.4688 392.76 32.5833 393.156 32.8125C393.573 33.0208 393.906 33.3125 394.156 33.6875C394.427 34.0625 394.625 34.5 394.75 35C394.896 35.5 394.969 36.0417 394.969 36.625C394.969 37.1042 394.917 37.75 394.812 38.5625C394.729 39.3542 394.688 40.1875 394.688 41.0625C394.688 41.5625 394.708 42.0625 394.75 42.5625C394.812 43.0417 394.906 43.4792 395.031 43.875C395.177 44.25 395.385 44.5625 395.656 44.8125C395.927 45.0417 396.281 45.1562 396.719 45.1562C397.219 45.1562 397.719 45.0208 398.219 44.75C398.719 44.4583 399.208 44.0833 399.688 43.625C400.167 43.1458 400.625 42.625 401.062 42.0625C401.5 41.4792 401.896 40.9062 402.25 40.3438C402.604 39.7604 402.917 39.2083 403.188 38.6875C403.458 38.1458 403.677 37.6979 403.844 37.3438C404.052 36.8646 404.417 36.625 404.938 36.625C405.292 36.625 405.573 36.75 405.781 37C405.99 37.25 406.094 37.5208 406.094 37.8125C406.094 37.9792 406.062 38.1354 406 38.2812C405.917 38.4479 405.75 38.7917 405.5 39.3125C405.271 39.8333 404.948 40.4375 404.531 41.125C404.135 41.8125 403.667 42.5312 403.125 43.2812C402.583 44.0312 401.979 44.7292 401.312 45.375C400.667 46 399.958 46.5208 399.188 46.9375C398.438 47.3333 397.646 47.5312 396.812 47.5312C395.854 47.5312 395.083 47.3333 394.5 46.9375C393.917 46.5208 393.458 46 393.125 45.375C392.812 44.75 392.594 44.0521 392.469 43.2812C392.365 42.5104 392.312 41.7604 392.312 41.0312C392.312 40.6562 392.323 40.2604 392.344 39.8438C392.385 39.4062 392.427 38.9792 392.469 38.5625C392.51 38.1458 392.542 37.7604 392.562 37.4062C392.604 37.0312 392.625 36.7188 392.625 36.4688C392.625 35.8229 392.531 35.3854 392.344 35.1562C392.177 34.9271 391.979 34.8125 391.75 34.8125C391.417 34.8125 391.031 35.0104 390.594 35.4062C390.177 35.7812 389.729 36.2812 389.25 36.9062C388.792 37.5312 388.323 38.2396 387.844 39.0312C387.385 39.8021 386.938 40.5729 386.5 41.3438C386.062 42.1146 385.667 42.8542 385.312 43.5625C384.958 44.25 384.667 44.8229 384.438 45.2812C384 46.1562 383.552 46.7396 383.094 47.0312C382.656 47.3438 382.26 47.5 381.906 47.5C381.26 47.5 380.76 47.25 380.406 46.75C380.073 46.2292 379.906 45.6042 379.906 44.875V42.9062C379.906 38.9688 379.906 35.2188 379.906 31.6562C379.927 28.0729 379.979 24.75 380.062 21.6875C380.167 18.6042 380.323 15.8229 380.531 13.3438C380.76 10.8438 381.094 8.71875 381.531 6.96875C381.969 5.19792 382.521 3.83333 383.188 2.875C383.875 1.91667 384.729 1.4375 385.75 1.4375C386.625 1.4375 387.365 1.67708 387.969 2.15625C388.573 2.63542 389.062 3.29167 389.438 4.125C389.812 4.9375 390.083 5.89583 390.25 7C390.417 8.08333 390.5 9.22917 390.5 10.4375C390.5 12.8958 390.271 15.3125 389.812 17.6875C389.375 20.0417 388.781 22.3438 388.031 24.5938C387.281 26.8438 386.406 29.0417 385.406 31.1875C384.406 33.3125 383.354 35.3854 382.25 37.4062C382.25 37.7812 382.25 38.2292 382.25 38.75C382.25 39.2708 382.25 39.7917 382.25 40.3125C382.25 40.8333 382.25 41.3229 382.25 41.7812C382.25 42.2396 382.25 42.6042 382.25 42.875L382.281 44.3438ZM382.281 32.8125C383.156 30.8958 383.948 29.0312 384.656 27.2188C385.385 25.3854 386 23.5625 386.5 21.75C387.021 19.9375 387.427 18.1042 387.719 16.25C388.01 14.375 388.156 12.4271 388.156 10.4062C388.156 10.0729 388.135 9.54167 388.094 8.8125C388.073 8.08333 387.979 7.34375 387.812 6.59375C387.667 5.84375 387.427 5.1875 387.094 4.625C386.781 4.0625 386.333 3.78125 385.75 3.78125C385.292 3.78125 384.896 4.09375 384.562 4.71875C384.229 5.32292 383.938 6.15625 383.688 7.21875C383.438 8.26042 383.229 9.47917 383.062 10.875C382.896 12.2708 382.76 13.75 382.656 15.3125C382.552 16.875 382.469 18.4792 382.406 20.125C382.365 21.7708 382.333 23.375 382.312 24.9375C382.292 26.4792 382.281 27.9271 382.281 29.2812C382.281 30.6354 382.281 31.8125 382.281 32.8125Z" fill="#F5DEB3"/>
    </svg>
    