<svg width="410" height="93" viewBox="0 0 410 93" fill="none" xmlns="http://www.w3.org/2000/svg">
<path d="M56.6875 26.1875C56.625 26.4792 56.4896 26.7083 56.2812 26.875C56.0729 27.0417 55.8438 27.125 55.5938 27.125C55.2188 27.125 54.9167 27.0104 54.6875 26.7812C54.4583 26.5312 54.3438 26.25 54.3438 25.9375C54.3438 25.625 54.375 25.3229 54.4375 25.0312C54.5 24.7188 54.5312 24.4167 54.5312 24.125C54.5312 22.6042 54.0625 21.2396 53.125 20.0312C52.1875 18.8229 50.8542 17.8125 49.125 17C47.4167 16.1667 45.3333 15.5312 42.875 15.0938C40.4167 14.6562 37.6771 14.4375 34.6562 14.4375C32.3438 14.4375 30.0104 14.5938 27.6562 14.9062C25.3229 15.1979 23.0729 15.6354 20.9062 16.2188C18.7604 16.7812 16.75 17.5 14.875 18.375C13 19.2292 11.3646 20.2292 9.96875 21.375C8.59375 22.5 7.51042 23.7604 6.71875 25.1562C5.92708 26.5312 5.53125 28.0417 5.53125 29.6875C5.53125 30.9583 5.80208 32.0833 6.34375 33.0625C6.90625 34.0208 7.66667 34.8646 8.625 35.5938C9.58333 36.3021 10.7083 36.9167 12 37.4375C13.3125 37.9375 14.7292 38.3646 16.25 38.7188C17.7708 39.0521 19.3542 39.3333 21 39.5625C22.6458 39.7708 24.3021 39.9479 25.9688 40.0938L30.7812 40.5C33.1771 40.7083 35.3229 40.9271 37.2188 41.1562C39.1146 41.3854 40.7812 41.6771 42.2188 42.0312C44.6146 42.6354 46.3854 43.5 47.5312 44.625C48.6771 45.75 49.25 47.25 49.25 49.125C49.25 50.9375 48.75 52.5312 47.75 53.9062C46.75 55.2812 45.3854 56.4375 43.6562 57.375C41.9271 58.3125 39.9062 59.0208 37.5938 59.5C35.2812 59.9792 32.8021 60.2188 30.1562 60.2188C27.2812 60.2188 24.75 60.0208 22.5625 59.625C20.3958 59.25 18.5729 58.8333 17.0938 58.375C15.6354 57.8958 14.5208 57.4583 13.75 57.0625C12.9792 56.6667 12.5625 56.4479 12.5 56.4062C12.125 56.1979 11.9375 55.8646 11.9375 55.4062C11.9375 55.0521 12.0625 54.7708 12.3125 54.5625C12.5625 54.3333 12.8333 54.2188 13.125 54.2188C13.3542 54.2188 13.5625 54.2812 13.75 54.4062C13.7708 54.4062 14.125 54.5938 14.8125 54.9688C15.5208 55.3229 16.5625 55.7188 17.9375 56.1562C19.3333 56.5938 21.0521 56.9896 23.0938 57.3438C25.1354 57.6979 27.5104 57.875 30.2188 57.875C32.9062 57.875 35.2812 57.6562 37.3438 57.2188C39.4062 56.7812 41.1354 56.1771 42.5312 55.4062C43.9479 54.6146 45.0104 53.6979 45.7188 52.6562C46.4479 51.5938 46.8125 50.4479 46.8125 49.2188C46.8125 48.4896 46.6771 47.8646 46.4062 47.3438C46.1562 46.8021 45.8021 46.3438 45.3438 45.9688C44.8854 45.5729 44.3333 45.2396 43.6875 44.9688C43.0625 44.6979 42.375 44.4688 41.625 44.2812C40.8333 44.0729 39.9792 43.8958 39.0625 43.75C38.1667 43.6042 37.2396 43.4792 36.2812 43.375C35.3229 43.2708 34.3542 43.1771 33.375 43.0938C32.4167 43.0104 31.4688 42.9271 30.5312 42.8438L25.7188 42.4375C21.9271 42.125 18.6146 41.6458 15.7812 41C12.9688 40.3333 10.625 39.4896 8.75 38.4688C6.875 37.4271 5.46875 36.1875 4.53125 34.75C3.59375 33.3125 3.125 31.6354 3.125 29.7188C3.125 27.7604 3.5625 25.9688 4.4375 24.3438C5.33333 22.6979 6.54167 21.2188 8.0625 19.9062C9.60417 18.5938 11.3958 17.4583 13.4375 16.5C15.5 15.5208 17.6979 14.7083 20.0312 14.0625C22.3646 13.4167 24.7812 12.9375 27.2812 12.625C29.7812 12.2917 32.2396 12.125 34.6562 12.125C37.6771 12.125 40.3021 12.3125 42.5312 12.6875C44.7812 13.0417 46.6979 13.5104 48.2812 14.0938C49.8854 14.6562 51.1979 15.3021 52.2188 16.0312C53.2396 16.7604 54.0625 17.4792 54.6875 18.1875C56.1667 19.9167 56.9062 21.8854 56.9062 24.0938C56.9062 24.8229 56.8333 25.5208 56.6875 26.1875ZM57.5 55.5625C57.9375 56.1667 58.5 56.6562 59.1875 57.0312C59.875 57.3854 60.7188 57.5625 61.7188 57.5625C62.7396 57.5625 63.6667 57.3229 64.5 56.8438C65.3333 56.3438 66.0938 55.6979 66.7812 54.9062C67.4688 54.1146 68.0833 53.2292 68.625 52.25C69.1667 51.2708 69.6562 50.2917 70.0938 49.3125C70.1979 49.0833 70.3438 48.9167 70.5312 48.8125C70.7188 48.6875 70.9271 48.625 71.1562 48.625C71.5104 48.625 71.7917 48.75 72 49C72.2292 49.25 72.3438 49.5208 72.3438 49.8125C72.3438 49.9167 72.3333 50.0104 72.3125 50.0938C72.2917 50.1562 72.2604 50.2292 72.2188 50.3125C70.7812 53.4792 69.2083 55.8646 67.5 57.4688C65.8125 59.0729 63.8958 59.8958 61.75 59.9375C60.375 59.9375 59.1875 59.6667 58.1875 59.125C57.1875 58.6042 56.3646 57.9271 55.7188 57.0938C55.0729 56.2396 54.5938 55.2812 54.2812 54.2188C53.9688 53.1562 53.8125 52.0938 53.8125 51.0312C53.8125 49.9688 53.9375 48.9896 54.1875 48.0938C54.4583 47.1979 54.8333 46.4167 55.3125 45.75C55.8125 45.0833 56.3958 44.5625 57.0625 44.1875C57.75 43.8125 58.5 43.625 59.3125 43.625C59.7917 43.625 60.2604 43.7292 60.7188 43.9375C61.1979 44.125 61.625 44.4062 62 44.7812C62.375 45.1354 62.6771 45.5729 62.9062 46.0938C63.1354 46.6146 63.25 47.2083 63.25 47.875C63.25 48.7292 63.1042 49.5312 62.8125 50.2812C62.5208 51.0312 62.1146 51.7292 61.5938 52.375C61.0938 53.0208 60.4896 53.6146 59.7812 54.1562C59.0729 54.6979 58.3125 55.1667 57.5 55.5625ZM56.5625 53.5312C57.2083 53.2604 57.7917 52.9167 58.3125 52.5C58.8542 52.0833 59.3125 51.625 59.6875 51.125C60.0625 50.625 60.3542 50.1042 60.5625 49.5625C60.7708 49 60.875 48.4375 60.875 47.875C60.875 47.25 60.7188 46.7812 60.4062 46.4688C60.0938 46.1354 59.7292 45.9688 59.3125 45.9688C58.75 45.9688 58.2708 46.125 57.875 46.4375C57.4792 46.75 57.1562 47.1562 56.9062 47.6562C56.6562 48.1562 56.4688 48.7188 56.3438 49.3438C56.2396 49.9479 56.1875 50.5521 56.1875 51.1562C56.1875 51.5312 56.2188 51.9271 56.2812 52.3438C56.3646 52.7604 56.4583 53.1562 56.5625 53.5312ZM73.4062 46.1562C73.3229 46.7188 73.2188 47.25 73.0938 47.75C72.9688 48.2292 72.8438 48.6562 72.7188 49.0312C72.6146 49.3854 72.5208 49.6771 72.4375 49.9062C72.3542 50.1354 72.3021 50.2604 72.2812 50.2812C72.0729 50.7604 71.7083 51 71.1875 51C70.8958 51 70.625 50.8958 70.375 50.6875C70.125 50.4583 70 50.1771 70 49.8438C70 49.7188 70.0208 49.625 70.0625 49.5625C70.1042 49.5 70.1667 49.375 70.25 49.1875C70.3333 49 70.4375 48.6875 70.5625 48.25C70.6875 47.8125 70.8438 47.1354 71.0312 46.2188C70.6771 46.2188 70.3125 46.2083 69.9375 46.1875C69.5625 46.1667 69.2188 46.0938 68.9062 45.9688C68.5729 45.8438 68.3021 45.6458 68.0938 45.375C67.8854 45.1042 67.7812 44.7292 67.7812 44.25C67.7812 43.8958 67.8854 43.4167 68.0938 42.8125C68.2812 42.2083 68.5417 41.6146 68.875 41.0312C69.2083 40.4479 69.5833 39.9479 70 39.5312C70.4167 39.0938 70.8333 38.875 71.25 38.875C71.7292 38.875 72.1146 39.0521 72.4062 39.4062C72.7188 39.7604 72.9583 40.1979 73.125 40.7188C73.2917 41.2188 73.4062 41.75 73.4688 42.3125C73.5521 42.875 73.5938 43.3646 73.5938 43.7812C73.9479 43.7812 74.2917 43.7812 74.625 43.7812C74.9792 43.7604 75.3125 43.75 75.625 43.75C76.8125 43.75 77.7188 44.0104 78.3438 44.5312C78.9688 45.0521 79.2812 45.9062 79.2812 47.0938C79.2812 47.5729 79.25 48.0729 79.1875 48.5938C79.125 49.1146 79.0521 49.6562 78.9688 50.2188C78.8854 50.7604 78.8125 51.3021 78.75 51.8438C78.6875 52.3854 78.6562 52.9167 78.6562 53.4375C78.6562 54.1875 78.7604 54.8125 78.9688 55.3125C79.1771 55.7917 79.4375 56.1771 79.75 56.4688C80.0625 56.7604 80.3958 56.9688 80.75 57.0938C81.1042 57.1979 81.4271 57.25 81.7188 57.25C82.6146 57.25 83.4583 56.9583 84.25 56.375C85.0417 55.7917 85.7708 55.0938 86.4375 54.2812C87.1042 53.4479 87.6979 52.5729 88.2188 51.6562C88.7604 50.7396 89.2083 49.9375 89.5625 49.25C89.6667 49.0625 89.8125 48.9167 90 48.8125C90.1875 48.7083 90.3854 48.6562 90.5938 48.6562C90.9688 48.6562 91.2604 48.7812 91.4688 49.0312C91.6771 49.2604 91.7812 49.5208 91.7812 49.8125C91.7812 50.0208 91.7396 50.2083 91.6562 50.375C91.1771 51.2292 90.6146 52.1979 89.9688 53.2812C89.3438 54.3438 88.625 55.3438 87.8125 56.2812C87 57.2188 86.0833 58.0104 85.0625 58.6562C84.0625 59.3021 82.9583 59.625 81.75 59.625C81 59.625 80.2917 59.4792 79.625 59.1875C78.9583 58.9167 78.375 58.5208 77.875 58C77.3958 57.4583 77.0104 56.8021 76.7188 56.0312C76.4271 55.2396 76.2812 54.3542 76.2812 53.375C76.2812 52.3333 76.3854 51.3021 76.5938 50.2812C76.8021 49.2396 76.9062 48.25 76.9062 47.3125C76.9062 46.9167 76.8125 46.625 76.625 46.4375C76.4583 46.2292 76.0729 46.125 75.4688 46.125C75.1771 46.125 74.8542 46.125 74.5 46.125C74.1667 46.125 73.8021 46.1354 73.4062 46.1562ZM71.3125 43.8438C71.3125 43.6979 71.3021 43.5104 71.2812 43.2812C71.2812 43.0312 71.2604 42.7917 71.2188 42.5625C71.1979 42.3333 71.1562 42.1354 71.0938 41.9688C71.0521 41.8021 71 41.7188 70.9375 41.7188C70.875 41.7188 70.7917 41.8021 70.6875 41.9688C70.6042 42.1146 70.5104 42.3021 70.4062 42.5312C70.3021 42.7396 70.2083 42.9688 70.125 43.2188C70.0417 43.4688 69.9792 43.6771 69.9375 43.8438H71.3125ZM102.219 49.1562C101.906 50.6146 101.458 51.9792 100.875 53.25C100.292 54.5 99.6667 55.5938 99 56.5312C98.3542 57.4688 97.6979 58.2083 97.0312 58.75C96.3646 59.2917 95.7917 59.5833 95.3125 59.625C94.7708 59.625 94.1667 59.3542 93.5 58.8125C92.8542 58.2708 92.2292 57.5208 91.625 56.5625C91.0417 55.5833 90.5521 54.4271 90.1562 53.0938C89.7604 51.7604 89.5625 50.3125 89.5625 48.75C89.5625 47.375 89.6771 46.3333 89.9062 45.625C90.1562 44.9167 90.3125 44.5104 90.375 44.4062C90.4792 44.2188 90.6146 44.0729 90.7812 43.9688C90.9688 43.8646 91.1771 43.8125 91.4062 43.8125C91.7604 43.8125 92.0417 43.9375 92.25 44.1875C92.4583 44.4167 92.5625 44.6771 92.5625 44.9688C92.5625 45.1771 92.5208 45.3542 92.4375 45.5C92.4167 45.5417 92.3229 45.8229 92.1562 46.3438C91.9896 46.8646 91.9062 47.6458 91.9062 48.6875C91.9062 49.9167 92.0312 51.0521 92.2812 52.0938C92.5312 53.1354 92.8333 54.0312 93.1875 54.7812C93.5417 55.5312 93.9062 56.125 94.2812 56.5625C94.6771 56.9792 95 57.1875 95.25 57.1875C95.4167 57.1875 95.6562 57.0312 95.9688 56.7188C96.3021 56.4062 96.6458 55.9792 97 55.4375C97.375 54.8958 97.75 54.25 98.125 53.5C98.5208 52.75 98.875 51.9375 99.1875 51.0625C99.5208 50.1667 99.7812 49.2292 99.9688 48.25C100.177 47.25 100.281 46.2396 100.281 45.2188C100.281 45.0104 100.271 44.8125 100.25 44.625C100.25 44.4167 100.25 44.2083 100.25 44C100.25 43.6458 100.354 43.3542 100.562 43.125C100.792 42.875 101.083 42.75 101.438 42.75C101.708 42.75 101.948 42.8333 102.156 43C102.385 43.1667 102.531 43.3958 102.594 43.6875C102.594 43.6667 102.635 43.8333 102.719 44.1875C102.802 44.5417 102.938 45 103.125 45.5625C103.333 46.1042 103.583 46.6979 103.875 47.3438C104.188 47.9896 104.552 48.5938 104.969 49.1562C105.406 49.6979 105.906 50.1562 106.469 50.5312C107.031 50.9062 107.677 51.0938 108.406 51.0938C108.802 51.0938 109.146 51.0104 109.438 50.8438C109.729 50.6771 109.969 50.4896 110.156 50.2812C110.344 50.0729 110.479 49.875 110.562 49.6875C110.667 49.5 110.719 49.3958 110.719 49.375C110.802 49.1458 110.938 48.9688 111.125 48.8438C111.333 48.6979 111.562 48.625 111.812 48.625C112.146 48.625 112.427 48.75 112.656 49C112.885 49.2292 113 49.5 113 49.8125C113 49.9583 112.969 50.1042 112.906 50.25C112.781 50.5417 112.594 50.875 112.344 51.25C112.115 51.625 111.812 51.9792 111.438 52.3125C111.062 52.6458 110.615 52.9271 110.094 53.1562C109.594 53.3646 109.031 53.4688 108.406 53.4688C107.677 53.4688 107 53.3438 106.375 53.0938C105.75 52.8229 105.177 52.4896 104.656 52.0938C104.156 51.6771 103.698 51.2188 103.281 50.7188C102.865 50.1979 102.51 49.6771 102.219 49.1562ZM114.5 55.5625C114.938 56.1667 115.5 56.6562 116.188 57.0312C116.875 57.3854 117.719 57.5625 118.719 57.5625C119.74 57.5625 120.667 57.3229 121.5 56.8438C122.333 56.3438 123.094 55.6979 123.781 54.9062C124.469 54.1146 125.083 53.2292 125.625 52.25C126.167 51.2708 126.656 50.2917 127.094 49.3125C127.198 49.0833 127.344 48.9167 127.531 48.8125C127.719 48.6875 127.927 48.625 128.156 48.625C128.51 48.625 128.792 48.75 129 49C129.229 49.25 129.344 49.5208 129.344 49.8125C129.344 49.9167 129.333 50.0104 129.312 50.0938C129.292 50.1562 129.26 50.2292 129.219 50.3125C127.781 53.4792 126.208 55.8646 124.5 57.4688C122.812 59.0729 120.896 59.8958 118.75 59.9375C117.375 59.9375 116.188 59.6667 115.188 59.125C114.188 58.6042 113.365 57.9271 112.719 57.0938C112.073 56.2396 111.594 55.2812 111.281 54.2188C110.969 53.1562 110.812 52.0938 110.812 51.0312C110.812 49.9688 110.938 48.9896 111.188 48.0938C111.458 47.1979 111.833 46.4167 112.312 45.75C112.812 45.0833 113.396 44.5625 114.062 44.1875C114.75 43.8125 115.5 43.625 116.312 43.625C116.792 43.625 117.26 43.7292 117.719 43.9375C118.198 44.125 118.625 44.4062 119 44.7812C119.375 45.1354 119.677 45.5729 119.906 46.0938C120.135 46.6146 120.25 47.2083 120.25 47.875C120.25 48.7292 120.104 49.5312 119.812 50.2812C119.521 51.0312 119.115 51.7292 118.594 52.375C118.094 53.0208 117.49 53.6146 116.781 54.1562C116.073 54.6979 115.312 55.1667 114.5 55.5625ZM113.562 53.5312C114.208 53.2604 114.792 52.9167 115.312 52.5C115.854 52.0833 116.312 51.625 116.688 51.125C117.062 50.625 117.354 50.1042 117.562 49.5625C117.771 49 117.875 48.4375 117.875 47.875C117.875 47.25 117.719 46.7812 117.406 46.4688C117.094 46.1354 116.729 45.9688 116.312 45.9688C115.75 45.9688 115.271 46.125 114.875 46.4375C114.479 46.75 114.156 47.1562 113.906 47.6562C113.656 48.1562 113.469 48.7188 113.344 49.3438C113.24 49.9479 113.188 50.5521 113.188 51.1562C113.188 51.5312 113.219 51.9271 113.281 52.3438C113.365 52.7604 113.458 53.1562 113.562 53.5312ZM139.25 49.9062C140.271 54.7188 141.75 57.125 143.688 57.125C144.438 57.125 145.156 56.8542 145.844 56.3125C146.531 55.75 147.167 55.0729 147.75 54.2812C148.354 53.4688 148.885 52.6146 149.344 51.7188C149.802 50.8229 150.177 50.0417 150.469 49.375C150.677 48.875 151.042 48.625 151.562 48.625C151.896 48.625 152.177 48.75 152.406 49C152.635 49.25 152.75 49.5208 152.75 49.8125C152.75 49.9792 152.719 50.125 152.656 50.25C152.51 50.6042 152.292 51.0833 152 51.6875C151.729 52.2708 151.385 52.9062 150.969 53.5938C150.573 54.2604 150.125 54.9479 149.625 55.6562C149.125 56.3646 148.573 57 147.969 57.5625C147.365 58.125 146.719 58.5938 146.031 58.9688C145.365 59.3229 144.656 59.5 143.906 59.5C142.51 59.5 141.312 59.0208 140.312 58.0625C139.312 57.0833 138.448 55.4792 137.719 53.25C136.719 55.375 135.708 56.9167 134.688 57.875C133.667 58.8333 132.562 59.3125 131.375 59.3125C130.75 59.3125 130.146 59.2083 129.562 59C128.979 58.8125 128.469 58.4896 128.031 58.0312C127.594 57.5729 127.24 56.9896 126.969 56.2812C126.698 55.5521 126.562 54.6667 126.562 53.625C126.562 52.1875 126.812 50.8646 127.312 49.6562C127.812 48.4479 128.458 47.4167 129.25 46.5625C130.042 45.6875 130.917 45.0104 131.875 44.5312C132.854 44.0521 133.823 43.8125 134.781 43.8125C135.094 43.8125 135.365 43.9271 135.594 44.1562C135.823 44.3646 135.938 44.6354 135.938 44.9688C135.938 45.2604 135.844 45.5208 135.656 45.75C135.469 45.9792 135.219 46.1146 134.906 46.1562C134.281 46.2396 133.615 46.4375 132.906 46.75C132.198 47.0625 131.542 47.5208 130.938 48.125C130.354 48.7083 129.865 49.4583 129.469 50.375C129.094 51.2917 128.906 52.3854 128.906 53.6562C128.906 54.6979 129.115 55.5104 129.531 56.0938C129.969 56.6771 130.594 56.9688 131.406 56.9688C131.74 56.9688 132.094 56.8854 132.469 56.7188C132.844 56.5312 133.24 56.1771 133.656 55.6562C134.094 55.1354 134.562 54.3958 135.062 53.4375C135.583 52.4792 136.156 51.2188 136.781 49.6562C136.427 47.8229 136.104 45.7083 135.812 43.3125C135.521 40.9167 135.375 38.2396 135.375 35.2812C135.375 33.9896 135.417 32.6458 135.5 31.25C135.583 29.8333 135.719 28.4583 135.906 27.125C136.094 25.7708 136.344 24.4896 136.656 23.2812C136.969 22.0729 137.344 21.0104 137.781 20.0938C138.24 19.1771 138.771 18.4583 139.375 17.9375C139.979 17.3958 140.667 17.125 141.438 17.125C142.125 17.125 142.708 17.3125 143.188 17.6875C143.667 18.0625 144.052 18.5833 144.344 19.25C144.656 19.9167 144.885 20.7188 145.031 21.6562C145.177 22.5938 145.25 23.625 145.25 24.75C145.25 27.1667 145.042 29.5833 144.625 32C144.208 34.4167 143.688 36.7292 143.062 38.9375C142.458 41.1458 141.812 43.1875 141.125 45.0625C140.438 46.9375 139.812 48.5521 139.25 49.9062ZM142.906 24.7188C142.906 24.1979 142.885 23.6354 142.844 23.0312C142.823 22.4271 142.75 21.8646 142.625 21.3438C142.521 20.8021 142.375 20.3542 142.188 20C142 19.6458 141.75 19.4688 141.438 19.4688C140.917 19.4688 140.427 19.9271 139.969 20.8438C139.531 21.7604 139.146 22.9688 138.812 24.4688C138.479 25.9479 138.208 27.6354 138 29.5312C137.812 31.4062 137.719 33.3021 137.719 35.2188C137.719 37.0521 137.792 38.8854 137.938 40.7188C138.083 42.5521 138.25 44.1875 138.438 45.625C139.042 44.0208 139.615 42.375 140.156 40.6875C140.698 38.9792 141.167 37.2396 141.562 35.4688C141.979 33.6979 142.302 31.9167 142.531 30.125C142.781 28.3125 142.906 26.5104 142.906 24.7188ZM180 43.9688C180 43.8854 180 43.8229 180 43.7812C180.021 43.7396 180.021 43.6667 180 43.5625C180.042 43.4792 180.083 43.3854 180.125 43.2812C180.188 43.1771 180.198 43.0729 180.156 42.9688C180.24 42.8229 180.292 42.7292 180.312 42.6875C180.354 42.6458 180.396 42.6042 180.438 42.5625C180.479 42.3958 180.51 42.2917 180.531 42.25C180.552 42.2083 180.573 42.1667 180.594 42.125C180.698 41.8542 180.771 41.6875 180.812 41.625C180.854 41.5417 180.875 41.4583 180.875 41.375L181.062 41.0625C181.208 40.8542 181.302 40.7396 181.344 40.7188C181.385 40.6771 181.406 40.6146 181.406 40.5312C181.469 40.4688 181.531 40.3958 181.594 40.3125C181.677 40.2292 181.708 40.1354 181.688 40.0312C181.896 39.8646 182.021 39.75 182.062 39.6875C182.125 39.6042 182.188 39.5521 182.25 39.5312C182.333 39.4271 182.385 39.3646 182.406 39.3438C182.448 39.3021 182.49 39.2604 182.531 39.2188C182.573 39.0312 182.708 38.8854 182.938 38.7812C183 38.6979 183.073 38.625 183.156 38.5625C183.24 38.5 183.302 38.4167 183.344 38.3125C183.573 38.1875 183.708 38.1042 183.75 38.0625C183.833 37.9583 183.927 37.8854 184.031 37.8438C184.135 37.7812 184.229 37.6979 184.312 37.5938C184.375 37.5729 184.438 37.5521 184.5 37.5312C184.562 37.5104 184.615 37.4583 184.656 37.375C184.823 37.3333 184.938 37.2812 185 37.2188C185.062 37.1562 185.135 37.1042 185.219 37.0625C185.51 36.875 185.729 36.7708 185.875 36.75C186.021 36.7083 186.156 36.6354 186.281 36.5312C186.448 36.4896 186.552 36.4688 186.594 36.4688C186.656 36.4688 186.708 36.4479 186.75 36.4062C186.938 36.3438 187.052 36.2917 187.094 36.25C187.24 36.2292 187.333 36.2083 187.375 36.1875C187.417 36.1458 187.469 36.1146 187.531 36.0938C187.594 36.0521 187.656 36.0417 187.719 36.0625C187.802 36.0625 187.875 36.0521 187.938 36.0312C188.25 35.9271 188.49 35.8646 188.656 35.8438C188.844 35.8021 189.042 35.7812 189.25 35.7812C189.417 35.7812 189.594 35.8021 189.781 35.8438C189.969 35.8646 190.146 35.8542 190.312 35.8125C190.583 35.875 190.74 35.9375 190.781 36C190.844 36.0625 190.938 36.0833 191.062 36.0625C191.125 36.125 191.188 36.1667 191.25 36.1875C191.333 36.2083 191.427 36.2396 191.531 36.2812C191.677 36.3854 191.771 36.4583 191.812 36.5C191.854 36.5417 191.896 36.5729 191.938 36.5938C192.104 36.7604 192.25 36.8438 192.375 36.8438C192.5 36.8438 192.594 36.8854 192.656 36.9688C192.635 37.1771 192.656 37.3333 192.719 37.4375C192.552 37.5 192.417 37.6146 192.312 37.7812C192.104 37.8438 191.969 37.9062 191.906 37.9688C191.865 38.0312 191.823 38.1042 191.781 38.1875C191.552 38.25 191.417 38.3021 191.375 38.3438C191.333 38.3646 191.281 38.3958 191.219 38.4375C191.135 38.5208 191.073 38.5729 191.031 38.5938C190.99 38.5938 190.948 38.6146 190.906 38.6562C190.719 38.7604 190.573 38.7917 190.469 38.75C190.385 38.7292 190.323 38.6875 190.281 38.625C190.26 38.5625 190.188 38.5521 190.062 38.5938C190.042 38.4688 190.01 38.3854 189.969 38.3438C189.927 38.2812 189.885 38.2292 189.844 38.1875C189.635 38.0208 189.51 37.9479 189.469 37.9688C189.448 37.9688 189.417 37.9583 189.375 37.9375C189.125 37.8333 188.948 37.7812 188.844 37.7812C188.719 37.6771 188.604 37.6354 188.5 37.6562C188.396 37.6562 188.292 37.6458 188.188 37.625C187.896 37.5833 187.698 37.5833 187.594 37.625C187.49 37.6458 187.396 37.6458 187.312 37.625C187.021 37.7083 186.812 37.75 186.688 37.75C186.562 37.7292 186.479 37.75 186.438 37.8125C186.354 37.8125 186.271 37.8125 186.188 37.8125C186.125 37.8125 186.042 37.8229 185.938 37.8438C185.792 37.9479 185.688 38 185.625 38C185.562 38 185.5 38.0104 185.438 38.0312C185.208 38.1354 185.094 38.1979 185.094 38.2188C185.094 38.2188 185.073 38.2292 185.031 38.25C184.656 38.4167 184.469 38.5833 184.469 38.75C184.323 38.8125 184.229 38.8958 184.188 39C184.083 39.0208 184.01 39.0625 183.969 39.125C183.927 39.1875 183.854 39.2396 183.75 39.2812C183.625 39.4896 183.552 39.625 183.531 39.6875C183.51 39.7292 183.458 39.7604 183.375 39.7812C183.229 39.9896 183.125 40.1979 183.062 40.4062C183 40.5938 182.927 40.7188 182.844 40.7812C182.76 40.8438 182.729 40.9271 182.75 41.0312C182.667 41.1771 182.615 41.2812 182.594 41.3438C182.573 41.3854 182.542 41.4271 182.5 41.4688C182.438 41.7396 182.375 41.9167 182.312 42C182.271 42.0625 182.271 42.125 182.312 42.1875C182.229 42.2917 182.188 42.4375 182.188 42.625C182.083 42.8125 182.01 42.9271 181.969 42.9688C181.927 43.0104 181.917 43.0833 181.938 43.1875C181.917 43.5417 181.885 43.8021 181.844 43.9688C181.802 44.1354 181.781 44.3125 181.781 44.5C181.635 44.7083 181.573 44.8333 181.594 44.875C181.615 44.8958 181.625 44.9271 181.625 44.9688C181.562 45.1771 181.531 45.2917 181.531 45.3125C181.552 45.3333 181.542 45.3646 181.5 45.4062L181.281 46.3125C181.24 46.6667 181.188 46.9271 181.125 47.0938C181.083 47.2396 181.073 47.3854 181.094 47.5312C181.01 47.7396 180.969 47.8854 180.969 47.9688C180.99 48.0521 180.969 48.125 180.906 48.1875C180.885 48.5625 180.896 48.9167 180.938 49.25C180.854 49.6667 180.854 49.9479 180.938 50.0938C180.833 50.1979 180.802 50.3229 180.844 50.4688C180.906 50.6146 180.906 50.7292 180.844 50.8125C180.885 50.8958 180.906 51 180.906 51.125C180.906 51.25 180.906 51.375 180.906 51.5C180.865 51.6667 180.844 51.7708 180.844 51.8125C180.844 51.8333 180.854 51.8646 180.875 51.9062C180.938 52.1146 180.958 52.2708 180.938 52.375C180.917 52.4583 180.906 52.5521 180.906 52.6562C180.927 52.9062 180.948 53.0625 180.969 53.125C181.01 53.1667 181.021 53.2188 181 53.2812C180.917 53.4479 180.896 53.5417 180.938 53.5625C180.979 53.5833 181.01 53.6146 181.031 53.6562C181.031 53.8438 180.979 53.9583 180.875 54C180.917 54.3958 180.958 54.6667 181 54.8125C181.042 54.9583 181.042 55.0833 181 55.1875C181.083 55.4167 181.125 55.5833 181.125 55.6875C181.146 55.7917 181.177 55.875 181.219 55.9375C181.156 56.125 181.135 56.25 181.156 56.3125C181.177 56.375 181.167 56.4271 181.125 56.4688C181.271 56.6771 181.333 56.8125 181.312 56.875C181.312 56.9375 181.323 57.0104 181.344 57.0938C181.427 57.2396 181.458 57.3333 181.438 57.375C181.438 57.4167 181.458 57.4271 181.5 57.4062C181.562 57.2604 181.625 57.125 181.688 57C181.771 56.8542 181.833 56.6979 181.875 56.5312C181.958 56.4062 182.021 56.3333 182.062 56.3125C182.125 56.2917 182.177 56.2604 182.219 56.2188C182.344 56.0104 182.427 55.8229 182.469 55.6562C182.51 55.4896 182.594 55.3646 182.719 55.2812C182.823 55.0729 182.885 54.9375 182.906 54.875C182.948 54.7917 183.021 54.7292 183.125 54.6875C183.208 54.5625 183.26 54.4583 183.281 54.375C183.302 54.2917 183.365 54.2292 183.469 54.1875C183.49 54.0833 183.531 53.9896 183.594 53.9062C183.677 53.8021 183.771 53.7083 183.875 53.625C184 53.4583 184.125 53.3646 184.25 53.3438C184.375 53.2604 184.438 53.1979 184.438 53.1562C184.458 53.0938 184.49 53.0312 184.531 52.9688C184.615 53.0104 184.677 53 184.719 52.9375C184.76 52.875 184.812 52.8229 184.875 52.7812C184.979 52.7188 185.073 52.6562 185.156 52.5938C185.26 52.5312 185.333 52.4583 185.375 52.375C185.583 52.3125 185.708 52.2604 185.75 52.2188C185.792 52.1771 185.844 52.1354 185.906 52.0938C186.031 52.0312 186.146 51.9896 186.25 51.9688C186.375 51.9271 186.469 51.875 186.531 51.8125C186.635 51.8542 186.74 51.8438 186.844 51.7812C186.948 51.7188 187.052 51.6562 187.156 51.5938C187.26 51.5521 187.448 51.5312 187.719 51.5312C187.99 51.5312 188.219 51.5417 188.406 51.5625C188.552 51.6875 188.635 51.7604 188.656 51.7812C188.698 51.8021 188.75 51.8333 188.812 51.875C189 52.0625 189.104 52.1771 189.125 52.2188C189.167 52.2396 189.208 52.2708 189.25 52.3125C189.292 52.4583 189.333 52.5729 189.375 52.6562C189.417 52.7188 189.49 52.7708 189.594 52.8125C189.615 52.875 189.635 52.9479 189.656 53.0312C189.677 53.0938 189.719 53.1458 189.781 53.1875C189.781 53.3125 189.802 53.4062 189.844 53.4688C189.906 53.5312 189.938 53.625 189.938 53.75C189.979 54.0417 190.021 54.2812 190.062 54.4688C190.104 54.6354 190.104 54.8021 190.062 54.9688C190.042 55.2188 190.021 55.3646 190 55.4062C189.979 55.4271 189.969 55.4583 189.969 55.5C189.99 55.6875 189.99 55.7917 189.969 55.8125C189.948 55.8333 189.938 55.8646 189.938 55.9062C189.917 55.9479 189.917 56 189.938 56.0625C189.958 56.125 189.969 56.1875 189.969 56.25C189.865 56.5208 189.812 56.7083 189.812 56.8125C189.833 56.8958 189.833 56.9896 189.812 57.0938C189.708 57.3229 189.635 57.4688 189.594 57.5312C189.552 57.5938 189.542 57.6771 189.562 57.7812C189.521 57.8854 189.469 57.9688 189.406 58.0312C189.344 58.0938 189.323 58.2083 189.344 58.375C189.24 58.4792 189.156 58.625 189.094 58.8125C189.052 59 188.969 59.1458 188.844 59.25C188.74 59.5417 188.677 59.6979 188.656 59.7188C188.635 59.7396 188.604 59.7708 188.562 59.8125C188.521 59.8542 188.469 59.9062 188.406 59.9688C188.344 60.0312 188.281 60.1042 188.219 60.1875C188.094 60.3958 188 60.5 187.938 60.5C187.812 60.7292 187.729 60.875 187.688 60.9375C187.667 61 187.615 61.0521 187.531 61.0938C187.51 61.1771 187.458 61.2396 187.375 61.2812C187.312 61.3229 187.271 61.3958 187.25 61.5C187.167 61.5417 187.094 61.5938 187.031 61.6562C186.99 61.7396 186.938 61.8125 186.875 61.875C186.667 62.0208 186.542 62.1042 186.5 62.125C186.458 62.1667 186.417 62.2083 186.375 62.25C186.25 62.4167 186.177 62.5104 186.156 62.5312C186.01 62.5938 185.896 62.6562 185.812 62.7188C185.75 62.8021 185.688 62.8854 185.625 62.9688C185.271 63.0312 185.031 63.1875 184.906 63.4375C184.781 63.4583 184.698 63.5417 184.656 63.6875C184.531 63.7292 184.427 63.7812 184.344 63.8438C184.26 63.9062 184.167 63.9583 184.062 64C183.833 64.1667 183.677 64.2292 183.594 64.1875C183.531 64.1667 183.458 64.1875 183.375 64.25C183.125 64.4792 183 64.6354 183 64.7188C182.896 64.7396 182.823 64.7708 182.781 64.8125C182.74 64.875 182.698 64.9479 182.656 65.0312C182.469 65.0312 182.344 65.0521 182.281 65.0938C182.24 65.1354 182.208 65.1875 182.188 65.25C182.021 65.25 181.885 65.2708 181.781 65.3125C181.698 65.3542 181.594 65.3958 181.469 65.4375C181.344 65.5417 181.25 65.6042 181.188 65.625C181.125 65.6458 181.052 65.6562 180.969 65.6562C180.781 65.6562 180.656 65.6667 180.594 65.6875C180.531 65.7292 180.469 65.75 180.406 65.75C180.281 65.5417 180.188 65.4375 180.125 65.4375C180.062 65.4375 180.042 65.3854 180.062 65.2812C180.083 64.9479 180.167 64.7812 180.312 64.7812C180.354 64.6979 180.396 64.625 180.438 64.5625C180.479 64.5208 180.521 64.4479 180.562 64.3438C180.521 64.2396 180.5 64.125 180.5 64C180.5 63.8958 180.479 63.7917 180.438 63.6875C180.417 63.5833 180.385 63.4896 180.344 63.4062C180.302 63.3229 180.302 63.2292 180.344 63.125C180.281 62.6458 180.198 62.3125 180.094 62.125C180.01 61.9375 179.969 61.7188 179.969 61.4688C179.927 61.2812 179.885 61.1562 179.844 61.0938C179.823 61.0521 179.823 61.0104 179.844 60.9688C179.802 60.7604 179.75 60.625 179.688 60.5625C179.646 60.4583 179.625 60.3542 179.625 60.25C179.646 60.1667 179.625 60.0833 179.562 60C179.604 59.875 179.594 59.75 179.531 59.625C179.49 59.5 179.448 59.3854 179.406 59.2812L179.312 58.9062C179.292 58.6562 179.271 58.5104 179.25 58.4688C179.25 58.4271 179.271 58.3958 179.312 58.375C179.229 58.1875 179.219 58.0312 179.281 57.9062C179.198 57.5729 179.135 57.3542 179.094 57.25C179.073 57.1458 179.042 57.0312 179 56.9062C179 56.7188 179 56.5521 179 56.4062C179 56.2396 178.969 56.1042 178.906 56C178.906 55.7292 178.906 55.5312 178.906 55.4062C178.927 55.2812 178.917 55.1667 178.875 55.0625C178.875 54.7708 178.854 54.5104 178.812 54.2812C178.771 53.9688 178.75 53.7812 178.75 53.7188C178.771 53.6354 178.781 53.5417 178.781 53.4375C178.781 53.375 178.781 53.3125 178.781 53.25C178.802 53.1667 178.792 53.0729 178.75 52.9688C178.708 52.6771 178.708 52.4062 178.75 52.1562C178.792 51.9062 178.781 51.7083 178.719 51.5625C178.76 51.5 178.781 51.4271 178.781 51.3438C178.781 51.2396 178.781 51.1458 178.781 51.0625C178.802 50.8333 178.802 50.6979 178.781 50.6562C178.781 50.5938 178.781 50.5417 178.781 50.5C178.781 50.3958 178.792 50.3125 178.812 50.25C178.854 50.1667 178.875 50.0833 178.875 50C178.875 49.7917 178.885 49.6562 178.906 49.5938C178.927 49.5104 178.948 49.4271 178.969 49.3438C178.969 49.0312 178.979 48.8125 179 48.6875C179.042 48.5417 179.073 48.4062 179.094 48.2812L179.188 47.6875C179.208 47.5625 179.208 47.4688 179.188 47.4062C179.188 47.3229 179.219 47.25 179.281 47.1875C179.24 47.125 179.229 47.0729 179.25 47.0312C179.292 46.9896 179.323 46.9271 179.344 46.8438C179.385 46.7604 179.406 46.6771 179.406 46.5938C179.406 46.4896 179.448 46.3958 179.531 46.3125C179.49 46.2083 179.49 46.1354 179.531 46.0938C179.573 46.0312 179.604 45.9583 179.625 45.875C179.667 45.75 179.677 45.6354 179.656 45.5312C179.656 45.4062 179.688 45.3021 179.75 45.2188C179.75 44.9896 179.76 44.875 179.781 44.875C179.802 44.875 179.823 44.8542 179.844 44.8125L180 43.9688ZM186.344 60.7188C186.469 60.5729 186.542 60.4792 186.562 60.4375C186.583 60.4167 186.604 60.3854 186.625 60.3438C186.667 60.2812 186.698 60.2083 186.719 60.125C186.74 60.0417 186.76 59.9792 186.781 59.9375C187.031 59.5625 187.167 59.2083 187.188 58.875C187.271 58.875 187.323 58.8333 187.344 58.75C187.365 58.6458 187.354 58.5729 187.312 58.5312C187.417 58.2812 187.5 58.0938 187.562 57.9688C187.583 57.7812 187.604 57.6875 187.625 57.6875C187.646 57.6875 187.656 57.6667 187.656 57.625C187.635 57.3958 187.625 57.2812 187.625 57.2812C187.646 57.2812 187.656 57.2708 187.656 57.25C187.698 57.1042 187.708 57.0208 187.688 57C187.688 56.9583 187.688 56.9271 187.688 56.9062C187.729 56.8229 187.75 56.75 187.75 56.6875C187.771 56.6042 187.76 56.5104 187.719 56.4062C187.802 56.3021 187.844 56.1458 187.844 55.9375C187.802 55.7708 187.771 55.6354 187.75 55.5312C187.729 55.4271 187.74 55.3125 187.781 55.1875C187.719 55.1042 187.677 55 187.656 54.875C187.635 54.75 187.615 54.625 187.594 54.5C187.448 54.3333 187.375 54.2396 187.375 54.2188C187.292 54.0938 187.24 53.9792 187.219 53.875C187.135 53.8542 187.073 53.8333 187.031 53.8125C187.01 53.7708 186.969 53.7396 186.906 53.7188C186.74 53.5521 186.625 53.4479 186.562 53.4062C186.521 53.3646 186.479 53.3333 186.438 53.3125C186.333 53.2917 186.229 53.2917 186.125 53.3125C186.021 53.3333 185.906 53.3229 185.781 53.2812C185.615 53.4062 185.521 53.4583 185.5 53.4375C185.5 53.4167 185.479 53.4062 185.438 53.4062C185.396 53.4688 185.354 53.5417 185.312 53.625C185.292 53.6875 185.24 53.7292 185.156 53.75C185.031 53.9375 184.917 54.0625 184.812 54.125C184.646 54.375 184.521 54.5729 184.438 54.7188C184.354 54.8438 184.312 54.9896 184.312 55.1562C184.167 55.3854 184.073 55.5104 184.031 55.5312C184.01 55.5521 183.979 55.5833 183.938 55.625C183.958 55.8125 183.927 55.9375 183.844 56C183.76 56.0417 183.698 56.1146 183.656 56.2188C183.635 56.4062 183.615 56.5208 183.594 56.5625C183.573 56.6042 183.583 56.6667 183.625 56.75C183.521 56.8958 183.469 56.9896 183.469 57.0312C183.49 57.0521 183.5 57.0833 183.5 57.125C183.354 57.3542 183.271 57.5312 183.25 57.6562C183.25 57.7812 183.219 57.8854 183.156 57.9688C183.156 58.1146 183.146 58.2083 183.125 58.25C183.104 58.2708 183.094 58.3125 183.094 58.375C183.073 58.5208 183.052 58.6146 183.031 58.6562C183.031 58.6979 183.01 58.7292 182.969 58.75C182.865 59.125 182.781 59.4896 182.719 59.8438C182.74 59.9896 182.729 60.0833 182.688 60.125C182.667 60.1667 182.656 60.2188 182.656 60.2812C182.677 60.4688 182.688 60.6042 182.688 60.6875C182.667 60.8125 182.656 60.9583 182.656 61.125C182.656 61.3125 182.656 61.4583 182.656 61.5625C182.656 61.7917 182.656 61.9167 182.656 61.9375C182.677 61.9583 182.688 61.9896 182.688 62.0312C182.708 62.2604 182.729 62.4062 182.75 62.4688C182.771 62.5521 182.781 62.6146 182.781 62.6562L182.844 63.2188C182.906 63.3021 182.969 63.375 183.031 63.4375C183.094 63.5208 183.115 63.6458 183.094 63.8125C183.198 63.8125 183.271 63.7812 183.312 63.7188C183.354 63.6771 183.406 63.625 183.469 63.5625C183.573 63.5208 183.667 63.4583 183.75 63.375C183.833 63.2917 183.927 63.2083 184.031 63.125C184.177 63.1042 184.281 63.0521 184.344 62.9688C184.406 62.8854 184.51 62.8333 184.656 62.8125C184.781 62.625 184.875 62.5 184.938 62.4375C185 62.375 185.062 62.3125 185.125 62.25L185.375 61.9375C185.438 61.8958 185.49 61.8438 185.531 61.7812C185.573 61.7396 185.615 61.6979 185.656 61.6562C185.698 61.5938 185.74 61.5417 185.781 61.5C185.823 61.4583 185.865 61.4062 185.906 61.3438C186.052 61.2188 186.135 61.1458 186.156 61.125C186.177 61.1042 186.208 61.1042 186.25 61.125C186.271 61.0417 186.302 60.9792 186.344 60.9375C186.385 60.8958 186.385 60.8229 186.344 60.7188ZM201.219 68.5625C201.156 68.5833 201.083 68.6042 201 68.625C200.938 68.6667 200.875 68.7083 200.812 68.75C200.646 68.875 200.542 68.9375 200.5 68.9375C200.354 69.0833 200.271 69.1667 200.25 69.1875C200.167 69.2917 200.094 69.3438 200.031 69.3438C199.969 69.3646 199.917 69.4062 199.875 69.4688C199.688 69.5729 199.5 69.6562 199.312 69.7188C199.146 69.7812 199 69.8646 198.875 69.9688C198.729 69.9896 198.646 70.0104 198.625 70.0312C198.625 70.0729 198.604 70.1146 198.562 70.1562C198.458 70.1771 198.354 70.2083 198.25 70.25C198.167 70.3125 198.073 70.375 197.969 70.4375C197.802 70.5417 197.688 70.5833 197.625 70.5625C197.583 70.5625 197.531 70.5729 197.469 70.5938C197.427 70.6354 197.375 70.6667 197.312 70.6875C197.271 70.7292 197.229 70.7812 197.188 70.8438C196.917 70.8646 196.729 70.8958 196.625 70.9375C196.521 70.9792 196.438 71.0208 196.375 71.0625C196.271 71.0208 196.188 71.0104 196.125 71.0312C196.062 71.0729 195.99 71.1042 195.906 71.125C195.76 71.1042 195.656 71.0938 195.594 71.0938C195.552 71.1146 195.5 71.125 195.438 71.125C195.333 71.0625 195.25 71.0417 195.188 71.0625C195.146 71.0833 195.115 71.0729 195.094 71.0312C194.74 71.0521 194.552 71.0833 194.531 71.125C194.323 71.0208 194.062 71 193.75 71.0625C193.583 70.9583 193.406 70.8958 193.219 70.875C193.031 70.875 192.865 70.8021 192.719 70.6562C192.615 70.6562 192.552 70.6458 192.531 70.625C192.51 70.625 192.458 70.6354 192.375 70.6562C192.333 70.6146 192.271 70.5833 192.188 70.5625C192.104 70.5417 192.042 70.4896 192 70.4062C191.833 70.1979 191.74 70.1042 191.719 70.125C191.698 70.1667 191.667 70.1771 191.625 70.1562C191.438 69.9688 191.312 69.8542 191.25 69.8125C191.167 69.7708 191.115 69.7083 191.094 69.625C190.99 69.625 190.917 69.5938 190.875 69.5312C190.833 69.4896 190.781 69.4583 190.719 69.4375C190.698 69.3125 190.646 69.2292 190.562 69.1875C190.479 69.1667 190.417 69.1354 190.375 69.0938C190.354 68.9896 190.344 68.8854 190.344 68.7812C190.323 68.6771 190.281 68.5938 190.219 68.5312C190.24 68.4271 190.219 68.3229 190.156 68.2188C190.094 68.1146 190.052 68.0104 190.031 67.9062C190.073 67.8646 190.094 67.7812 190.094 67.6562C190.094 67.5521 190.115 67.4792 190.156 67.4375C190.156 67.375 190.146 67.2917 190.125 67.1875C190.104 67.1042 190.125 67.0521 190.188 67.0312C190.188 66.8438 190.198 66.6979 190.219 66.5938C190.219 66.5104 190.24 66.4688 190.281 66.4688C190.302 66.3646 190.323 66.2812 190.344 66.2188C190.365 66.1562 190.396 66.0938 190.438 66.0312C190.354 65.8646 190.344 65.7604 190.406 65.7188C190.469 65.6771 190.542 65.6042 190.625 65.5C190.75 65.3333 190.833 65.2396 190.875 65.2188C190.896 65.2188 190.927 65.2188 190.969 65.2188C190.99 64.9896 191.052 64.875 191.156 64.875C191.135 64.75 191.167 64.6562 191.25 64.5938C191.312 64.5312 191.365 64.4479 191.406 64.3438C191.49 64.1979 191.573 64.1042 191.656 64.0625C191.74 64.0208 191.802 63.9479 191.844 63.8438C191.927 63.8229 191.969 63.7708 191.969 63.6875C191.99 63.625 192.052 63.5833 192.156 63.5625C192.281 63.375 192.333 63.2708 192.312 63.25C192.312 63.25 192.323 63.2292 192.344 63.1875C192.573 63.125 192.729 63.0729 192.812 63.0312C192.917 62.9896 193.021 62.9688 193.125 62.9688C193.104 63.1979 193.115 63.3125 193.156 63.3125C193.219 63.3125 193.25 63.3333 193.25 63.375C193.188 63.6042 193.146 63.7396 193.125 63.7812C193.104 63.8438 193.083 63.9062 193.062 63.9688C192.938 63.9688 192.854 63.9896 192.812 64.0312C192.792 64.0729 192.74 64.0938 192.656 64.0938C192.698 64.2188 192.688 64.2917 192.625 64.3125C192.562 64.3542 192.562 64.4271 192.625 64.5312C192.5 64.7188 192.427 64.8229 192.406 64.8438C192.406 64.8854 192.406 64.9167 192.406 64.9375C192.281 65.1042 192.208 65.1979 192.188 65.2188C192.167 65.2604 192.135 65.2917 192.094 65.3125C192.156 65.5 192.167 65.5938 192.125 65.5938C192.104 65.6146 192.094 65.6458 192.094 65.6875C192.094 65.8542 192.083 65.9479 192.062 65.9688C192.062 66.0104 192.052 66.0729 192.031 66.1562C191.99 66.3229 191.969 66.4375 191.969 66.5C191.99 66.5625 192 66.625 192 66.6875C192.042 66.9583 192.062 67.1146 192.062 67.1562C192.083 67.1979 192.104 67.2604 192.125 67.3438C192.25 67.5521 192.344 67.6979 192.406 67.7812C192.469 67.8646 192.5 67.9792 192.5 68.125C192.708 68.2917 192.823 68.3854 192.844 68.4062C192.885 68.4479 192.927 68.4896 192.969 68.5312C193.073 68.5312 193.135 68.5625 193.156 68.625C193.198 68.6875 193.271 68.7083 193.375 68.6875C193.542 68.875 193.646 68.9688 193.688 68.9688C193.75 68.9688 193.802 69.0104 193.844 69.0938C193.948 69.0521 194.031 69.0521 194.094 69.0938C194.177 69.1354 194.25 69.1771 194.312 69.2188C194.521 69.2812 194.656 69.3229 194.719 69.3438C194.781 69.3646 194.823 69.375 194.844 69.375C195.135 69.4167 195.365 69.4479 195.531 69.4688C195.698 69.4896 195.865 69.5104 196.031 69.5312C196.344 69.5729 196.562 69.5833 196.688 69.5625C196.812 69.5625 196.938 69.5625 197.062 69.5625C197.125 69.5625 197.188 69.5729 197.25 69.5938C197.312 69.6146 197.365 69.6042 197.406 69.5625C197.448 69.5208 197.521 69.5 197.625 69.5C197.729 69.5208 197.802 69.5 197.844 69.4375C197.969 69.4792 198.073 69.4688 198.156 69.4062C198.24 69.3438 198.333 69.3021 198.438 69.2812L198.719 69.0625C198.885 68.8958 199.062 68.7604 199.25 68.6562C199.458 68.5729 199.604 68.4167 199.688 68.1875C199.833 68.1042 199.927 68.0417 199.969 68C200.01 67.9792 200.01 67.9271 199.969 67.8438C200.073 67.8229 200.125 67.7604 200.125 67.6562C200.146 67.5729 200.208 67.5208 200.312 67.5C200.438 67.3333 200.51 67.1771 200.531 67.0312C200.573 66.8854 200.656 66.7812 200.781 66.7188C200.781 66.6146 200.802 66.5312 200.844 66.4688C200.906 66.4062 200.958 66.3438 201 66.2812C200.958 66.1146 200.969 65.9583 201.031 65.8125C201.094 65.6875 201.094 65.5417 201.031 65.375C201.135 65.3542 201.188 65.3021 201.188 65.2188C201.208 65.1354 201.25 65.0729 201.312 65.0312C201.292 64.8646 201.302 64.7292 201.344 64.625C201.385 64.5208 201.396 64.3854 201.375 64.2188C201.438 64.1562 201.469 64.0729 201.469 63.9688C201.469 63.8854 201.479 63.7604 201.5 63.5938C201.542 63.3646 201.552 63.2396 201.531 63.2188C201.531 63.2188 201.531 63.1771 201.531 63.0938C201.552 63.0104 201.573 62.9375 201.594 62.875C201.635 62.8125 201.635 62.7396 201.594 62.6562C201.677 62.4271 201.708 62.3021 201.688 62.2812C201.688 62.2812 201.688 62.2604 201.688 62.2188C201.688 62.1146 201.677 62.0208 201.656 61.9375C201.656 61.875 201.677 61.8125 201.719 61.75C201.698 61.5833 201.677 61.4688 201.656 61.4062C201.656 61.3438 201.656 61.2917 201.656 61.25C201.719 61.2083 201.74 61.125 201.719 61C201.719 60.875 201.74 60.7917 201.781 60.75C201.719 60.5625 201.698 60.4167 201.719 60.3125C201.74 60.2292 201.729 60.1458 201.688 60.0625C201.75 60.0208 201.76 59.9479 201.719 59.8438C201.698 59.7604 201.719 59.6771 201.781 59.5938C201.719 59.3646 201.698 59.2292 201.719 59.1875C201.74 59.1458 201.74 59.0729 201.719 58.9688C201.677 58.3229 201.708 57.8021 201.812 57.4062C201.792 57.1146 201.76 56.9583 201.719 56.9375C201.698 56.9167 201.688 56.8854 201.688 56.8438C201.688 56.7604 201.698 56.6979 201.719 56.6562C201.74 56.5938 201.74 56.5312 201.719 56.4688C201.719 56.3646 201.698 56.2708 201.656 56.1875C201.635 56.1042 201.646 56.0104 201.688 55.9062C201.625 55.7812 201.594 55.6979 201.594 55.6562C201.615 55.5938 201.625 55.5417 201.625 55.5C201.625 55.3958 201.625 55.2812 201.625 55.1562C201.625 55.0312 201.646 54.9375 201.688 54.875C201.688 54.6667 201.656 54.5104 201.594 54.4062C201.552 54.2812 201.573 54.1667 201.656 54.0625C201.615 53.6667 201.583 53.3438 201.562 53.0938C201.562 52.8438 201.583 52.6042 201.625 52.375C201.562 52.2083 201.542 52.1146 201.562 52.0938C201.583 52.0521 201.594 52.0104 201.594 51.9688C201.531 51.7604 201.5 51.625 201.5 51.5625C201.521 51.4792 201.51 51.4062 201.469 51.3438C201.385 51.3229 201.323 51.3438 201.281 51.4062C201.26 51.4688 201.229 51.5312 201.188 51.5938C201.104 51.7396 201.042 51.8333 201 51.875C200.958 51.9167 200.917 51.9583 200.875 52C200.833 52.0417 200.792 52.0938 200.75 52.1562C200.708 52.1979 200.646 52.2292 200.562 52.25C200.458 52.3958 200.396 52.4792 200.375 52.5C200.375 52.5208 200.375 52.5417 200.375 52.5625C200.271 52.7083 200.208 52.8021 200.188 52.8438C200.188 52.8854 200.167 52.9271 200.125 52.9688L199.875 53.5C199.75 53.625 199.667 53.6979 199.625 53.7188C199.604 53.7396 199.604 53.7812 199.625 53.8438C199.438 54.0521 199.333 54.1979 199.312 54.2812C199.292 54.3646 199.24 54.4271 199.156 54.4688C198.969 54.6562 198.875 54.7917 198.875 54.875C198.792 54.8958 198.729 54.9271 198.688 54.9688C198.646 55.0104 198.583 55.0521 198.5 55.0938C198.333 55.2396 198.24 55.3229 198.219 55.3438C198.198 55.3646 198.167 55.375 198.125 55.375C197.896 55.5208 197.771 55.6042 197.75 55.625C197.729 55.625 197.698 55.6458 197.656 55.6875C197.51 55.8125 197.427 55.875 197.406 55.875C197.406 55.8542 197.385 55.8542 197.344 55.875C197.302 55.9167 197.25 55.9583 197.188 56C197.146 56.0417 197.104 56.0833 197.062 56.125C196.896 56.1875 196.792 56.2396 196.75 56.2812C196.729 56.3021 196.698 56.3333 196.656 56.375C196.448 56.4792 196.312 56.5625 196.25 56.625C196.188 56.6875 196.083 56.7188 195.938 56.7188C195.833 56.7604 195.75 56.8125 195.688 56.875C195.625 56.9167 195.531 56.9375 195.406 56.9375C195.177 56.9792 195.021 57 194.938 57C194.854 57 194.792 56.9583 194.75 56.875C194.479 56.7917 194.302 56.7292 194.219 56.6875C194.01 56.4583 193.896 56.3021 193.875 56.2188C193.854 56.1354 193.844 56.0417 193.844 55.9375C193.823 55.8542 193.823 55.7708 193.844 55.6875C193.865 55.6042 193.854 55.5312 193.812 55.4688C193.771 55.4271 193.76 55.375 193.781 55.3125C193.823 55.25 193.823 55.1875 193.781 55.125C193.781 55 193.771 54.9167 193.75 54.875C193.729 54.8125 193.719 54.75 193.719 54.6875C193.698 54.5833 193.688 54.4896 193.688 54.4062C193.708 54.3021 193.708 54.1667 193.688 54C193.688 53.8958 193.688 53.8125 193.688 53.75C193.688 53.6875 193.667 53.6354 193.625 53.5938C193.646 53.4062 193.656 53.3021 193.656 53.2812C193.677 53.2604 193.677 53.25 193.656 53.25C193.635 53.0833 193.625 52.9583 193.625 52.875C193.625 52.7083 193.635 52.5833 193.656 52.5C193.677 52.3958 193.646 52.3229 193.562 52.2812C193.625 52.1146 193.635 51.9896 193.594 51.9062C193.573 51.8021 193.562 51.6875 193.562 51.5625C193.583 51.4583 193.583 51.3542 193.562 51.25C193.542 51.125 193.531 51.0104 193.531 50.9062C193.49 50.6562 193.427 50.4896 193.344 50.4062C193.281 50.3021 193.271 50.2083 193.312 50.125C193.188 49.9583 193.083 49.7708 193 49.5625C192.917 49.3542 192.729 49.2292 192.438 49.1875C192.25 49 192.062 48.9062 191.875 48.9062H191.344C191.24 48.9062 191.177 48.9167 191.156 48.9375C191.115 48.9375 191.052 48.9271 190.969 48.9062C190.76 48.8438 190.667 48.7917 190.688 48.75C190.688 48.6875 190.667 48.6562 190.625 48.6562C190.792 48.4896 190.885 48.3854 190.906 48.3438C190.906 48.3021 190.938 48.2917 191 48.3125C191.292 48.1042 191.49 47.9792 191.594 47.9375C191.698 47.875 191.833 47.8438 192 47.8438C192.083 47.7604 192.146 47.7083 192.188 47.6875C192.25 47.6458 192.323 47.625 192.406 47.625C192.51 47.5625 192.646 47.5312 192.812 47.5312C192.979 47.5104 193.115 47.4479 193.219 47.3438C193.281 47.3854 193.354 47.4167 193.438 47.4375C193.521 47.4583 193.583 47.4896 193.625 47.5312C193.854 47.5521 193.979 47.5833 194 47.625C194.021 47.6667 194.052 47.6875 194.094 47.6875C194.26 47.7292 194.365 47.7812 194.406 47.8438C194.615 47.9062 194.74 47.9583 194.781 48C194.844 48.0208 194.896 48.0521 194.938 48.0938C195.125 48.3021 195.219 48.4271 195.219 48.4688C195.219 48.5104 195.25 48.5417 195.312 48.5625C195.271 48.625 195.281 48.6979 195.344 48.7812C195.406 48.8438 195.458 48.9271 195.5 49.0312C195.521 49.1562 195.531 49.2812 195.531 49.4062C195.531 49.5104 195.604 49.5729 195.75 49.5938C195.75 49.7604 195.75 49.9375 195.75 50.125C195.833 50.2083 195.844 50.3229 195.781 50.4688C195.719 50.5938 195.74 50.6979 195.844 50.7812C195.823 51.0312 195.823 51.2708 195.844 51.5C195.865 51.7708 195.854 51.9375 195.812 52C195.792 52.0625 195.802 52.1354 195.844 52.2188V52.5938C195.844 52.7188 195.854 52.8542 195.875 53C195.896 53.125 195.875 53.2188 195.812 53.2812C195.854 53.4479 195.875 53.6146 195.875 53.7812C195.875 53.9271 195.885 54.0208 195.906 54.0625C195.948 54.1042 195.948 54.1458 195.906 54.1875C195.969 54.4583 196.01 54.6667 196.031 54.8125C196.052 54.9375 196.115 55.0208 196.219 55.0625C196.719 55.25 197.021 55.1667 197.125 54.8125L197.406 54.4688C197.448 54.3229 197.51 54.2083 197.594 54.125C197.677 54.0417 197.729 53.9167 197.75 53.75C197.938 53.6042 198.031 53.5104 198.031 53.4688C198.177 53.3229 198.281 53.2396 198.344 53.2188C198.49 53.0312 198.562 52.9062 198.562 52.8438C198.583 52.7604 198.635 52.7083 198.719 52.6875C198.781 52.4792 198.833 52.375 198.875 52.375C198.938 52.3542 198.969 52.3021 198.969 52.2188C199.094 52.0938 199.219 51.9688 199.344 51.8438C199.385 51.7396 199.427 51.6667 199.469 51.625C199.51 51.5833 199.521 51.5312 199.5 51.4688C199.625 51.2604 199.698 51.1458 199.719 51.125C199.76 51.1042 199.802 51.0729 199.844 51.0312C199.865 50.9271 199.896 50.8438 199.938 50.7812C200 50.7188 200.062 50.6562 200.125 50.5938C200.104 50.4479 200.135 50.3438 200.219 50.2812C200.302 50.1979 200.323 50.1042 200.281 50C200.406 49.8958 200.5 49.8021 200.562 49.7188C200.625 49.6354 200.646 49.5521 200.625 49.4688C200.771 49.4062 200.854 49.2812 200.875 49.0938C200.979 48.9896 201.052 48.875 201.094 48.75C201.156 48.6042 201.229 48.4792 201.312 48.375C201.375 48.125 201.396 47.9896 201.375 47.9688C201.354 47.9479 201.344 47.9167 201.344 47.875C201.448 47.625 201.521 47.4896 201.562 47.4688C201.625 47.4271 201.667 47.3646 201.688 47.2812C201.938 47.1562 202.083 47.0729 202.125 47.0312C202.188 46.9896 202.24 46.9479 202.281 46.9062C202.427 46.9062 202.531 46.8854 202.594 46.8438C202.677 46.8021 202.74 46.7604 202.781 46.7188C203.031 46.7188 203.167 46.6562 203.188 46.5312C203.438 46.4896 203.594 46.4896 203.656 46.5312C203.719 46.5729 203.802 46.6042 203.906 46.625C203.906 46.9583 203.896 47.2396 203.875 47.4688C203.854 47.6979 203.844 47.9479 203.844 48.2188C203.802 48.3854 203.771 48.4896 203.75 48.5312C203.75 48.5729 203.781 48.6146 203.844 48.6562C203.802 48.9062 203.771 49.125 203.75 49.3125C203.833 49.4167 203.854 49.5312 203.812 49.6562C203.771 49.7812 203.76 49.9271 203.781 50.0938C203.719 50.2604 203.698 50.3542 203.719 50.375C203.74 50.3958 203.771 50.4271 203.812 50.4688C203.833 50.6146 203.833 50.6979 203.812 50.7188C203.812 50.7396 203.812 50.7708 203.812 50.8125C203.833 50.9167 203.844 51.0312 203.844 51.1562C203.844 51.2812 203.823 51.3854 203.781 51.4688C203.844 51.6146 203.865 51.7604 203.844 51.9062C203.844 52.0521 203.854 52.1979 203.875 52.3438C203.917 52.5729 203.927 52.7396 203.906 52.8438C203.906 52.9479 203.906 53.0625 203.906 53.1875C203.948 53.375 203.958 53.4896 203.938 53.5312C203.917 53.5521 203.906 53.5833 203.906 53.625C203.927 53.8125 203.938 53.9688 203.938 54.0938C203.938 54.2188 203.958 54.3229 204 54.4062C203.938 54.5521 203.917 54.6458 203.938 54.6875C203.958 54.7292 203.969 54.7604 203.969 54.7812C203.969 54.8646 203.958 54.9792 203.938 55.125C203.917 55.2708 203.906 55.3854 203.906 55.4688C203.927 55.5521 203.938 55.6458 203.938 55.75C203.958 55.8542 203.99 55.9375 204.031 56C203.969 56.25 203.948 56.4167 203.969 56.5C204.01 56.5625 204.031 56.6354 204.031 56.7188C204.031 56.9479 204.021 57.0938 204 57.1562C204 57.2188 204.031 57.2708 204.094 57.3125C204.073 57.5208 204.042 57.6667 204 57.75C203.958 57.8125 203.958 57.875 204 57.9375C203.917 58.1458 203.885 58.25 203.906 58.25C203.948 58.25 203.969 58.2604 203.969 58.2812C203.99 58.4896 203.99 58.6146 203.969 58.6562C203.969 58.6771 203.979 58.7188 204 58.7812C203.958 59.1354 203.979 59.3646 204.062 59.4688C204.021 59.6771 204.01 59.7917 204.031 59.8125C204.052 59.8542 204.062 59.8958 204.062 59.9375L204 60.3125C203.979 60.4792 203.969 60.5625 203.969 60.5625C203.99 60.5833 204 60.6146 204 60.6562C204 60.8229 203.99 60.9375 203.969 61C203.969 61.0833 203.948 61.1458 203.906 61.1875L203.875 61.5312V62.0625C203.896 62.1875 203.896 62.2812 203.875 62.3438C203.875 62.4062 203.854 62.4583 203.812 62.5C203.792 62.5417 203.771 62.5833 203.75 62.625C203.75 62.6875 203.771 62.7812 203.812 62.9062C203.75 62.9688 203.719 63.0833 203.719 63.25C203.719 63.4167 203.708 63.5312 203.688 63.5938L203.625 64C203.604 64.1667 203.583 64.2708 203.562 64.3125C203.542 64.375 203.521 64.4375 203.5 64.5C203.479 64.7292 203.448 64.8854 203.406 64.9688C203.365 65.0729 203.354 65.1979 203.375 65.3438C203.25 65.4896 203.177 65.5729 203.156 65.5938C203.156 65.6354 203.135 65.6667 203.094 65.6875C203.01 65.9375 202.948 66.1354 202.906 66.2812C202.802 66.4271 202.75 66.5104 202.75 66.5312C202.75 66.5521 202.729 66.5625 202.688 66.5625C202.667 66.7292 202.635 66.8229 202.594 66.8438C202.573 66.8854 202.542 66.9062 202.5 66.9062C202.5 67.0104 202.479 67.0833 202.438 67.125C202.396 67.1875 202.375 67.2708 202.375 67.375C202.292 67.375 202.229 67.4062 202.188 67.4688C202.167 67.5521 202.135 67.625 202.094 67.6875C201.927 67.8333 201.844 67.9167 201.844 67.9375C201.844 67.9583 201.833 67.9792 201.812 68C201.604 68.1875 201.479 68.2812 201.438 68.2812C201.396 68.3021 201.375 68.3333 201.375 68.375L201.219 68.5625ZM258.75 13.0312C261.312 13.0312 263.927 13.2708 266.594 13.75C269.26 14.2083 271.854 14.9167 274.375 15.875C276.896 16.8333 279.271 18.0417 281.5 19.5C283.729 20.9375 285.677 22.625 287.344 24.5625C289.01 26.5 290.323 28.6875 291.281 31.125C292.26 33.5625 292.75 36.2604 292.75 39.2188C292.75 42.1771 292.229 44.9167 291.188 47.4375C290.146 49.9583 288.688 52.1354 286.812 53.9688C284.938 55.8021 282.698 57.2396 280.094 58.2812C277.49 59.3229 274.625 59.8438 271.5 59.8438C270.021 59.8438 268.49 59.7292 266.906 59.5C265.323 59.2917 263.74 58.9583 262.156 58.5C260.573 58.0417 259.01 57.4792 257.469 56.8125C255.948 56.125 254.49 55.3125 253.094 54.375C251.448 56 249.542 57.2708 247.375 58.1875C245.229 59.0833 242.958 59.5312 240.562 59.5312C239.271 59.5312 238.062 59.3854 236.938 59.0938C235.812 58.8021 234.833 58.3854 234 57.8438C233.188 57.3021 232.542 56.6458 232.062 55.875C231.604 55.1042 231.375 54.25 231.375 53.3125C231.375 52.5 231.573 51.7396 231.969 51.0312C232.385 50.3229 232.958 49.6979 233.688 49.1562C234.438 48.6146 235.323 48.1875 236.344 47.875C237.385 47.5625 238.521 47.4062 239.75 47.4062C243.375 47.4062 247.667 48.7396 252.625 51.4062C253.542 50.2604 254.292 48.9688 254.875 47.5312C255.521 45.9271 256.021 44.2812 256.375 42.5938C256.75 40.8854 257.073 39.1875 257.344 37.5C257.635 35.8125 257.927 34.1667 258.219 32.5625C258.531 30.9583 258.948 29.4479 259.469 28.0312C260.01 26.6146 260.708 25.3229 261.562 24.1562C262.438 22.9688 263.573 21.9583 264.969 21.125C265.177 21.0208 265.365 20.9688 265.531 20.9688C265.823 20.9688 266.094 21.0729 266.344 21.2812C266.615 21.4896 266.75 21.7812 266.75 22.1562C266.75 22.5938 266.552 22.9271 266.156 23.1562C265.052 23.8021 264.146 24.6146 263.438 25.5938C262.75 26.5521 262.177 27.6354 261.719 28.8438C261.26 30.0521 260.896 31.3542 260.625 32.75C260.354 34.1458 260.094 35.6042 259.844 37.125C259.635 38.375 259.406 39.6875 259.156 41.0625C258.906 42.4167 258.594 43.7708 258.219 45.125C257.844 46.4583 257.365 47.7708 256.781 49.0625C256.219 50.3333 255.521 51.5104 254.688 52.5938C254.729 52.6146 254.75 52.6354 254.75 52.6562C254.771 52.6562 254.802 52.6667 254.844 52.6875C257.49 54.2708 260.24 55.4688 263.094 56.2812C265.948 57.0938 268.74 57.5 271.469 57.5C274.427 57.5 277.073 57.0104 279.406 56.0312C281.76 55.0521 283.75 53.7396 285.375 52.0938C287 50.4271 288.24 48.4896 289.094 46.2812C289.948 44.0729 290.375 41.7396 290.375 39.2812C290.375 36.7812 289.958 34.4583 289.125 32.3125C288.292 30.1458 287.146 28.1771 285.688 26.4062C284.25 24.6354 282.531 23.0625 280.531 21.6875C278.552 20.3125 276.406 19.1667 274.094 18.25C271.802 17.3125 269.385 16.6042 266.844 16.125C264.323 15.625 261.792 15.375 259.25 15.375C255.833 15.375 252.708 15.6667 249.875 16.25C247.062 16.8125 244.635 17.6458 242.594 18.75C240.573 19.8542 239 21.2083 237.875 22.8125C236.75 24.4167 236.188 26.2396 236.188 28.2812C236.188 29.4479 236.354 30.4792 236.688 31.375C237.042 32.2708 237.479 33.0521 238 33.7188C238.542 34.3646 239.125 34.9167 239.75 35.375C240.375 35.8333 240.958 36.2083 241.5 36.5C242.042 36.7708 242.5 36.9688 242.875 37.0938C243.271 37.2188 243.5 37.2917 243.562 37.3125C243.833 37.375 244.042 37.5208 244.188 37.75C244.354 37.9583 244.438 38.1979 244.438 38.4688C244.438 38.8229 244.312 39.0938 244.062 39.2812C243.812 39.4688 243.542 39.5625 243.25 39.5625C242.833 39.5625 242.312 39.4688 241.688 39.2812C241.062 39.0729 240.396 38.7708 239.688 38.375C239 37.9583 238.302 37.4479 237.594 36.8438C236.906 36.2188 236.281 35.4896 235.719 34.6562C235.156 33.8229 234.698 32.875 234.344 31.8125C234.01 30.75 233.844 29.5729 233.844 28.2812C233.844 25.9271 234.438 23.8125 235.625 21.9375C236.833 20.0417 238.531 18.4375 240.719 17.125C242.906 15.8125 245.521 14.8021 248.562 14.0938C251.625 13.3854 255.021 13.0312 258.75 13.0312ZM250.938 53.1875C248.771 52.0417 246.76 51.1771 244.906 50.5938C243.052 50.0104 241.354 49.7188 239.812 49.7188C238.938 49.7188 238.125 49.8229 237.375 50.0312C236.646 50.2188 236.01 50.4792 235.469 50.8125C234.927 51.1458 234.5 51.5312 234.188 51.9688C233.875 52.4062 233.719 52.8646 233.719 53.3438C233.719 53.8021 233.854 54.2604 234.125 54.7188C234.417 55.1771 234.844 55.5833 235.406 55.9375C235.99 56.2917 236.708 56.5833 237.562 56.8125C238.417 57.0417 239.417 57.1562 240.562 57.1562C242.521 57.1562 244.385 56.8125 246.156 56.125C247.948 55.4167 249.542 54.4375 250.938 53.1875ZM307.75 59.4375C308.479 58.7083 309.219 57.9688 309.969 57.2188C310.719 56.4479 311.448 55.6458 312.156 54.8125C312.865 53.9792 313.521 53.1146 314.125 52.2188C314.75 51.3021 315.302 50.3333 315.781 49.3125C315.885 49.0833 316.031 48.9167 316.219 48.8125C316.406 48.6875 316.615 48.625 316.844 48.625C317.198 48.625 317.479 48.75 317.688 49C317.917 49.25 318.031 49.5312 318.031 49.8438C318.031 50.0104 318 50.1667 317.938 50.3125C317.292 51.6667 316.552 52.9062 315.719 54.0312C314.885 55.1562 314.01 56.2292 313.094 57.25C312.177 58.25 311.25 59.2188 310.312 60.1562C309.375 61.1146 308.479 62.0729 307.625 63.0312C307.542 64.4688 307.542 65.9062 307.625 67.3438C307.708 68.8021 307.75 70.3438 307.75 71.9688C307.75 73.3021 307.708 74.6354 307.625 75.9688C307.542 77.3021 307.406 78.5729 307.219 79.7812C307.031 81.0104 306.771 82.1562 306.438 83.2188C306.125 84.2812 305.719 85.1979 305.219 85.9688C304.719 86.7604 304.135 87.375 303.469 87.8125C302.802 88.2708 302.021 88.5 301.125 88.5C299.646 88.5 298.51 87.9896 297.719 86.9688C296.927 85.9479 296.531 84.5208 296.531 82.6875C296.531 81.6875 296.635 80.6146 296.844 79.4688C297.073 78.3229 297.385 77.1354 297.781 75.9062C298.177 74.6979 298.646 73.4688 299.188 72.2188C299.75 70.9688 300.354 69.75 301 68.5625C301.646 67.375 302.333 66.2396 303.062 65.1562C303.792 64.0938 304.531 63.125 305.281 62.25C305.323 61.25 305.365 60.2083 305.406 59.125C305.469 58.0625 305.531 57.0729 305.594 56.1562C305.052 57.1146 304.375 57.8854 303.562 58.4688C302.771 59.0521 301.896 59.3438 300.938 59.3438C299.354 59.3438 298.115 58.8125 297.219 57.75C296.323 56.6875 295.875 55.2292 295.875 53.375C295.875 52.0208 296 50.7917 296.25 49.6875C296.521 48.5625 296.802 47.6042 297.094 46.8125C297.406 46 297.688 45.3854 297.938 44.9688C298.188 44.5312 298.312 44.3229 298.312 44.3438C298.542 43.9896 298.865 43.8125 299.281 43.8125C299.635 43.8125 299.917 43.9375 300.125 44.1875C300.354 44.4167 300.469 44.6875 300.469 45C300.469 45.2292 300.406 45.4375 300.281 45.625C300.302 45.6042 300.198 45.7812 299.969 46.1562C299.76 46.5104 299.521 47.0312 299.25 47.7188C299 48.4062 298.76 49.2292 298.531 50.1875C298.323 51.1458 298.219 52.1979 298.219 53.3438C298.219 54.4896 298.427 55.3854 298.844 56.0312C299.26 56.6771 299.938 57 300.875 57C302.062 57 303.135 56.125 304.094 54.375C305.052 52.6042 305.865 50.0417 306.531 46.6875C306.573 46.4167 306.698 46.1979 306.906 46.0312C307.115 45.8438 307.365 45.75 307.656 45.75C307.99 45.75 308.271 45.8646 308.5 46.0938C308.729 46.3229 308.844 46.6042 308.844 46.9375C308.844 47 308.802 47.375 308.719 48.0625C308.635 48.7292 308.531 49.625 308.406 50.75C308.302 51.875 308.188 53.1875 308.062 54.6875C307.938 56.1667 307.833 57.75 307.75 59.4375ZM305.25 66.0625C304.312 67.4167 303.448 68.8438 302.656 70.3438C301.885 71.8438 301.219 73.3333 300.656 74.8125C300.094 76.2917 299.656 77.7083 299.344 79.0625C299.031 80.4167 298.875 81.625 298.875 82.6875C298.875 83.7708 299.052 84.6146 299.406 85.2188C299.76 85.8438 300.323 86.1562 301.094 86.1562C301.781 86.1562 302.385 85.8125 302.906 85.125C303.448 84.4583 303.896 83.5 304.25 82.25C304.625 81 304.906 79.4792 305.094 77.6875C305.281 75.9167 305.375 73.9271 305.375 71.7188C305.375 70.8229 305.354 69.9167 305.312 69C305.292 68.0833 305.271 67.1042 305.25 66.0625ZM319.094 46.1562C319.01 46.7188 318.906 47.25 318.781 47.75C318.656 48.2292 318.531 48.6562 318.406 49.0312C318.302 49.3854 318.208 49.6771 318.125 49.9062C318.042 50.1354 317.99 50.2604 317.969 50.2812C317.76 50.7604 317.396 51 316.875 51C316.583 51 316.312 50.8958 316.062 50.6875C315.812 50.4583 315.688 50.1771 315.688 49.8438C315.688 49.7188 315.708 49.625 315.75 49.5625C315.792 49.5 315.854 49.375 315.938 49.1875C316.021 49 316.125 48.6875 316.25 48.25C316.375 47.8125 316.531 47.1354 316.719 46.2188C316.365 46.2188 316 46.2083 315.625 46.1875C315.25 46.1667 314.906 46.0938 314.594 45.9688C314.26 45.8438 313.99 45.6458 313.781 45.375C313.573 45.1042 313.469 44.7292 313.469 44.25C313.469 43.8958 313.573 43.4167 313.781 42.8125C313.969 42.2083 314.229 41.6146 314.562 41.0312C314.896 40.4479 315.271 39.9479 315.688 39.5312C316.104 39.0938 316.521 38.875 316.938 38.875C317.417 38.875 317.802 39.0521 318.094 39.4062C318.406 39.7604 318.646 40.1979 318.812 40.7188C318.979 41.2188 319.094 41.75 319.156 42.3125C319.24 42.875 319.281 43.3646 319.281 43.7812C319.635 43.7812 319.979 43.7812 320.312 43.7812C320.667 43.7604 321 43.75 321.312 43.75C322.5 43.75 323.406 44.0104 324.031 44.5312C324.656 45.0521 324.969 45.9062 324.969 47.0938C324.969 47.5729 324.938 48.0729 324.875 48.5938C324.812 49.1146 324.74 49.6562 324.656 50.2188C324.573 50.7604 324.5 51.3021 324.438 51.8438C324.375 52.3854 324.344 52.9167 324.344 53.4375C324.344 54.1875 324.448 54.8125 324.656 55.3125C324.865 55.7917 325.125 56.1771 325.438 56.4688C325.75 56.7604 326.083 56.9688 326.438 57.0938C326.792 57.1979 327.115 57.25 327.406 57.25C328.302 57.25 329.146 56.9583 329.938 56.375C330.729 55.7917 331.458 55.0938 332.125 54.2812C332.792 53.4479 333.385 52.5729 333.906 51.6562C334.448 50.7396 334.896 49.9375 335.25 49.25C335.354 49.0625 335.5 48.9167 335.688 48.8125C335.875 48.7083 336.073 48.6562 336.281 48.6562C336.656 48.6562 336.948 48.7812 337.156 49.0312C337.365 49.2604 337.469 49.5208 337.469 49.8125C337.469 50.0208 337.427 50.2083 337.344 50.375C336.865 51.2292 336.302 52.1979 335.656 53.2812C335.031 54.3438 334.312 55.3438 333.5 56.2812C332.688 57.2188 331.771 58.0104 330.75 58.6562C329.75 59.3021 328.646 59.625 327.438 59.625C326.688 59.625 325.979 59.4792 325.312 59.1875C324.646 58.9167 324.062 58.5208 323.562 58C323.083 57.4583 322.698 56.8021 322.406 56.0312C322.115 55.2396 321.969 54.3542 321.969 53.375C321.969 52.3333 322.073 51.3021 322.281 50.2812C322.49 49.2396 322.594 48.25 322.594 47.3125C322.594 46.9167 322.5 46.625 322.312 46.4375C322.146 46.2292 321.76 46.125 321.156 46.125C320.865 46.125 320.542 46.125 320.188 46.125C319.854 46.125 319.49 46.1354 319.094 46.1562ZM317 43.8438C317 43.6979 316.99 43.5104 316.969 43.2812C316.969 43.0312 316.948 42.7917 316.906 42.5625C316.885 42.3333 316.844 42.1354 316.781 41.9688C316.74 41.8021 316.688 41.7188 316.625 41.7188C316.562 41.7188 316.479 41.8021 316.375 41.9688C316.292 42.1146 316.198 42.3021 316.094 42.5312C315.99 42.7396 315.896 42.9688 315.812 43.2188C315.729 43.4688 315.667 43.6771 315.625 43.8438H317ZM338.719 47.4375C338.594 47.7708 338.438 48.1458 338.25 48.5625C338.083 48.9792 337.885 49.4167 337.656 49.875C337.469 50.2292 337.271 50.5104 337.062 50.7188C336.875 50.9062 336.625 51 336.312 51C335.958 51 335.677 50.8958 335.469 50.6875C335.26 50.4583 335.156 50.1979 335.156 49.9062C335.156 49.8021 335.167 49.7188 335.188 49.6562C335.208 49.5729 335.26 49.4479 335.344 49.2812C335.885 48.2396 336.281 47.3333 336.531 46.5625C336.802 45.7708 337.021 44.9479 337.188 44.0938C337.042 43.6146 336.938 43.2083 336.875 42.875C336.812 42.5417 336.781 42.1979 336.781 41.8438C336.781 41.1562 336.927 40.6042 337.219 40.1875C337.51 39.75 337.917 39.5312 338.438 39.5312C338.917 39.5312 339.292 39.7396 339.562 40.1562C339.854 40.5729 340 41.0833 340 41.6875C340 42.0208 339.969 42.3542 339.906 42.6875C339.844 43.0208 339.76 43.4375 339.656 43.9375C340.135 45.125 340.615 46.1771 341.094 47.0938C341.573 48.0104 342 48.8542 342.375 49.625C342.75 50.375 343.052 51.0833 343.281 51.75C343.531 52.4167 343.656 53.0833 343.656 53.75C343.656 54.625 343.479 55.4583 343.125 56.25C342.771 57.0417 342.188 57.7083 341.375 58.25C341.479 58.2708 341.583 58.2812 341.688 58.2812C341.792 58.2812 341.896 58.2812 342 58.2812C343.188 58.2812 344.281 58.0104 345.281 57.4688C346.281 56.9271 347.177 56.2292 347.969 55.375C348.781 54.5 349.5 53.5417 350.125 52.5C350.75 51.4375 351.292 50.3854 351.75 49.3438C351.958 48.8646 352.25 48.625 352.625 48.625C352.979 48.625 353.25 48.75 353.438 49C353.646 49.25 353.75 49.5208 353.75 49.8125C353.75 49.9792 353.719 50.1354 353.656 50.2812C353.427 50.8438 353.125 51.4896 352.75 52.2188C352.396 52.9271 351.958 53.6667 351.438 54.4375C350.938 55.1875 350.354 55.9271 349.688 56.6562C349.021 57.3854 348.271 58.0417 347.438 58.625C346.625 59.1875 345.729 59.6354 344.75 59.9688C343.771 60.3229 342.698 60.5 341.531 60.5C340.135 60.5 338.833 60.25 337.625 59.75C336.438 59.2708 335.469 58.4688 334.719 57.3438C334.594 57.1562 334.531 56.9583 334.531 56.75C334.531 56.4375 334.646 56.1667 334.875 55.9375C335.125 55.6875 335.406 55.5625 335.719 55.5625C336.052 55.5625 336.333 55.6771 336.562 55.9062C336.583 55.9479 336.656 56.0208 336.781 56.125C336.906 56.2083 337.052 56.3125 337.219 56.4375C337.406 56.5417 337.615 56.6354 337.844 56.7188C338.094 56.8021 338.344 56.8438 338.594 56.8438C339.094 56.8438 339.51 56.7396 339.844 56.5312C340.198 56.3229 340.479 56.0729 340.688 55.7812C340.896 55.4688 341.042 55.1458 341.125 54.8125C341.229 54.4583 341.281 54.1562 341.281 53.9062C341.281 53.3854 341.198 52.8646 341.031 52.3438C340.865 51.8229 340.646 51.3021 340.375 50.7812C340.125 50.2604 339.844 49.7292 339.531 49.1875C339.24 48.625 338.969 48.0417 338.719 47.4375ZM355.25 55.5625C355.688 56.1667 356.25 56.6562 356.938 57.0312C357.625 57.3854 358.469 57.5625 359.469 57.5625C360.49 57.5625 361.417 57.3229 362.25 56.8438C363.083 56.3438 363.844 55.6979 364.531 54.9062C365.219 54.1146 365.833 53.2292 366.375 52.25C366.917 51.2708 367.406 50.2917 367.844 49.3125C367.948 49.0833 368.094 48.9167 368.281 48.8125C368.469 48.6875 368.677 48.625 368.906 48.625C369.26 48.625 369.542 48.75 369.75 49C369.979 49.25 370.094 49.5208 370.094 49.8125C370.094 49.9167 370.083 50.0104 370.062 50.0938C370.042 50.1562 370.01 50.2292 369.969 50.3125C368.531 53.4792 366.958 55.8646 365.25 57.4688C363.562 59.0729 361.646 59.8958 359.5 59.9375C358.125 59.9375 356.938 59.6667 355.938 59.125C354.938 58.6042 354.115 57.9271 353.469 57.0938C352.823 56.2396 352.344 55.2812 352.031 54.2188C351.719 53.1562 351.562 52.0938 351.562 51.0312C351.562 49.9688 351.688 48.9896 351.938 48.0938C352.208 47.1979 352.583 46.4167 353.062 45.75C353.562 45.0833 354.146 44.5625 354.812 44.1875C355.5 43.8125 356.25 43.625 357.062 43.625C357.542 43.625 358.01 43.7292 358.469 43.9375C358.948 44.125 359.375 44.4062 359.75 44.7812C360.125 45.1354 360.427 45.5729 360.656 46.0938C360.885 46.6146 361 47.2083 361 47.875C361 48.7292 360.854 49.5312 360.562 50.2812C360.271 51.0312 359.865 51.7292 359.344 52.375C358.844 53.0208 358.24 53.6146 357.531 54.1562C356.823 54.6979 356.062 55.1667 355.25 55.5625ZM354.312 53.5312C354.958 53.2604 355.542 52.9167 356.062 52.5C356.604 52.0833 357.062 51.625 357.438 51.125C357.812 50.625 358.104 50.1042 358.312 49.5625C358.521 49 358.625 48.4375 358.625 47.875C358.625 47.25 358.469 46.7812 358.156 46.4688C357.844 46.1354 357.479 45.9688 357.062 45.9688C356.5 45.9688 356.021 46.125 355.625 46.4375C355.229 46.75 354.906 47.1562 354.656 47.6562C354.406 48.1562 354.219 48.7188 354.094 49.3438C353.99 49.9479 353.938 50.5521 353.938 51.1562C353.938 51.5312 353.969 51.9271 354.031 52.3438C354.115 52.7604 354.208 53.1562 354.312 53.5312ZM393.188 27.7188C393.188 28.0521 393.073 28.3229 392.844 28.5312C392.615 28.7188 392.333 28.8125 392 28.8125H376.156V29.1562C376.156 30.4271 376.062 31.7812 375.875 33.2188C375.688 34.6562 375.427 36.0938 375.094 37.5312C374.781 38.9479 374.417 40.3333 374 41.6875C373.604 43.0417 373.188 44.2917 372.75 45.4375C372.333 46.5833 371.917 47.5833 371.5 48.4375C371.083 49.2708 370.708 49.8958 370.375 50.3125C370.646 51.2708 370.969 52.1667 371.344 53C371.719 53.8125 372.135 54.5312 372.594 55.1562C373.073 55.7604 373.583 56.2396 374.125 56.5938C374.667 56.9479 375.25 57.125 375.875 57.125C376.604 57.125 377.323 56.8229 378.031 56.2188C378.76 55.5938 379.427 54.8646 380.031 54.0312C380.656 53.1771 381.198 52.3229 381.656 51.4688C382.135 50.5938 382.479 49.8958 382.688 49.375C382.896 48.875 383.26 48.625 383.781 48.625C384.135 48.625 384.417 48.75 384.625 49C384.854 49.25 384.969 49.5208 384.969 49.8125C384.969 49.9583 384.938 50.1042 384.875 50.25C384.812 50.3958 384.656 50.7292 384.406 51.25C384.177 51.7708 383.865 52.375 383.469 53.0625C383.094 53.75 382.646 54.4792 382.125 55.25C381.625 56 381.052 56.6875 380.406 57.3125C379.781 57.9375 379.104 58.4583 378.375 58.875C377.646 59.2917 376.875 59.5 376.062 59.5C374.625 59.5 373.333 59.0312 372.188 58.0938C371.042 57.1562 370.062 55.8438 369.25 54.1562C368.458 52.4688 367.854 50.4688 367.438 48.1562C367.021 45.8438 366.812 43.3125 366.812 40.5625C366.812 39.875 366.823 39.0729 366.844 38.1562C366.865 37.2188 366.906 36.2396 366.969 35.2188C367.031 34.1771 367.125 33.1146 367.25 32.0312C367.375 30.9271 367.542 29.8542 367.75 28.8125H356.531C356.198 28.8125 355.917 28.7188 355.688 28.5312C355.458 28.3229 355.344 28.0521 355.344 27.7188C355.344 27.3854 355.458 27.125 355.688 26.9375C355.917 26.7292 356.198 26.625 356.531 26.625H368.281C368.49 25.875 368.729 25.1875 369 24.5625C369.292 23.9375 369.615 23.3958 369.969 22.9375C370.344 22.4792 370.75 22.125 371.188 21.875C371.646 21.6042 372.146 21.4688 372.688 21.4688C373.208 21.4688 373.656 21.6042 374.031 21.875C374.427 22.125 374.76 22.4792 375.031 22.9375C375.302 23.3958 375.51 23.9375 375.656 24.5625C375.823 25.1875 375.948 25.875 376.031 26.625H392C392.333 26.625 392.615 26.7292 392.844 26.9375C393.073 27.125 393.188 27.3854 393.188 27.7188ZM369.656 47.1875C370.281 45.8125 370.844 44.3333 371.344 42.75C371.865 41.1458 372.302 39.5312 372.656 37.9062C373.031 36.2812 373.312 34.6875 373.5 33.125C373.708 31.5625 373.812 30.125 373.812 28.8125H370.125C369.833 30.1042 369.594 31.7083 369.406 33.625C369.24 35.5208 369.156 37.8333 369.156 40.5625C369.156 42.0833 369.198 43.3646 369.281 44.4062C369.365 45.4271 369.49 46.3542 369.656 47.1875ZM372.562 23.8125C372.375 23.8125 372.104 24.0208 371.75 24.4375C371.396 24.8333 371.042 25.5625 370.688 26.625H373.688C373.583 25.75 373.427 25.0625 373.219 24.5625C373.031 24.0625 372.812 23.8125 372.562 23.8125ZM370.156 49.4375V49.4688V49.4375ZM385.281 56.3438C385.615 55.6354 386 54.875 386.438 54.0625C386.875 53.2292 387.344 52.3854 387.844 51.5312C388.344 50.6562 388.875 49.7917 389.438 48.9375C390 48.0833 390.583 47.2812 391.188 46.5312C391.792 45.8021 392.396 45.2812 393 44.9688C393.625 44.6354 394.208 44.4688 394.75 44.4688C395.292 44.4688 395.76 44.5833 396.156 44.8125C396.573 45.0208 396.906 45.3125 397.156 45.6875C397.427 46.0625 397.625 46.5 397.75 47C397.896 47.5 397.969 48.0417 397.969 48.625C397.969 49.1042 397.917 49.75 397.812 50.5625C397.729 51.3542 397.688 52.1875 397.688 53.0625C397.688 53.5625 397.708 54.0625 397.75 54.5625C397.812 55.0417 397.906 55.4792 398.031 55.875C398.177 56.25 398.385 56.5625 398.656 56.8125C398.927 57.0417 399.281 57.1562 399.719 57.1562C400.219 57.1562 400.719 57.0208 401.219 56.75C401.719 56.4583 402.208 56.0833 402.688 55.625C403.167 55.1458 403.625 54.625 404.062 54.0625C404.5 53.4792 404.896 52.9062 405.25 52.3438C405.604 51.7604 405.917 51.2083 406.188 50.6875C406.458 50.1458 406.677 49.6979 406.844 49.3438C407.052 48.8646 407.417 48.625 407.938 48.625C408.292 48.625 408.573 48.75 408.781 49C408.99 49.25 409.094 49.5208 409.094 49.8125C409.094 49.9792 409.062 50.1354 409 50.2812C408.917 50.4479 408.75 50.7917 408.5 51.3125C408.271 51.8333 407.948 52.4375 407.531 53.125C407.135 53.8125 406.667 54.5312 406.125 55.2812C405.583 56.0312 404.979 56.7292 404.312 57.375C403.667 58 402.958 58.5208 402.188 58.9375C401.438 59.3333 400.646 59.5312 399.812 59.5312C398.854 59.5312 398.083 59.3333 397.5 58.9375C396.917 58.5208 396.458 58 396.125 57.375C395.812 56.75 395.594 56.0521 395.469 55.2812C395.365 54.5104 395.312 53.7604 395.312 53.0312C395.312 52.6562 395.323 52.2604 395.344 51.8438C395.385 51.4062 395.427 50.9792 395.469 50.5625C395.51 50.1458 395.542 49.7604 395.562 49.4062C395.604 49.0312 395.625 48.7188 395.625 48.4688C395.625 47.8229 395.531 47.3854 395.344 47.1562C395.177 46.9271 394.979 46.8125 394.75 46.8125C394.417 46.8125 394.031 47.0104 393.594 47.4062C393.177 47.7812 392.729 48.2812 392.25 48.9062C391.792 49.5312 391.323 50.2396 390.844 51.0312C390.385 51.8021 389.938 52.5729 389.5 53.3438C389.062 54.1146 388.667 54.8542 388.312 55.5625C387.958 56.25 387.667 56.8229 387.438 57.2812C387 58.1562 386.552 58.7396 386.094 59.0312C385.656 59.3438 385.26 59.5 384.906 59.5C384.26 59.5 383.76 59.25 383.406 58.75C383.073 58.2292 382.906 57.6042 382.906 56.875V54.9062C382.906 50.9688 382.906 47.2188 382.906 43.6562C382.927 40.0729 382.979 36.75 383.062 33.6875C383.167 30.6042 383.323 27.8229 383.531 25.3438C383.76 22.8438 384.094 20.7188 384.531 18.9688C384.969 17.1979 385.521 15.8333 386.188 14.875C386.875 13.9167 387.729 13.4375 388.75 13.4375C389.625 13.4375 390.365 13.6771 390.969 14.1562C391.573 14.6354 392.062 15.2917 392.438 16.125C392.812 16.9375 393.083 17.8958 393.25 19C393.417 20.0833 393.5 21.2292 393.5 22.4375C393.5 24.8958 393.271 27.3125 392.812 29.6875C392.375 32.0417 391.781 34.3438 391.031 36.5938C390.281 38.8438 389.406 41.0417 388.406 43.1875C387.406 45.3125 386.354 47.3854 385.25 49.4062C385.25 49.7812 385.25 50.2292 385.25 50.75C385.25 51.2708 385.25 51.7917 385.25 52.3125C385.25 52.8333 385.25 53.3229 385.25 53.7812C385.25 54.2396 385.25 54.6042 385.25 54.875L385.281 56.3438ZM385.281 44.8125C386.156 42.8958 386.948 41.0312 387.656 39.2188C388.385 37.3854 389 35.5625 389.5 33.75C390.021 31.9375 390.427 30.1042 390.719 28.25C391.01 26.375 391.156 24.4271 391.156 22.4062C391.156 22.0729 391.135 21.5417 391.094 20.8125C391.073 20.0833 390.979 19.3438 390.812 18.5938C390.667 17.8438 390.427 17.1875 390.094 16.625C389.781 16.0625 389.333 15.7812 388.75 15.7812C388.292 15.7812 387.896 16.0938 387.562 16.7188C387.229 17.3229 386.938 18.1562 386.688 19.2188C386.438 20.2604 386.229 21.4792 386.062 22.875C385.896 24.2708 385.76 25.75 385.656 27.3125C385.552 28.875 385.469 30.4792 385.406 32.125C385.365 33.7708 385.333 35.375 385.312 36.9375C385.292 38.4792 385.281 39.9271 385.281 41.2812C385.281 42.6354 385.281 43.8125 385.281 44.8125Z" fill="black"/>
</svg>
