<svg width="45" height="48" viewBox="0 0 45 48" fill="none" xmlns="http://www.w3.org/2000/svg">
<path d="M37.8319 39.4392L37.4793 39.5837C37.4793 39.5837 37.4936 38.6206 37.4465 38.0063C37.3547 36.8086 37.2072 36.1388 36.8797 34.983C36.5868 33.9496 36.3821 33.3749 35.9177 32.4064C35.1523 30.81 34.5568 29.9715 33.3754 28.653C32.303 27.4562 31.6089 26.8436 30.2749 25.9475C28.6831 24.8784 27.6713 24.4021 25.8344 23.8519C24.6264 23.49 23.9206 23.3511 22.6651 23.2335C21.2723 23.103 20.4703 23.11 19.0835 23.2936C17.8391 23.4583 17.1457 23.6368 15.9572 24.0408C14.5252 24.5276 13.7314 24.8818 12.4529 25.6899C11.6647 26.1881 11.2468 26.5102 10.5376 27.1156C9.87373 27.6824 9.51501 28.021 8.93149 28.6702C8.03044 29.6727 7.57331 30.295 6.91309 31.4702C6.22449 32.6959 5.53027 34.7941 5.53027 34.7941C5.53027 34.7941 6.00081 32.5685 6.56949 31.2383C7.0902 30.0203 7.47107 29.3654 8.23573 28.2837C8.79551 27.4919 9.13471 27.0584 9.81609 26.3684C10.527 25.6485 10.9821 25.2977 11.8001 24.7022C13.0611 23.7842 13.8198 23.3048 15.2614 22.7095C16.5748 22.1673 17.3626 21.9548 18.7657 21.7304C19.4213 21.6256 19.9616 21.5665 20.4848 21.5414C20.4765 21.4905 20.4232 21.1373 20.4906 20.9208C20.5428 20.753 20.6077 20.6707 20.7107 20.5284C20.8664 20.3131 20.971 20.1913 21.1988 20.0546C21.4416 19.909 21.6115 19.8775 21.8927 19.8441C22.1903 19.8087 22.3714 19.8103 22.6583 19.8967C22.921 19.9758 23.0672 20.0534 23.2756 20.2317C23.4389 20.3713 23.5264 20.4644 23.6297 20.6528C23.7675 20.9039 23.7881 21.0797 23.802 21.3658C23.8079 21.4872 23.7924 21.6768 23.7924 21.6768L23.7243 21.6742C24.5573 21.7528 25.2246 21.8647 26.1865 22.1341C28.1857 22.6939 29.2656 23.2732 30.9619 24.4703C32.53 25.5768 33.3472 26.3419 34.5177 27.8629C35.6659 29.3549 36.1888 30.3187 36.8539 32.08C37.2515 33.133 37.4295 33.7476 37.6355 34.8542C37.8645 36.0851 37.9141 36.7973 37.9017 38.0493C37.8963 38.5927 37.8319 39.4392 37.8319 39.4392Z" fill="#F5DEB3"/>
<path d="M37.8319 39.4392L37.4793 39.5837C37.4793 39.5837 37.4936 38.6206 37.4465 38.0063C37.3547 36.8086 37.2072 36.1388 36.8797 34.983C36.5868 33.9496 36.3821 33.3749 35.9177 32.4064C35.1523 30.81 34.5568 29.9715 33.3754 28.653C32.303 27.4562 31.6089 26.8436 30.2749 25.9475C28.6831 24.8784 27.6713 24.4021 25.8344 23.8519C24.6264 23.49 23.9206 23.3511 22.6651 23.2335C21.2723 23.103 20.4703 23.11 19.0835 23.2936C17.8391 23.4583 17.1457 23.6368 15.9572 24.0408C14.5252 24.5276 13.7314 24.8818 12.4529 25.6899C11.6647 26.1881 11.2468 26.5102 10.5376 27.1156C9.87373 27.6824 9.51501 28.021 8.93149 28.6702C8.03044 29.6727 7.57331 30.295 6.91309 31.4702C6.22449 32.6959 5.53027 34.7941 5.53027 34.7941C5.53027 34.7941 6.00081 32.5685 6.56949 31.2383C7.0902 30.0203 7.47107 29.3654 8.23574 28.2837C8.79551 27.4919 9.13471 27.0584 9.81609 26.3684C10.527 25.6485 10.9821 25.2977 11.8001 24.7022C13.0611 23.7842 13.8198 23.3048 15.2614 22.7095C16.5748 22.1673 17.3626 21.9548 18.7657 21.7304C20.3265 21.4808 21.2343 21.4906 22.8111 21.6016C24.1423 21.6953 24.9014 21.7742 26.1865 22.1341C28.1857 22.6939 29.2656 23.2732 30.9619 24.4703C32.53 25.5768 33.3472 26.3419 34.5177 27.8629C35.6659 29.3549 36.1888 30.3187 36.8539 32.08C37.2515 33.133 37.4295 33.7476 37.6355 34.8542C37.8645 36.0851 37.9141 36.7973 37.9017 38.0493C37.8963 38.5927 37.8319 39.4392 37.8319 39.4392ZM20.4858 21.5476C20.4858 21.5476 20.4178 21.1545 20.4906 20.9208C20.5428 20.753 20.6077 20.6707 20.7107 20.5284C20.8664 20.3131 20.971 20.1913 21.1988 20.0546C21.4416 19.909 21.6115 19.8775 21.8927 19.8441C22.1903 19.8087 22.3714 19.8103 22.6583 19.8967C22.921 19.9758 23.0672 20.0534 23.2756 20.2317C23.4389 20.3713 23.5264 20.4644 23.6297 20.6528C23.7675 20.9039 23.7881 21.0797 23.802 21.3658C23.8079 21.4872 23.7924 21.6768 23.7924 21.6768L20.4858 21.5476Z" stroke="#F5DEB3" stroke-width="0.5"/>
<path d="M7.50015 40.3808L6.34489 39.9665C6.34489 39.9665 6.19179 38.5335 6.24131 37.616C6.30331 36.4672 6.41962 35.8151 6.7592 34.7158C7.0468 33.7848 7.25972 33.2695 7.7392 32.4212C8.39345 31.2637 8.88547 30.6669 9.84263 29.7441C10.5252 29.0861 11.7469 28.2382 11.7469 28.2382C11.7469 28.2382 13.3129 27.3036 14.408 26.9236C15.6654 26.4873 16.4255 26.3507 17.7544 26.2782C18.5251 26.2361 18.9642 26.2325 19.7304 26.326C21.001 26.4812 22.8775 27.2423 22.8775 27.2423C22.8775 27.2423 20.9418 26.7455 19.6746 26.7164C18.933 26.6994 18.5126 26.7227 17.7783 26.828C16.5298 27.007 15.832 27.2252 14.6789 27.7363C13.7947 28.1281 13.317 28.4044 12.5277 28.9633C11.7964 29.4811 11.4029 29.8063 10.7828 30.4532C10.037 31.2313 9.52072 31.8077 9.12556 32.6602L8.11368 34.8433C7.71852 35.6959 7.59993 36.551 7.48424 37.6798C7.37669 38.7291 7.50015 40.3808 7.50015 40.3808Z" fill="#F5DEB3" stroke="#F5DEB3" stroke-width="0.5"/>
<path d="M41.2842 39.7353C41.25 39.6626 41.1451 39.5836 41.1451 39.5836C41.1451 39.5836 41.5232 39.6367 41.7605 39.6943C42.3582 39.8393 42.6858 39.9833 43.2173 40.2929C43.4408 40.4231 43.5949 40.4679 43.7694 40.6588C43.8846 40.7849 43.9685 40.8588 44.0089 41.0247C44.0523 41.2028 44.0135 41.3187 43.949 41.4903C43.8373 41.7879 43.6296 41.8744 43.3836 42.0757C42.8763 42.4907 42.4799 42.5622 41.8669 42.7941C41.149 43.0657 40.7201 43.1451 39.9711 43.313C39.1405 43.4991 38.6637 43.549 37.8225 43.6788C36.6235 43.8639 35.9482 43.9493 34.7426 44.0846C33.2835 44.2484 32.4628 44.3232 30.9975 44.4172C29.4046 44.5194 28.5089 44.5349 26.9131 44.5702C23.0066 44.6568 20.8089 44.6526 16.9085 44.4172C14.4543 44.2691 13.0676 44.2338 10.6375 43.8603C9.07999 43.6209 8.19165 43.5217 6.67772 43.0845C5.78391 42.8264 5.20872 42.8094 4.42619 42.3062C4.04751 42.0627 3.53418 41.5759 3.53418 41.5759C3.53418 41.5759 4.11413 41.8721 4.50006 42.0291C5.35048 42.3751 5.86916 42.4585 6.76525 42.6583C8.28144 42.9965 9.16336 43.021 10.7084 43.1827C13.1485 43.438 14.5269 43.4945 16.9795 43.5602C20.8344 43.6634 23.0015 43.5383 26.8508 43.3068C28.3772 43.215 29.2351 43.1786 30.7559 43.0183C32.278 42.8579 33.131 42.7492 34.6387 42.4858C35.793 42.2842 36.4441 42.1794 37.5786 41.8868C38.3485 41.6882 38.8002 41.6226 39.5312 41.3099C40.0107 41.1047 40.2844 40.9859 40.7153 40.692C40.8591 40.5939 40.9538 40.5529 41.0735 40.4265C41.1643 40.3306 41.2277 40.2771 41.2716 40.1526C41.2955 40.0847 41.3006 40.0432 41.3053 39.9713C41.3113 39.879 41.3236 39.8191 41.2842 39.7353Z" fill="#F5DEB3" stroke="#F5DEB3" stroke-width="0.5"/>
<path d="M38.6295 44.7302C39.243 44.621 40.1997 44.4462 40.1997 44.4462C40.1997 44.4462 39.2908 44.7881 38.689 44.9405C38.0635 45.0989 37.6976 45.1165 37.0627 45.2315C36.2621 45.3764 35.8165 45.4766 35.0136 45.6082C34.2206 45.7382 33.7609 45.8124 32.9769 45.9022C32.1928 45.9921 30.496 46.184 30.496 46.184L28.1315 46.3433L25.3412 46.4443C25.3412 46.4443 22.8436 46.4854 21.2432 46.5056C20.4047 46.5162 19.9344 46.5514 19.0961 46.5301C18.0243 46.5028 16.3825 46.3341 16.358 46.331C16.3335 46.328 13.5463 46.0737 13.5463 46.0737C13.5463 46.0737 11.7091 45.946 10.5447 45.7644C9.78797 45.6464 8.61823 45.3969 8.61823 45.3969C8.61823 45.3969 7.81499 45.2031 7.30121 45.0753C6.45045 44.8636 5.96084 44.7873 5.12661 44.5178C4.37645 44.2755 3.95846 44.1229 3.24297 43.7919C2.85604 43.6129 2.62516 43.5331 2.269 43.2988C1.88195 43.0442 1.62264 42.9154 1.36546 42.5301C1.21242 42.3007 1.12153 42.1585 1.07449 41.8869C1.03568 41.6628 1.0425 41.526 1.09591 41.3049C1.20243 40.864 1.46586 40.6898 1.79423 40.3769C2.22818 39.9634 3.10818 39.5836 3.10818 39.5836C3.10818 39.5836 2.40986 39.9816 2.07908 40.3616C1.85777 40.6158 1.6547 40.7507 1.6074 41.0844C1.57172 41.3362 1.63115 41.4889 1.72686 41.7245C1.88288 42.1086 2.11163 42.2528 2.42518 42.5239C2.83513 42.8784 3.13544 42.988 3.62273 43.2253C4.29628 43.5533 4.71188 43.6536 5.42673 43.8777C6.14487 44.1028 6.55632 44.2015 7.28892 44.3739C7.81985 44.4988 8.11982 44.5593 8.65493 44.6648C9.46366 44.8244 9.91997 44.9001 10.7346 45.0263C11.7717 45.1869 12.3564 45.257 13.3992 45.3754C14.5512 45.5062 15.1992 45.5612 16.3549 45.6541C17.4148 45.7393 18.01 45.7765 19.0716 45.8379C19.8786 45.8846 20.3311 45.9147 21.139 45.942C22.7206 45.9956 23.6089 45.9701 25.1913 45.9484C26.3068 45.9331 26.9326 45.9296 28.047 45.8785C28.942 45.8375 29.443 45.7976 30.3366 45.7341C31.3689 45.6608 31.9482 45.624 32.9781 45.5221C33.7368 45.447 34.1615 45.3978 34.918 45.3033L34.9323 45.3015C35.733 45.2015 36.1866 45.1448 36.9877 45.0178C37.6306 44.9158 37.9887 44.8443 38.6295 44.7302Z" fill="#F5DEB3" stroke="#F5DEB3" stroke-width="0.5"/>
<path d="M19.0389 18.1999C19.283 18.6007 19.8336 19.1014 19.8336 19.1014C19.8336 19.1014 19.2209 18.7057 18.9084 18.3659C18.6795 18.117 18.5564 17.9651 18.3984 17.6661C18.0745 17.0532 18.0094 16.6133 18.0662 15.9225C18.1293 15.156 18.33 14.7031 18.8017 14.0958C19.0973 13.7151 19.2945 13.5012 19.715 13.2655C20.1241 13.0361 20.4002 12.9793 20.8656 12.9215C21.4657 12.8469 21.8442 12.8439 22.4076 13.0638C22.7443 13.1953 23.2023 13.5383 23.2023 13.5383C23.2023 13.5383 22.6966 13.3648 22.3601 13.3129C21.8336 13.2317 21.5137 13.2106 20.9961 13.3366C20.5829 13.4372 20.3585 13.5474 19.9997 13.7755C19.6176 14.0184 19.409 14.187 19.1338 14.5465C18.7589 15.0363 18.6072 15.3937 18.5288 16.0055C18.4572 16.5652 18.5216 16.9038 18.6949 17.4407C18.7949 17.7505 18.8696 17.9219 19.0389 18.1999Z" fill="#F5DEB3" stroke="#F5DEB3" stroke-width="0.5"/>
<path d="M24.0719 20.9187C24.1089 21.3774 24.0867 21.7289 24.0867 21.7289L23.7797 21.7178C23.7797 21.7178 23.7831 21.26 23.7797 20.9668C23.7786 20.8729 23.7923 20.8188 23.776 20.7263C23.739 20.517 23.6297 20.4246 23.4948 20.2602C23.3911 20.1339 23.3236 20.0691 23.1952 19.968C23.049 19.8528 22.9605 19.7905 22.7882 19.7201C22.5942 19.6408 22.4717 19.6282 22.2629 19.6091C22.0094 19.586 21.5908 19.6239 21.5908 19.6239C21.5908 19.6239 22.0162 19.5287 22.2815 19.5278C22.4942 19.527 22.6187 19.5342 22.8216 19.598C23.0015 19.6547 23.0957 19.7106 23.2544 19.8126C23.4125 19.9142 23.5 19.9783 23.628 20.1159C23.7705 20.2691 23.8327 20.3735 23.9276 20.5599C23.9962 20.6945 24.0323 20.7729 24.0719 20.9187Z" fill="#F5DEB3" stroke="#F5DEB3"/>
<path d="M19.7863 21.0296C19.7497 21.2106 19.7473 21.5058 19.7473 21.5058L19.7509 21.6211H19.67C19.67 21.6211 19.6391 21.2401 19.67 20.9993C19.7133 20.6625 19.7768 20.472 19.9329 20.1703C20.0952 19.8564 20.2264 19.6946 20.4838 19.4525C20.6501 19.2962 20.7503 19.2111 20.9489 19.0987C21.1886 18.963 21.3417 18.9132 21.6111 18.856C22.0535 18.7623 22.3331 18.7646 22.7687 18.8864C22.9505 18.9372 23.0518 18.9748 23.2185 19.0633C23.4135 19.1668 23.5173 19.2474 23.6858 19.39C23.8563 19.5343 23.948 19.6183 24.0829 19.7963C24.3299 20.122 24.4873 20.7617 24.4873 20.7617C24.4873 20.7617 24.1874 20.1744 23.906 19.867C23.7796 19.729 23.7093 19.6668 23.5561 19.5594C23.3855 19.4398 23.2677 19.3898 23.077 19.3059C22.923 19.2382 22.8394 19.1905 22.6777 19.1442C22.2791 19.0301 22.0179 19.0268 21.6161 19.129C21.3923 19.186 21.2656 19.2321 21.06 19.3373C20.8581 19.4406 20.7499 19.5156 20.5748 19.6598C20.3356 19.8568 20.2248 20.0034 20.0693 20.2714C19.9107 20.5448 19.8488 20.7198 19.7863 21.0296Z" fill="#F5DEB3" stroke="#F5DEB3"/>
<path d="M20.2422 1.05288C19.8711 0.692202 19.2268 0.201416 19.2268 0.201416C19.2268 0.201416 20.0374 0.523493 20.5071 0.819514C21.3295 1.33783 21.8346 1.68761 22.3109 2.53505C22.5584 2.97533 22.669 3.25015 22.765 3.74602C22.8606 4.23948 22.8626 4.5344 22.7966 5.03267C22.711 5.67902 22.5139 6.0142 22.2479 6.60945C21.7703 7.67793 21.3114 8.18124 20.6206 9.12599C19.8999 10.1117 19.3767 10.571 18.6276 11.5353C18.056 12.2709 17.6517 12.6333 17.2085 13.4527C17.0538 13.7385 16.9708 13.9019 16.849 14.2032C16.7695 14.3997 16.7262 14.5109 16.6661 14.7141L16.663 14.7243C16.5996 14.9386 16.5627 15.0635 16.5336 15.2881C16.4976 15.5665 16.4908 15.7286 16.5273 16.0071C16.5439 16.134 16.5603 16.2043 16.5904 16.3287C16.656 16.5998 16.7066 16.7505 16.8237 17.0036C16.9052 17.1797 16.9554 17.2776 17.0634 17.4388C17.1687 17.596 17.245 17.6718 17.3661 17.8172C17.5882 18.084 17.7188 18.2289 17.959 18.4795C18.1832 18.7133 18.5519 19.0597 18.5519 19.0597C18.5519 19.0597 18.1106 18.8312 17.8455 18.6561C17.5277 18.4461 17.3528 18.3185 17.076 18.0569C16.9255 17.9146 16.8469 17.8264 16.7112 17.674L16.7039 17.6658C16.5363 17.4777 16.4349 17.3764 16.2939 17.1676C16.1158 16.9037 16.0187 16.7455 15.9218 16.4423C15.8651 16.2646 15.8464 16.1602 15.8209 15.9755C15.7801 15.6803 15.7941 15.5101 15.8083 15.2124L15.8096 15.1851C15.8205 14.9569 15.827 14.8196 15.8714 14.588C15.9246 14.3101 15.9851 14.1608 16.0795 13.8942C16.1728 13.6307 16.2357 13.4866 16.3507 13.2319C16.7705 12.3025 16.9629 11.9921 17.5668 11.1704C18.9288 9.31724 20.1344 8.38695 21.2892 6.42024C21.596 5.8976 21.8198 5.60671 21.9451 5.01375C22.046 4.53645 22.0615 4.24535 21.9767 3.76494C21.8998 3.32999 21.7819 3.09779 21.5828 2.70586L21.5793 2.69904C21.2042 1.96063 20.8361 1.63009 20.2422 1.05288Z" fill="#F5DEB3"/>
<path d="M17.2277 5.20321C16.9744 4.88913 16.4834 4.48657 16.4834 4.48657C16.4834 4.48657 17.0857 4.85558 17.3877 5.18355C17.7022 5.52497 17.8321 5.76438 18.0266 6.18585C18.1998 6.56135 18.2651 6.78926 18.3515 7.19367C18.4826 7.80734 18.467 8.17431 18.4406 8.79484L18.4396 8.81828C18.4043 9.64878 18.2345 10.0994 18.0816 10.9165C17.9145 11.81 17.7458 12.2972 17.6135 13.1965C17.5079 13.9151 17.4215 14.3206 17.4263 15.0469C17.4311 15.7786 17.4067 16.2151 17.6411 16.9083C17.7674 17.282 17.8722 17.4816 18.0706 17.8225C18.3021 18.2203 18.7645 18.7752 18.7645 18.7752C18.7645 18.7752 18.2384 18.2658 17.9825 17.8776C17.7549 17.5322 17.6474 17.32 17.5089 16.9303C17.2621 16.2361 17.2878 15.7946 17.2776 15.0579C17.2674 14.3169 17.3578 13.9031 17.4593 13.1689C17.5833 12.2727 17.7433 11.7853 17.8925 10.893C18.0287 10.0788 18.1665 9.62637 18.1985 8.80155C18.2226 8.1818 18.2535 7.82317 18.1332 7.21474C18.0571 6.83009 17.9965 6.61446 17.8438 6.25331C17.6587 5.81538 17.5262 5.57329 17.2277 5.20321Z" fill="#F5DEB3"/>
<path d="M22.0938 30.202C23.0872 30.202 23.9303 30.3 24.623 30.496C25.3158 30.6919 25.8786 30.954 26.3115 31.2821C26.749 31.6057 27.0658 31.9748 27.2617 32.3895C27.4577 32.8042 27.5557 33.2303 27.5557 33.6678C27.5557 34.037 27.4805 34.397 27.3301 34.7479C27.1797 35.0988 26.9609 35.3973 26.6738 35.6434C26.4323 35.8485 26.1611 36.0354 25.8604 36.204C25.5641 36.3726 25.2588 36.5321 24.9443 36.6825C24.6299 36.8283 24.3177 36.9719 24.0078 37.1132C23.6979 37.2544 23.4108 37.4025 23.1465 37.5575C22.8822 37.7124 22.6497 37.8788 22.4492 38.0565C22.2487 38.2343 22.1029 38.4348 22.0117 38.6581C21.9661 38.7629 21.8864 38.8153 21.7725 38.8153C21.6995 38.8153 21.638 38.7902 21.5879 38.7401C21.5423 38.6854 21.5195 38.6262 21.5195 38.5624C21.5195 38.5305 21.5264 38.4963 21.54 38.4598C21.6631 38.1818 21.8363 37.9403 22.0596 37.7352C22.2829 37.5256 22.5335 37.3387 22.8115 37.1747C23.0941 37.0106 23.3949 36.8602 23.7139 36.7235C24.0329 36.5868 24.3473 36.4478 24.6572 36.3065C24.9717 36.1652 25.2725 36.0149 25.5596 35.8553C25.8467 35.6958 26.0996 35.5135 26.3184 35.3085C26.5371 35.1034 26.7103 34.8687 26.8379 34.6044C26.9701 34.3355 27.0361 34.021 27.0361 33.661C27.0361 33.2828 26.9609 32.9478 26.8105 32.6561C26.6602 32.3645 26.4574 32.1115 26.2021 31.8973C25.9515 31.6786 25.6598 31.494 25.3271 31.3436C24.9945 31.1932 24.6458 31.0725 24.2812 30.9813C23.9167 30.8902 23.5452 30.8241 23.167 30.7831C22.7933 30.7421 22.4378 30.7216 22.1006 30.7216C21.4945 30.7216 20.9408 30.7785 20.4395 30.8925C19.9427 31.0018 19.5143 31.1636 19.1543 31.3778C18.7988 31.5874 18.5231 31.8449 18.3271 32.1503C18.1312 32.4556 18.0332 32.802 18.0332 33.1893C18.0332 33.4764 18.0856 33.7316 18.1904 33.955C18.2998 34.1783 18.4456 34.3674 18.6279 34.5223C18.8148 34.6773 19.029 34.7958 19.2705 34.8778C19.5166 34.9553 19.7786 34.994 20.0566 34.994C20.2754 34.994 20.4873 34.9667 20.6924 34.912C20.902 34.8573 21.0866 34.7775 21.2461 34.6727C21.2871 34.6454 21.3327 34.6317 21.3828 34.6317C21.4512 34.6317 21.5104 34.6568 21.5605 34.7069C21.6152 34.7525 21.6426 34.814 21.6426 34.8915C21.6426 34.9917 21.5833 35.0806 21.4648 35.1581C21.3464 35.2356 21.2028 35.3016 21.0342 35.3563C20.8701 35.4065 20.6947 35.4452 20.5078 35.4725C20.3255 35.4999 20.1706 35.5135 20.043 35.5135C19.651 35.5135 19.2979 35.4543 18.9834 35.3358C18.6735 35.2128 18.4092 35.0464 18.1904 34.8368C17.9762 34.6272 17.8099 34.3811 17.6914 34.0985C17.5775 33.8114 17.5205 33.5038 17.5205 33.1757C17.5205 32.7154 17.6299 32.3029 17.8486 31.9384C18.0719 31.5692 18.3841 31.257 18.7852 31.0018C19.1862 30.7466 19.667 30.5507 20.2275 30.4139C20.7926 30.2727 21.4147 30.202 22.0938 30.202ZM22.0322 40.2303C22.0322 40.3352 21.9958 40.4218 21.9229 40.4901C21.8545 40.563 21.7679 40.5995 21.6631 40.5995C21.5583 40.5995 21.4694 40.563 21.3965 40.4901C21.3281 40.4218 21.2939 40.3352 21.2939 40.2303C21.2939 40.1255 21.3281 40.0389 21.3965 39.9706C21.4694 39.8977 21.5583 39.8612 21.6631 39.8612C21.7679 39.8612 21.8545 39.8977 21.9229 39.9706C21.9958 40.0389 22.0322 40.1255 22.0322 40.2303Z" fill="#F5DEB3"/>
</svg>
