<svg width="740" height="26" viewBox="0 0 740 26" fill="none" xmlns="http://www.w3.org/2000/svg">
<path d="M155.042 15.8843C155.042 16.3596 154.944 16.8056 154.749 17.2222C154.56 17.6389 154.303 18.0035 153.977 18.316C153.658 18.6285 153.284 18.8759 152.854 19.0582C152.431 19.2339 151.982 19.3218 151.506 19.3218H150.5C150.025 19.3218 149.573 19.2339 149.143 19.0582C148.72 18.8759 148.346 18.6285 148.02 18.316C147.701 18.0035 147.444 17.6389 147.249 17.2222C147.06 16.8056 146.965 16.3596 146.965 15.8843V15.3277L148.225 15.1226V15.8843C148.225 16.1968 148.287 16.4898 148.411 16.7632C148.541 17.0302 148.713 17.2678 148.928 17.4761C149.143 17.678 149.39 17.8375 149.67 17.9547C149.957 18.0718 150.256 18.1304 150.569 18.1304H151.448C151.76 18.1304 152.056 18.0718 152.336 17.9547C152.616 17.8375 152.864 17.678 153.079 17.4761C153.293 17.2678 153.463 17.0302 153.586 16.7632C153.717 16.4898 153.782 16.1968 153.782 15.8843V15.4644C153.782 14.9826 153.687 14.5823 153.499 14.2632C153.31 13.9442 153.059 13.6741 152.747 13.4527C152.434 13.2248 152.079 13.0328 151.682 12.8765C151.292 12.7203 150.888 12.564 150.471 12.4078C150.055 12.2515 149.648 12.079 149.25 11.8902C148.86 11.7014 148.508 11.467 148.196 11.1871C147.883 10.9006 147.633 10.5523 147.444 10.1422C147.255 9.73199 147.161 9.22744 147.161 8.62848V8.36481C147.161 7.88955 147.249 7.44358 147.424 7.02692C147.607 6.61025 147.854 6.24567 148.167 5.93317C148.479 5.62067 148.844 5.37653 149.26 5.20074C149.683 5.01845 150.133 4.92731 150.608 4.92731H151.506C151.982 4.92731 152.428 5.01845 152.844 5.20074C153.261 5.37653 153.625 5.62067 153.938 5.93317C154.25 6.24567 154.495 6.61025 154.67 7.02692C154.853 7.44358 154.944 7.88955 154.944 8.36481V8.72614L153.684 8.93121V8.36481C153.684 8.05231 153.625 7.76259 153.508 7.49567C153.391 7.22223 153.232 6.9846 153.03 6.78278C152.828 6.58095 152.59 6.42145 152.317 6.30426C152.05 6.18707 151.76 6.12848 151.448 6.12848H150.667C150.354 6.12848 150.061 6.18707 149.788 6.30426C149.521 6.42145 149.283 6.58095 149.075 6.78278C148.873 6.9846 148.713 7.22223 148.596 7.49567C148.479 7.76259 148.42 8.05231 148.42 8.36481V8.62848C148.42 9.0777 148.515 9.4553 148.704 9.76129C148.892 10.0673 149.143 10.331 149.456 10.5523C149.768 10.7672 150.12 10.956 150.51 11.1187C150.907 11.275 151.314 11.4377 151.731 11.607C152.148 11.7698 152.551 11.952 152.942 12.1539C153.339 12.3492 153.694 12.5933 154.006 12.8863C154.319 13.1727 154.569 13.5243 154.758 13.941C154.947 14.3576 155.042 14.8655 155.042 15.4644V15.8843ZM157.756 19.1265V5.12262H165.637V6.32379H159.016V11.5289H164.377V12.73H159.016V17.9254H165.637V19.1265H157.756ZM174.631 19.1265L170.833 13.15H169.104V19.1265H167.844V5.12262H172.288C172.763 5.12262 173.209 5.21377 173.625 5.39606C174.042 5.57184 174.407 5.81598 174.719 6.12848C175.032 6.44098 175.276 6.80882 175.452 7.23199C175.634 7.64866 175.725 8.09462 175.725 8.56989V9.7027C175.725 10.178 175.634 10.6272 175.452 11.0504C175.276 11.467 175.032 11.8316 174.719 12.1441C174.407 12.4566 174.042 12.704 173.625 12.8863C173.209 13.0621 172.763 13.15 172.288 13.15L176.086 19.1265H174.631ZM174.465 8.56989C174.465 8.25739 174.407 7.96767 174.29 7.70074C174.172 7.42731 174.013 7.18968 173.811 6.98785C173.609 6.77952 173.372 6.61676 173.098 6.49957C172.831 6.38239 172.542 6.32379 172.229 6.32379H169.104V11.9488H172.229C172.542 11.9488 172.831 11.8902 173.098 11.773C173.372 11.6558 173.609 11.4963 173.811 11.2945C174.013 11.0862 174.172 10.8485 174.29 10.5816C174.407 10.3082 174.465 10.0152 174.465 9.7027V8.56989ZM181.497 16.0504L181.536 16.5679L181.575 16.0504L184.68 5.12262H185.979L181.858 19.1265H181.194L177.092 5.12262H178.401L181.497 16.0504ZM187.776 19.1265V5.12262H195.657V6.32379H189.036V11.5289H194.397V12.73H189.036V17.9254H195.657V19.1265H187.776ZM206.077 6.32379V19.1265H204.817V6.32379H201.477V5.12262H209.417V6.32379H206.077ZM218.049 19.1265V12.73H212.688V19.1265H211.428V5.12262H212.688V11.5289H218.049V5.12262H219.309V19.1265H218.049ZM222.522 19.1265V5.12262H223.782V19.1265H222.522ZM234.67 15.8843C234.67 16.3596 234.573 16.8056 234.377 17.2222C234.189 17.6389 233.931 18.0035 233.606 18.316C233.287 18.6285 232.913 18.8759 232.483 19.0582C232.06 19.2339 231.611 19.3218 231.135 19.3218H230.129C229.654 19.3218 229.202 19.2339 228.772 19.0582C228.349 18.8759 227.974 18.6285 227.649 18.316C227.33 18.0035 227.073 17.6389 226.877 17.2222C226.689 16.8056 226.594 16.3596 226.594 15.8843V15.3277L227.854 15.1226V15.8843C227.854 16.1968 227.916 16.4898 228.04 16.7632C228.17 17.0302 228.342 17.2678 228.557 17.4761C228.772 17.678 229.019 17.8375 229.299 17.9547C229.586 18.0718 229.885 18.1304 230.198 18.1304H231.077C231.389 18.1304 231.685 18.0718 231.965 17.9547C232.245 17.8375 232.493 17.678 232.708 17.4761C232.922 17.2678 233.092 17.0302 233.215 16.7632C233.346 16.4898 233.411 16.1968 233.411 15.8843V15.4644C233.411 14.9826 233.316 14.5823 233.127 14.2632C232.939 13.9442 232.688 13.6741 232.375 13.4527C232.063 13.2248 231.708 13.0328 231.311 12.8765C230.92 12.7203 230.517 12.564 230.1 12.4078C229.683 12.2515 229.277 12.079 228.879 11.8902C228.489 11.7014 228.137 11.467 227.825 11.1871C227.512 10.9006 227.262 10.5523 227.073 10.1422C226.884 9.73199 226.79 9.22744 226.79 8.62848V8.36481C226.79 7.88955 226.877 7.44358 227.053 7.02692C227.236 6.61025 227.483 6.24567 227.795 5.93317C228.108 5.62067 228.472 5.37653 228.889 5.20074C229.312 5.01845 229.762 4.92731 230.237 4.92731H231.135C231.611 4.92731 232.056 5.01845 232.473 5.20074C232.89 5.37653 233.254 5.62067 233.567 5.93317C233.879 6.24567 234.124 6.61025 234.299 7.02692C234.482 7.44358 234.573 7.88955 234.573 8.36481V8.72614L233.313 8.93121V8.36481C233.313 8.05231 233.254 7.76259 233.137 7.49567C233.02 7.22223 232.861 6.9846 232.659 6.78278C232.457 6.58095 232.219 6.42145 231.946 6.30426C231.679 6.18707 231.389 6.12848 231.077 6.12848H230.295C229.983 6.12848 229.69 6.18707 229.417 6.30426C229.15 6.42145 228.912 6.58095 228.704 6.78278C228.502 6.9846 228.342 7.22223 228.225 7.49567C228.108 7.76259 228.049 8.05231 228.049 8.36481V8.62848C228.049 9.0777 228.144 9.4553 228.333 9.76129C228.521 10.0673 228.772 10.331 229.084 10.5523C229.397 10.7672 229.749 10.956 230.139 11.1187C230.536 11.275 230.943 11.4377 231.36 11.607C231.777 11.7698 232.18 11.952 232.571 12.1539C232.968 12.3492 233.323 12.5933 233.635 12.8863C233.948 13.1727 234.198 13.5243 234.387 13.941C234.576 14.3576 234.67 14.8655 234.67 15.4644V15.8843ZM245.393 6.32379V19.1265H244.133V6.32379H240.793V5.12262H248.733V6.32379H245.393ZM258.42 15.8843C258.42 16.3596 258.329 16.8056 258.147 17.2222C257.971 17.6389 257.727 18.0035 257.415 18.316C257.102 18.6285 256.737 18.8759 256.321 19.0582C255.904 19.2339 255.458 19.3218 254.983 19.3218H253.987C253.512 19.3218 253.062 19.2339 252.639 19.0582C252.222 18.8759 251.858 18.6285 251.545 18.316C251.233 18.0035 250.986 17.6389 250.803 17.2222C250.627 16.8056 250.54 16.3596 250.54 15.8843V8.36481C250.54 7.88955 250.627 7.44358 250.803 7.02692C250.986 6.61025 251.233 6.24567 251.545 5.93317C251.858 5.62067 252.222 5.37653 252.639 5.20074C253.062 5.01845 253.512 4.92731 253.987 4.92731H254.983C255.458 4.92731 255.904 5.01845 256.321 5.20074C256.737 5.37653 257.102 5.62067 257.415 5.93317C257.727 6.24567 257.971 6.61025 258.147 7.02692C258.329 7.44358 258.42 7.88955 258.42 8.36481V15.8843ZM257.161 8.36481C257.161 8.05231 257.102 7.76259 256.985 7.49567C256.868 7.22223 256.708 6.9846 256.506 6.78278C256.305 6.58095 256.067 6.42145 255.793 6.30426C255.527 6.18707 255.237 6.12848 254.924 6.12848H254.045C253.733 6.12848 253.44 6.18707 253.167 6.30426C252.9 6.42145 252.662 6.58095 252.454 6.78278C252.252 6.9846 252.092 7.22223 251.975 7.49567C251.858 7.76259 251.799 8.05231 251.799 8.36481V15.8843C251.799 16.1968 251.858 16.4898 251.975 16.7632C252.092 17.0302 252.252 17.2678 252.454 17.4761C252.662 17.678 252.9 17.8375 253.167 17.9547C253.44 18.0718 253.733 18.1304 254.045 18.1304H254.924C255.237 18.1304 255.527 18.0718 255.793 17.9547C256.067 17.8375 256.305 17.678 256.506 17.4761C256.708 17.2678 256.868 17.0302 256.985 16.7632C257.102 16.4898 257.161 16.1968 257.161 15.8843V8.36481ZM268.645 19.1265L262.805 8.93121L262.688 8.32574V19.1265H261.428V5.12262H262.083L267.922 15.3277L268.049 15.9234V5.12262H269.309V19.1265H268.645ZM272.522 19.1265V5.12262H273.782V19.1265H272.522ZM284.67 19.1265H284.27L283.538 18.0035C283.232 18.4071 282.861 18.7294 282.424 18.9703C281.988 19.2047 281.503 19.3218 280.969 19.3218H280.237C279.762 19.3218 279.312 19.2339 278.889 19.0582C278.472 18.8759 278.108 18.6285 277.795 18.316C277.483 18.0035 277.236 17.6389 277.053 17.2222C276.877 16.8056 276.79 16.3596 276.79 15.8843V8.36481C276.79 7.88955 276.877 7.44358 277.053 7.02692C277.236 6.61025 277.483 6.24567 277.795 5.93317C278.108 5.62067 278.472 5.37653 278.889 5.20074C279.312 5.01845 279.762 4.92731 280.237 4.92731H281.233C281.708 4.92731 282.154 5.01845 282.571 5.20074C282.987 5.37653 283.352 5.62067 283.665 5.93317C283.977 6.24567 284.221 6.61025 284.397 7.02692C284.579 7.44358 284.67 7.88955 284.67 8.36481V8.93121L283.411 9.12653V8.36481C283.411 8.05231 283.352 7.76259 283.235 7.49567C283.118 7.22223 282.958 6.9846 282.756 6.78278C282.555 6.58095 282.317 6.42145 282.043 6.30426C281.777 6.18707 281.487 6.12848 281.174 6.12848H280.295C279.983 6.12848 279.69 6.18707 279.417 6.30426C279.15 6.42145 278.912 6.58095 278.704 6.78278C278.502 6.9846 278.342 7.22223 278.225 7.49567C278.108 7.76259 278.049 8.05231 278.049 8.36481V15.8843C278.049 16.1968 278.108 16.4898 278.225 16.7632C278.342 17.0302 278.502 17.2678 278.704 17.4761C278.912 17.678 279.15 17.8375 279.417 17.9547C279.69 18.0718 279.983 18.1304 280.295 18.1304H281.174C281.487 18.1304 281.777 18.0718 282.043 17.9547C282.317 17.8375 282.555 17.678 282.756 17.4761C282.958 17.2678 283.118 17.0302 283.235 16.7632C283.352 16.4898 283.411 16.1968 283.411 15.8843V12.9644H281.174V11.7632H284.67V19.1265ZM294.299 19.1265V12.73H288.938V19.1265H287.678V5.12262H288.938V11.5289H294.299V5.12262H295.559V19.1265H294.299ZM302.17 6.32379V19.1265H300.911V6.32379H297.571V5.12262H305.51V6.32379H302.17Z" fill="#F5DEB3"/>
<line x1="0.883057" y1="12.1265" x2="135.49" y2="12.1265" stroke="#F5DEB3"/>
<line x1="317.039" y1="12.1266" x2="739.142" y2="12.1265" stroke="#F5DEB3"/>
</svg>
